G04*
G04 #@! TF.GenerationSoftware,Altium Limited,Altium Designer,24.5.2 (23)*
G04*
G04 Layer_Color=32896*
%FSLAX44Y44*%
%MOMM*%
G71*
G04*
G04 #@! TF.SameCoordinates,393E536B-8F59-49B7-8278-4084FBF8F83B*
G04*
G04*
G04 #@! TF.FilePolarity,Positive*
G04*
G01*
G75*
%ADD10C,0.2500*%
%ADD11C,0.2000*%
G36*
X271044Y277546D02*
X266867Y273369D01*
X266789Y273337D01*
X266664Y273306D01*
X266507Y273322D01*
X266398Y273384D01*
X266288Y273463D01*
X266257Y273478D01*
X266038Y273635D01*
X266007Y273650D01*
X265788Y273807D01*
X265756Y273822D01*
X265537Y273979D01*
X265506Y273995D01*
X265287Y274151D01*
X265256Y274167D01*
X265037Y274323D01*
X265005Y274339D01*
X264786Y274495D01*
X264755Y274511D01*
X264645Y274589D01*
X264614Y274605D01*
X264583Y274636D01*
X264552Y274652D01*
X264442Y274730D01*
X264411Y274746D01*
X264192Y274902D01*
X264160Y274918D01*
X263941Y275074D01*
X263910Y275090D01*
X263691Y275246D01*
X263660Y275262D01*
X263441Y275418D01*
X263409Y275434D01*
X263190Y275590D01*
X263159Y275606D01*
X262940Y275763D01*
X262909Y275778D01*
X262799Y275856D01*
X262768Y275872D01*
X262737Y275903D01*
X262705Y275919D01*
X262596Y275997D01*
X262565Y276013D01*
X262346Y276169D01*
X262314Y276185D01*
X262095Y276341D01*
X262064Y276357D01*
X261845Y276514D01*
X261814Y276529D01*
X261595Y276686D01*
X261563Y276701D01*
X261344Y276858D01*
X261313Y276873D01*
X261094Y277030D01*
X261063Y277045D01*
X260844Y277202D01*
X260812Y277218D01*
X260703Y277296D01*
X260671Y277311D01*
X260640Y277343D01*
X260609Y277358D01*
X260499Y277421D01*
X260390Y277452D01*
X260280Y277468D01*
X260124Y277452D01*
X259608Y277186D01*
X257965Y276310D01*
X257761Y276201D01*
X257527Y276075D01*
X257355Y275997D01*
X257167Y276013D01*
X257081Y276083D01*
X257034Y276130D01*
X256971Y276271D01*
X256940Y276349D01*
X256893Y276459D01*
X256862Y276537D01*
X256815Y276646D01*
X256752Y276803D01*
X256705Y276912D01*
X256674Y276991D01*
X256627Y277100D01*
X256565Y277257D01*
X256518Y277366D01*
X256486Y277444D01*
X256439Y277554D01*
X256377Y277710D01*
X256330Y277820D01*
X256299Y277898D01*
X256252Y278008D01*
X256189Y278164D01*
X256142Y278274D01*
X256111Y278352D01*
X256064Y278461D01*
X256001Y278618D01*
X255954Y278727D01*
X255923Y278806D01*
X255876Y278915D01*
X255814Y279072D01*
X255767Y279181D01*
X255735Y279259D01*
X255688Y279369D01*
X255626Y279525D01*
X255579Y279635D01*
X255548Y279713D01*
X255501Y279823D01*
X255438Y279979D01*
X255391Y280089D01*
X255360Y280167D01*
X255313Y280276D01*
X255250Y280433D01*
X255203Y280542D01*
X255172Y280620D01*
X255125Y280730D01*
X255063Y280886D01*
X255016Y280996D01*
X254984Y281074D01*
X254937Y281184D01*
X254875Y281340D01*
X254828Y281450D01*
X254797Y281528D01*
X254750Y281637D01*
X254687Y281794D01*
X254640Y281903D01*
X254609Y281982D01*
X254562Y282091D01*
X254499Y282248D01*
X254452Y282357D01*
X254421Y282435D01*
X254374Y282545D01*
X254312Y282701D01*
X254265Y282811D01*
X254233Y282889D01*
X254186Y282999D01*
X254124Y283155D01*
X254077Y283265D01*
X254014Y283421D01*
X253967Y283530D01*
X253936Y283609D01*
X253889Y283718D01*
X253827Y283875D01*
X253780Y283984D01*
X253748Y284062D01*
X253701Y284172D01*
X253639Y284328D01*
X253592Y284438D01*
X253561Y284516D01*
X253514Y284626D01*
X253451Y284782D01*
X253404Y284892D01*
X253373Y284970D01*
X253326Y285079D01*
X253263Y285236D01*
X253216Y285345D01*
X253185Y285424D01*
X253138Y285533D01*
X253076Y285690D01*
X253029Y285799D01*
X252997Y285877D01*
X252950Y285987D01*
X252888Y286143D01*
X252841Y286253D01*
X252810Y286331D01*
X252763Y286441D01*
X252700Y286597D01*
X252653Y286707D01*
X252622Y286785D01*
X252575Y286894D01*
X252512Y287051D01*
X252465Y287160D01*
X252434Y287238D01*
X252387Y287348D01*
X252325Y287504D01*
X252278Y287614D01*
X252246Y287692D01*
X252199Y287802D01*
X252137Y287958D01*
X252090Y288068D01*
X252059Y288146D01*
X252012Y288255D01*
X251949Y288412D01*
X251902Y288521D01*
X251871Y288599D01*
X251824Y288709D01*
X251761Y288866D01*
X251714Y288975D01*
X251683Y289053D01*
X251667Y289163D01*
X251683Y289304D01*
X251785Y289452D01*
X251847Y289515D01*
X251988Y289593D01*
X252082Y289656D01*
X252113Y289671D01*
X252239Y289750D01*
X252270Y289765D01*
X252364Y289828D01*
X252395Y289843D01*
X252630Y290000D01*
X252825Y290148D01*
X252880Y290203D01*
X252911Y290219D01*
X252943Y290250D01*
X252974Y290266D01*
X253169Y290399D01*
X253263Y290461D01*
X253287Y290485D01*
X253318Y290501D01*
X253600Y290720D01*
X253686Y290790D01*
X253741Y290829D01*
X253787Y290876D01*
X253819Y290892D01*
X253897Y290970D01*
X253928Y290986D01*
X254053Y291111D01*
X254085Y291126D01*
X254562Y291604D01*
X254578Y291635D01*
X254703Y291760D01*
X254718Y291791D01*
X254797Y291869D01*
X254812Y291901D01*
X254875Y291963D01*
X254890Y291995D01*
X254937Y292041D01*
X254953Y292073D01*
X255000Y292120D01*
X255016Y292151D01*
X255047Y292182D01*
X255063Y292214D01*
X255110Y292261D01*
X255125Y292292D01*
X255156Y292323D01*
X255172Y292355D01*
X255391Y292667D01*
X255407Y292699D01*
X255485Y292808D01*
X255501Y292839D01*
X255579Y292965D01*
X255595Y292996D01*
X255673Y293121D01*
X255798Y293356D01*
X256064Y293903D01*
X256111Y294013D01*
X256236Y294326D01*
X256275Y294428D01*
X256424Y294889D01*
X256455Y294998D01*
X256471Y295061D01*
X256502Y295171D01*
X256565Y295421D01*
X256588Y295523D01*
X256619Y295679D01*
X256635Y295773D01*
X256651Y295851D01*
X256666Y295945D01*
X256705Y296266D01*
X256721Y296328D01*
X256744Y296618D01*
X256760Y296868D01*
X256768Y297705D01*
X256752Y297752D01*
X256729Y298135D01*
X256713Y298261D01*
X256690Y298472D01*
X256674Y298534D01*
X256651Y298699D01*
X256635Y298777D01*
X256604Y298965D01*
X256572Y299090D01*
X256557Y299168D01*
X256525Y299293D01*
X256510Y299371D01*
X256486Y299457D01*
X256424Y299676D01*
X256228Y300247D01*
X256103Y300560D01*
X256025Y300732D01*
X255993Y300811D01*
X255673Y301429D01*
X255548Y301648D01*
X255469Y301757D01*
X255454Y301789D01*
X255297Y302023D01*
X254992Y302438D01*
X254969Y302461D01*
X254953Y302493D01*
X254922Y302524D01*
X254906Y302555D01*
X254859Y302602D01*
X254844Y302633D01*
X254765Y302712D01*
X254750Y302743D01*
X254656Y302837D01*
X254640Y302868D01*
X254468Y303040D01*
X254452Y303071D01*
X254147Y303377D01*
X254116Y303392D01*
X253960Y303549D01*
X253928Y303564D01*
X253834Y303658D01*
X253803Y303674D01*
X253725Y303752D01*
X253694Y303768D01*
X253647Y303815D01*
X253615Y303830D01*
X253584Y303862D01*
X253553Y303877D01*
X253506Y303924D01*
X253475Y303940D01*
X253428Y303987D01*
X253396Y304002D01*
X253021Y304268D01*
X252990Y304284D01*
X252880Y304362D01*
X252849Y304378D01*
X252677Y304487D01*
X252505Y304581D01*
X252395Y304644D01*
X251722Y304972D01*
X251613Y305019D01*
X251378Y305113D01*
X251276Y305152D01*
X250768Y305317D01*
X250705Y305332D01*
X250486Y305395D01*
X250361Y305426D01*
X250259Y305450D01*
X250197Y305465D01*
X250119Y305481D01*
X250056Y305497D01*
X249868Y305528D01*
X249790Y305543D01*
X249696Y305559D01*
X249485Y305583D01*
X249422Y305598D01*
X249219Y305614D01*
X249156Y305630D01*
X248711Y305653D01*
X248077Y305661D01*
X248030Y305645D01*
X247592Y305630D01*
X247545Y305614D01*
X247318Y305590D01*
X247193Y305575D01*
X246989Y305543D01*
X246911Y305528D01*
X246724Y305497D01*
X246661Y305481D01*
X246583Y305465D01*
X246458Y305434D01*
X246379Y305418D01*
X246254Y305387D01*
X246168Y305364D01*
X245949Y305301D01*
X245472Y305137D01*
X245315Y305074D01*
X245190Y305027D01*
X245112Y304996D01*
X244854Y304879D01*
X244275Y304581D01*
X244166Y304519D01*
X244040Y304440D01*
X244009Y304425D01*
X243915Y304362D01*
X243884Y304347D01*
X243774Y304268D01*
X243743Y304253D01*
X243634Y304174D01*
X243602Y304159D01*
X243571Y304128D01*
X243540Y304112D01*
X243235Y303885D01*
X243211Y303862D01*
X243180Y303846D01*
X243133Y303799D01*
X243102Y303783D01*
X243055Y303736D01*
X243023Y303721D01*
X242945Y303643D01*
X242914Y303627D01*
X242820Y303533D01*
X242789Y303517D01*
X242585Y303314D01*
X242554Y303298D01*
X242358Y303103D01*
X242343Y303071D01*
X242139Y302868D01*
X242124Y302837D01*
X242030Y302743D01*
X242014Y302712D01*
X241936Y302633D01*
X241920Y302602D01*
X241873Y302555D01*
X241858Y302524D01*
X241811Y302477D01*
X241795Y302446D01*
X241764Y302414D01*
X241748Y302383D01*
X241701Y302336D01*
X241686Y302305D01*
X241654Y302274D01*
X241639Y302242D01*
X241607Y302211D01*
X241592Y302180D01*
X241404Y301914D01*
X241388Y301882D01*
X241310Y301773D01*
X241295Y301742D01*
X241185Y301570D01*
X241091Y301397D01*
X241029Y301288D01*
X240716Y300646D01*
X240653Y300506D01*
X240591Y300349D01*
X240551Y300247D01*
X240520Y300169D01*
X240372Y299708D01*
X240278Y299379D01*
X240246Y299254D01*
X240223Y299152D01*
X240207Y299090D01*
X240192Y299011D01*
X240176Y298949D01*
X240160Y298855D01*
X240145Y298777D01*
X240113Y298589D01*
X240074Y298268D01*
X240059Y298206D01*
X240027Y297705D01*
X240012Y297502D01*
X240027Y296641D01*
X240043Y296594D01*
X240059Y296313D01*
X240074Y296266D01*
X240098Y296070D01*
X240129Y295867D01*
X240145Y295773D01*
X240207Y295460D01*
X240317Y295022D01*
X240340Y294936D01*
X240403Y294733D01*
X240489Y294490D01*
X240551Y294318D01*
X240598Y294193D01*
X240661Y294036D01*
X240786Y293755D01*
X240825Y293669D01*
X241060Y293215D01*
X241122Y293105D01*
X241201Y292980D01*
X241216Y292949D01*
X241295Y292824D01*
X241310Y292792D01*
X241388Y292683D01*
X241404Y292652D01*
X241482Y292542D01*
X241498Y292511D01*
X241725Y292206D01*
X241764Y292151D01*
X241834Y292065D01*
X241960Y291909D01*
X241999Y291869D01*
X242014Y291838D01*
X242093Y291760D01*
X242108Y291729D01*
X242249Y291588D01*
X242265Y291556D01*
X242695Y291126D01*
X242726Y291111D01*
X242851Y290986D01*
X242883Y290970D01*
X242961Y290892D01*
X242992Y290876D01*
X243070Y290798D01*
X243102Y290782D01*
X243149Y290735D01*
X243180Y290720D01*
X243227Y290673D01*
X243258Y290657D01*
X243289Y290626D01*
X243321Y290610D01*
X243352Y290579D01*
X243383Y290563D01*
X243415Y290532D01*
X243446Y290516D01*
X243477Y290485D01*
X243508Y290469D01*
X243727Y290313D01*
X243759Y290297D01*
X243868Y290219D01*
X243900Y290203D01*
X243978Y290125D01*
X244009Y290109D01*
X244056Y290062D01*
X244087Y290047D01*
X244119Y290016D01*
X244150Y290000D01*
X244181Y289968D01*
X244212Y289953D01*
X244306Y289890D01*
X244338Y289875D01*
X244431Y289812D01*
X244463Y289796D01*
X244635Y289687D01*
X244666Y289671D01*
X244791Y289593D01*
X244823Y289577D01*
X244916Y289515D01*
X244948Y289499D01*
X245049Y289398D01*
X245096Y289288D01*
X245112Y289225D01*
X245096Y289038D01*
X245034Y288897D01*
X244971Y288740D01*
X244924Y288631D01*
X244893Y288553D01*
X244846Y288443D01*
X244784Y288287D01*
X244737Y288177D01*
X244705Y288099D01*
X244658Y287989D01*
X244596Y287833D01*
X244549Y287723D01*
X244518Y287645D01*
X244471Y287536D01*
X244408Y287379D01*
X244361Y287270D01*
X244330Y287192D01*
X244283Y287082D01*
X244220Y286926D01*
X244173Y286816D01*
X244142Y286738D01*
X244095Y286628D01*
X244033Y286472D01*
X243986Y286362D01*
X243954Y286284D01*
X243907Y286175D01*
X243845Y286018D01*
X243798Y285909D01*
X243767Y285830D01*
X243720Y285721D01*
X243657Y285564D01*
X243610Y285455D01*
X243579Y285377D01*
X243532Y285267D01*
X243469Y285111D01*
X243422Y285001D01*
X243391Y284923D01*
X243344Y284813D01*
X243282Y284657D01*
X243235Y284547D01*
X243203Y284469D01*
X243156Y284360D01*
X243094Y284203D01*
X243047Y284094D01*
X243016Y284016D01*
X242969Y283906D01*
X242906Y283750D01*
X242859Y283640D01*
X242828Y283562D01*
X242781Y283452D01*
X242718Y283296D01*
X242671Y283186D01*
X242640Y283108D01*
X242593Y282999D01*
X242531Y282842D01*
X242484Y282733D01*
X242452Y282654D01*
X242405Y282545D01*
X242343Y282388D01*
X242296Y282279D01*
X242265Y282201D01*
X242218Y282091D01*
X242155Y281935D01*
X242108Y281825D01*
X242077Y281747D01*
X242030Y281637D01*
X241967Y281481D01*
X241920Y281371D01*
X241889Y281293D01*
X241842Y281184D01*
X241780Y281027D01*
X241733Y280918D01*
X241701Y280839D01*
X241654Y280730D01*
X241592Y280574D01*
X241545Y280464D01*
X241514Y280386D01*
X241467Y280276D01*
X241404Y280120D01*
X241357Y280010D01*
X241326Y279932D01*
X241279Y279823D01*
X241216Y279666D01*
X241169Y279557D01*
X241138Y279478D01*
X241091Y279369D01*
X241029Y279212D01*
X240982Y279103D01*
X240950Y279025D01*
X240903Y278915D01*
X240872Y278837D01*
X240825Y278727D01*
X240763Y278571D01*
X240716Y278461D01*
X240685Y278383D01*
X240637Y278274D01*
X240575Y278117D01*
X240528Y278008D01*
X240497Y277929D01*
X240450Y277820D01*
X240387Y277663D01*
X240340Y277554D01*
X240309Y277476D01*
X240262Y277366D01*
X240200Y277210D01*
X240152Y277100D01*
X240121Y277022D01*
X240074Y276912D01*
X240012Y276756D01*
X239965Y276646D01*
X239933Y276568D01*
X239886Y276459D01*
X239824Y276302D01*
X239777Y276193D01*
X239707Y276075D01*
X239675Y276060D01*
X239644Y276028D01*
X239534Y275997D01*
X239378Y276013D01*
X239081Y276169D01*
X238846Y276294D01*
X238643Y276404D01*
X237235Y277155D01*
X237031Y277264D01*
X236797Y277390D01*
X236687Y277437D01*
X236625Y277452D01*
X236515Y277468D01*
X236359Y277452D01*
X236280Y277421D01*
X236249Y277405D01*
X236100Y277304D01*
X235913Y277178D01*
X235889Y277155D01*
X235858Y277139D01*
X235748Y277061D01*
X235717Y277045D01*
X235498Y276889D01*
X235467Y276873D01*
X235248Y276717D01*
X235216Y276701D01*
X234997Y276545D01*
X234966Y276529D01*
X234747Y276373D01*
X234716Y276357D01*
X234497Y276201D01*
X234465Y276185D01*
X234356Y276107D01*
X234325Y276091D01*
X234293Y276060D01*
X234262Y276044D01*
X234153Y275966D01*
X234121Y275950D01*
X233902Y275794D01*
X233871Y275778D01*
X233652Y275622D01*
X233621Y275606D01*
X233402Y275450D01*
X233370Y275434D01*
X233151Y275278D01*
X233120Y275262D01*
X232901Y275105D01*
X232870Y275090D01*
X232651Y274933D01*
X232619Y274918D01*
X232510Y274839D01*
X232479Y274824D01*
X232447Y274792D01*
X232416Y274777D01*
X232306Y274699D01*
X232275Y274683D01*
X232056Y274527D01*
X232025Y274511D01*
X231806Y274354D01*
X231774Y274339D01*
X231555Y274182D01*
X231524Y274167D01*
X231305Y274010D01*
X231274Y273995D01*
X231055Y273838D01*
X231023Y273822D01*
X230804Y273666D01*
X230773Y273650D01*
X230554Y273494D01*
X230523Y273478D01*
X230413Y273400D01*
X230382Y273384D01*
X230241Y273322D01*
X230179Y273306D01*
X230022Y273322D01*
X229881Y273400D01*
X224445Y278837D01*
X224398Y278946D01*
X224382Y279056D01*
X224398Y279212D01*
X224609Y279533D01*
X224726Y279697D01*
X224742Y279729D01*
X224898Y279948D01*
X224914Y279979D01*
X224992Y280089D01*
X225008Y280120D01*
X225039Y280151D01*
X225055Y280182D01*
X225133Y280292D01*
X225149Y280323D01*
X225305Y280542D01*
X225321Y280574D01*
X225477Y280793D01*
X225493Y280824D01*
X225649Y281043D01*
X225665Y281074D01*
X225821Y281293D01*
X225837Y281325D01*
X225915Y281434D01*
X225931Y281465D01*
X225962Y281497D01*
X225978Y281528D01*
X226056Y281637D01*
X226072Y281669D01*
X226228Y281888D01*
X226244Y281919D01*
X226400Y282138D01*
X226416Y282169D01*
X226572Y282388D01*
X226588Y282420D01*
X226744Y282639D01*
X226760Y282670D01*
X226838Y282780D01*
X226854Y282811D01*
X226885Y282842D01*
X226901Y282873D01*
X226979Y282983D01*
X226995Y283014D01*
X227151Y283233D01*
X227167Y283265D01*
X227323Y283484D01*
X227339Y283515D01*
X227495Y283734D01*
X227511Y283765D01*
X227668Y283984D01*
X227683Y284016D01*
X227840Y284235D01*
X227855Y284266D01*
X227934Y284375D01*
X227949Y284407D01*
X227980Y284438D01*
X227996Y284469D01*
X228074Y284579D01*
X228090Y284610D01*
X228246Y284829D01*
X228262Y284860D01*
X228419Y285079D01*
X228434Y285111D01*
X228544Y285267D01*
X228591Y285377D01*
X228606Y285486D01*
X228622Y285549D01*
X228606Y285721D01*
X226322Y291431D01*
X226244Y291572D01*
X226111Y291705D01*
X226080Y291721D01*
X225939Y291783D01*
X225876Y291799D01*
X225610Y291846D01*
X225548Y291862D01*
X225360Y291893D01*
X225297Y291909D01*
X225188Y291924D01*
X225125Y291940D01*
X224937Y291971D01*
X224875Y291987D01*
X224687Y292018D01*
X224625Y292034D01*
X224437Y292065D01*
X224374Y292081D01*
X224265Y292096D01*
X224202Y292112D01*
X224014Y292143D01*
X223952Y292159D01*
X223764Y292190D01*
X223701Y292206D01*
X223592Y292222D01*
X223529Y292237D01*
X223342Y292268D01*
X223279Y292284D01*
X223091Y292315D01*
X223029Y292331D01*
X222919Y292347D01*
X222857Y292362D01*
X222669Y292394D01*
X222606Y292409D01*
X222418Y292440D01*
X222356Y292456D01*
X222246Y292472D01*
X222184Y292487D01*
X221996Y292519D01*
X221933Y292534D01*
X221746Y292566D01*
X221683Y292581D01*
X221495Y292613D01*
X221433Y292628D01*
X221323Y292644D01*
X221261Y292659D01*
X221073Y292691D01*
X221010Y292707D01*
X220823Y292738D01*
X220760Y292753D01*
X220651Y292769D01*
X220588Y292785D01*
X220400Y292816D01*
X220338Y292832D01*
X220150Y292863D01*
X220087Y292879D01*
X219978Y292894D01*
X219915Y292910D01*
X219727Y292941D01*
X219665Y292957D01*
X219477Y292988D01*
X219415Y293004D01*
X219305Y293019D01*
X219242Y293035D01*
X219055Y293066D01*
X218992Y293082D01*
X218804Y293113D01*
X218742Y293129D01*
X218656Y293152D01*
X218531Y293231D01*
X218468Y293293D01*
X218452Y293325D01*
X218390Y293465D01*
X218405Y301241D01*
X218468Y301350D01*
X218570Y301452D01*
X218679Y301499D01*
X218742Y301515D01*
X219008Y301562D01*
X219070Y301577D01*
X219258Y301609D01*
X219321Y301624D01*
X219430Y301640D01*
X219493Y301656D01*
X219681Y301687D01*
X219743Y301703D01*
X219931Y301734D01*
X219993Y301749D01*
X220103Y301765D01*
X220166Y301781D01*
X220353Y301812D01*
X220416Y301828D01*
X220604Y301859D01*
X220666Y301875D01*
X220776Y301890D01*
X220838Y301906D01*
X221026Y301937D01*
X221089Y301953D01*
X221276Y301984D01*
X221339Y302000D01*
X221448Y302015D01*
X221511Y302031D01*
X221699Y302062D01*
X221761Y302078D01*
X221949Y302109D01*
X222012Y302125D01*
X222121Y302141D01*
X222184Y302156D01*
X222372Y302188D01*
X222434Y302203D01*
X222622Y302234D01*
X222684Y302250D01*
X222872Y302281D01*
X222935Y302297D01*
X223044Y302313D01*
X223107Y302328D01*
X223295Y302360D01*
X223357Y302375D01*
X223545Y302407D01*
X223608Y302422D01*
X223717Y302438D01*
X223780Y302453D01*
X223967Y302485D01*
X224030Y302500D01*
X224218Y302532D01*
X224280Y302547D01*
X224390Y302563D01*
X224452Y302579D01*
X224640Y302610D01*
X224703Y302626D01*
X224890Y302657D01*
X224953Y302673D01*
X225063Y302688D01*
X225125Y302704D01*
X225313Y302735D01*
X225375Y302751D01*
X225563Y302782D01*
X225626Y302798D01*
X225735Y302813D01*
X225798Y302829D01*
X225986Y302860D01*
X226048Y302876D01*
X226150Y302899D01*
X226283Y302970D01*
X226314Y303001D01*
X226346Y303017D01*
X226447Y303118D01*
X226463Y303150D01*
X226572Y303384D01*
X228778Y308532D01*
X228810Y308610D01*
X228825Y308720D01*
X228810Y308939D01*
X228778Y309017D01*
X228716Y309126D01*
X228638Y309236D01*
X228622Y309267D01*
X228591Y309298D01*
X228575Y309330D01*
X228497Y309439D01*
X228481Y309471D01*
X228325Y309690D01*
X228309Y309721D01*
X228153Y309940D01*
X228137Y309971D01*
X227980Y310190D01*
X227965Y310222D01*
X227887Y310331D01*
X227871Y310362D01*
X227840Y310394D01*
X227824Y310425D01*
X227746Y310534D01*
X227730Y310566D01*
X227574Y310785D01*
X227558Y310816D01*
X227402Y311035D01*
X227386Y311066D01*
X227229Y311285D01*
X227214Y311317D01*
X227057Y311536D01*
X227042Y311567D01*
X226964Y311677D01*
X226948Y311708D01*
X226917Y311739D01*
X226901Y311770D01*
X226823Y311880D01*
X226807Y311911D01*
X226651Y312130D01*
X226635Y312162D01*
X226479Y312381D01*
X226463Y312412D01*
X226306Y312631D01*
X226291Y312662D01*
X226134Y312881D01*
X226119Y312913D01*
X226040Y313022D01*
X226025Y313053D01*
X225993Y313085D01*
X225978Y313116D01*
X225900Y313225D01*
X225884Y313257D01*
X225728Y313476D01*
X225712Y313507D01*
X225555Y313726D01*
X225540Y313757D01*
X225383Y313976D01*
X225368Y314008D01*
X225211Y314227D01*
X225196Y314258D01*
X225117Y314368D01*
X225102Y314399D01*
X225070Y314430D01*
X225055Y314461D01*
X224977Y314571D01*
X224961Y314602D01*
X224804Y314821D01*
X224789Y314853D01*
X224632Y315072D01*
X224617Y315103D01*
X224460Y315322D01*
X224445Y315353D01*
X224398Y315463D01*
X224382Y315525D01*
X224398Y315713D01*
X224460Y315823D01*
X229913Y321275D01*
X229991Y321306D01*
X230116Y321338D01*
X230273Y321322D01*
X230413Y321244D01*
X230445Y321212D01*
X230476Y321197D01*
X230585Y321119D01*
X230617Y321103D01*
X230836Y320946D01*
X230867Y320931D01*
X231086Y320774D01*
X231117Y320759D01*
X231336Y320602D01*
X231368Y320587D01*
X231477Y320508D01*
X231509Y320493D01*
X231540Y320461D01*
X231571Y320446D01*
X231681Y320368D01*
X231712Y320352D01*
X231931Y320195D01*
X231962Y320180D01*
X232181Y320023D01*
X232213Y320008D01*
X232432Y319851D01*
X232463Y319836D01*
X232682Y319679D01*
X232713Y319663D01*
X232932Y319507D01*
X232964Y319491D01*
X233073Y319413D01*
X233104Y319398D01*
X233136Y319366D01*
X233167Y319350D01*
X233276Y319272D01*
X233308Y319257D01*
X233527Y319100D01*
X233558Y319085D01*
X233777Y318928D01*
X233808Y318913D01*
X234027Y318756D01*
X234059Y318740D01*
X234278Y318584D01*
X234309Y318568D01*
X234528Y318412D01*
X234559Y318396D01*
X234778Y318240D01*
X234810Y318224D01*
X234919Y318146D01*
X234950Y318130D01*
X234982Y318099D01*
X235013Y318083D01*
X235123Y318005D01*
X235154Y317989D01*
X235373Y317833D01*
X235404Y317817D01*
X235623Y317661D01*
X235655Y317645D01*
X235874Y317489D01*
X235905Y317473D01*
X236124Y317317D01*
X236155Y317301D01*
X236374Y317145D01*
X236405Y317129D01*
X236515Y317051D01*
X236546Y317035D01*
X236578Y317004D01*
X236609Y316988D01*
X236718Y316910D01*
X236750Y316894D01*
X236891Y316832D01*
X237047Y316816D01*
X237235Y316832D01*
X237344Y316879D01*
X237579Y316972D01*
X237688Y317019D01*
X237845Y317082D01*
X237954Y317129D01*
X238189Y317223D01*
X238299Y317270D01*
X238533Y317364D01*
X238643Y317411D01*
X238877Y317504D01*
X238987Y317551D01*
X239222Y317645D01*
X239331Y317692D01*
X239566Y317786D01*
X239675Y317833D01*
X239910Y317927D01*
X240019Y317974D01*
X240254Y318068D01*
X240364Y318115D01*
X240520Y318177D01*
X240630Y318224D01*
X240864Y318318D01*
X240974Y318365D01*
X241209Y318459D01*
X241318Y318506D01*
X241553Y318600D01*
X241662Y318647D01*
X241897Y318740D01*
X242006Y318787D01*
X242241Y318881D01*
X242351Y318928D01*
X242429Y318959D01*
X242539Y319022D01*
X242624Y319092D01*
X242671Y319139D01*
X242687Y319171D01*
X242718Y319202D01*
X242765Y319311D01*
X242797Y319437D01*
X242812Y319546D01*
X242828Y319609D01*
X242859Y319796D01*
X242875Y319859D01*
X242890Y319968D01*
X242906Y320031D01*
X242937Y320219D01*
X242953Y320281D01*
X242984Y320469D01*
X243000Y320532D01*
X243016Y320641D01*
X243031Y320704D01*
X243063Y320892D01*
X243078Y320954D01*
X243109Y321142D01*
X243125Y321204D01*
X243141Y321314D01*
X243156Y321377D01*
X243188Y321564D01*
X243203Y321627D01*
X243235Y321815D01*
X243250Y321877D01*
X243266Y321987D01*
X243282Y322049D01*
X243313Y322237D01*
X243328Y322300D01*
X243360Y322487D01*
X243375Y322550D01*
X243391Y322659D01*
X243407Y322722D01*
X243438Y322910D01*
X243454Y322972D01*
X243485Y323160D01*
X243501Y323223D01*
X243516Y323332D01*
X243532Y323395D01*
X243563Y323583D01*
X243579Y323645D01*
X243610Y323833D01*
X243626Y323895D01*
X243641Y324005D01*
X243657Y324068D01*
X243688Y324255D01*
X243704Y324318D01*
X243735Y324506D01*
X243751Y324568D01*
X243767Y324678D01*
X243782Y324740D01*
X243813Y324928D01*
X243829Y324991D01*
X243860Y325178D01*
X243876Y325241D01*
X243892Y325350D01*
X243907Y325413D01*
X243939Y325601D01*
X243954Y325663D01*
X243986Y325851D01*
X244001Y325914D01*
X244017Y326023D01*
X244033Y326086D01*
X244064Y326274D01*
X244079Y326336D01*
X244111Y326524D01*
X244126Y326586D01*
X244142Y326696D01*
X244158Y326759D01*
X244189Y326946D01*
X244205Y327009D01*
X244244Y327111D01*
X244283Y327165D01*
X244306Y327205D01*
X244338Y327220D01*
X244385Y327267D01*
X244494Y327314D01*
X244557Y327330D01*
X252317Y327314D01*
X252465Y327212D01*
X252497Y327181D01*
X252512Y327150D01*
X252575Y327009D01*
X252591Y326946D01*
X252606Y326837D01*
X252622Y326774D01*
X252653Y326586D01*
X252669Y326524D01*
X252684Y326414D01*
X252700Y326352D01*
X252731Y326164D01*
X252747Y326101D01*
X252778Y325914D01*
X252794Y325851D01*
X252810Y325742D01*
X252825Y325679D01*
X252857Y325491D01*
X252872Y325429D01*
X252903Y325241D01*
X252919Y325178D01*
X252935Y325069D01*
X252950Y325006D01*
X252982Y324819D01*
X252997Y324756D01*
X253029Y324568D01*
X253044Y324506D01*
X253060Y324396D01*
X253076Y324334D01*
X253107Y324146D01*
X253123Y324083D01*
X253154Y323895D01*
X253169Y323833D01*
X253185Y323723D01*
X253201Y323661D01*
X253232Y323473D01*
X253248Y323410D01*
X253279Y323223D01*
X253295Y323160D01*
X253310Y323051D01*
X253326Y322988D01*
X253357Y322800D01*
X253373Y322738D01*
X253404Y322550D01*
X253420Y322487D01*
X253435Y322378D01*
X253451Y322315D01*
X253482Y322128D01*
X253498Y322065D01*
X253529Y321877D01*
X253545Y321815D01*
X253561Y321705D01*
X253576Y321643D01*
X253608Y321455D01*
X253623Y321392D01*
X253654Y321204D01*
X253670Y321142D01*
X253686Y321032D01*
X253701Y320970D01*
X253733Y320782D01*
X253748Y320719D01*
X253780Y320532D01*
X253795Y320469D01*
X253811Y320360D01*
X253827Y320297D01*
X253858Y320109D01*
X253874Y320047D01*
X253905Y319859D01*
X253920Y319796D01*
X253936Y319687D01*
X253952Y319624D01*
X253983Y319437D01*
X253999Y319374D01*
X254038Y319272D01*
X254116Y319147D01*
X254194Y319053D01*
X254226Y319038D01*
X254257Y319006D01*
X254288Y318991D01*
X254429Y318928D01*
X254585Y318866D01*
X254695Y318819D01*
X254930Y318725D01*
X255039Y318678D01*
X255274Y318584D01*
X255383Y318537D01*
X255618Y318443D01*
X255728Y318396D01*
X255962Y318302D01*
X256072Y318255D01*
X256306Y318162D01*
X256416Y318115D01*
X256651Y318021D01*
X256760Y317974D01*
X256995Y317880D01*
X257104Y317833D01*
X257261Y317770D01*
X257370Y317723D01*
X257605Y317630D01*
X257714Y317583D01*
X257949Y317489D01*
X258059Y317442D01*
X258293Y317348D01*
X258403Y317301D01*
X258638Y317207D01*
X258747Y317160D01*
X258982Y317066D01*
X259091Y317019D01*
X259326Y316926D01*
X259435Y316879D01*
X259514Y316847D01*
X259639Y316816D01*
X259905Y316832D01*
X260108Y316941D01*
X260140Y316972D01*
X260171Y316988D01*
X260280Y317066D01*
X260312Y317082D01*
X260531Y317238D01*
X260562Y317254D01*
X260781Y317411D01*
X260812Y317426D01*
X261031Y317583D01*
X261063Y317598D01*
X261282Y317755D01*
X261313Y317770D01*
X261532Y317927D01*
X261563Y317943D01*
X261673Y318021D01*
X261704Y318036D01*
X261735Y318068D01*
X261767Y318083D01*
X261876Y318162D01*
X261907Y318177D01*
X262127Y318334D01*
X262158Y318349D01*
X262377Y318506D01*
X262408Y318521D01*
X262627Y318678D01*
X262658Y318693D01*
X262877Y318850D01*
X262909Y318866D01*
X263128Y319022D01*
X263159Y319038D01*
X263269Y319116D01*
X263300Y319132D01*
X263331Y319163D01*
X263362Y319178D01*
X263472Y319257D01*
X263503Y319272D01*
X263722Y319429D01*
X263754Y319444D01*
X263973Y319601D01*
X264004Y319617D01*
X264223Y319773D01*
X264254Y319789D01*
X264473Y319945D01*
X264505Y319961D01*
X264724Y320117D01*
X264755Y320133D01*
X264864Y320211D01*
X264896Y320227D01*
X264927Y320258D01*
X264958Y320274D01*
X265068Y320352D01*
X265099Y320368D01*
X265318Y320524D01*
X265349Y320540D01*
X265568Y320696D01*
X265600Y320712D01*
X265819Y320868D01*
X265850Y320884D01*
X266069Y321040D01*
X266100Y321056D01*
X266319Y321212D01*
X266351Y321228D01*
X266445Y321291D01*
X266523Y321322D01*
X266632Y321338D01*
X266773Y321322D01*
X266883Y321259D01*
X266914Y321228D01*
X266945Y321212D01*
X272288Y315869D01*
X272304Y315838D01*
X272335Y315807D01*
X272382Y315697D01*
X272398Y315635D01*
X272382Y315431D01*
X272319Y315322D01*
X272288Y315291D01*
X272272Y315259D01*
X272194Y315150D01*
X272179Y315119D01*
X272022Y314899D01*
X272006Y314868D01*
X271850Y314649D01*
X271834Y314618D01*
X271678Y314399D01*
X271662Y314368D01*
X271584Y314258D01*
X271568Y314227D01*
X271537Y314195D01*
X271521Y314164D01*
X271443Y314055D01*
X271428Y314023D01*
X271271Y313804D01*
X271255Y313773D01*
X271099Y313554D01*
X271083Y313523D01*
X270927Y313304D01*
X270911Y313272D01*
X270833Y313163D01*
X270818Y313132D01*
X270786Y313100D01*
X270770Y313069D01*
X270692Y312959D01*
X270677Y312928D01*
X270520Y312709D01*
X270504Y312678D01*
X270348Y312459D01*
X270333Y312428D01*
X270176Y312208D01*
X270160Y312177D01*
X270082Y312068D01*
X270067Y312036D01*
X270035Y312005D01*
X270020Y311974D01*
X269941Y311864D01*
X269926Y311833D01*
X269769Y311614D01*
X269754Y311583D01*
X269597Y311364D01*
X269582Y311332D01*
X269425Y311113D01*
X269409Y311082D01*
X269331Y310972D01*
X269315Y310941D01*
X269284Y310910D01*
X269269Y310879D01*
X269190Y310769D01*
X269175Y310738D01*
X269018Y310519D01*
X269003Y310487D01*
X268846Y310268D01*
X268831Y310237D01*
X268674Y310018D01*
X268658Y309987D01*
X268580Y309877D01*
X268564Y309846D01*
X268533Y309815D01*
X268518Y309783D01*
X268439Y309674D01*
X268424Y309643D01*
X268267Y309424D01*
X268252Y309392D01*
X268095Y309173D01*
X268079Y309142D01*
X268017Y309048D01*
X267986Y308970D01*
X267970Y308907D01*
X267954Y308798D01*
X267970Y308610D01*
X270223Y303353D01*
X270285Y303212D01*
X270301Y303181D01*
X270411Y303040D01*
X270450Y303001D01*
X270481Y302985D01*
X270512Y302954D01*
X270653Y302892D01*
X270841Y302860D01*
X270903Y302845D01*
X271091Y302813D01*
X271154Y302798D01*
X271263Y302782D01*
X271326Y302766D01*
X271514Y302735D01*
X271576Y302719D01*
X271764Y302688D01*
X271827Y302673D01*
X271936Y302657D01*
X271999Y302641D01*
X272186Y302610D01*
X272249Y302594D01*
X272437Y302563D01*
X272499Y302547D01*
X272609Y302532D01*
X272671Y302516D01*
X272859Y302485D01*
X272922Y302469D01*
X273109Y302438D01*
X273172Y302422D01*
X273282Y302407D01*
X273344Y302391D01*
X273532Y302360D01*
X273594Y302344D01*
X273782Y302313D01*
X273845Y302297D01*
X273954Y302281D01*
X274017Y302266D01*
X274205Y302234D01*
X274267Y302219D01*
X274455Y302188D01*
X274518Y302172D01*
X274627Y302156D01*
X274690Y302141D01*
X274877Y302109D01*
X274940Y302094D01*
X275128Y302062D01*
X275190Y302047D01*
X275300Y302031D01*
X275362Y302015D01*
X275550Y301984D01*
X275613Y301968D01*
X275800Y301937D01*
X275863Y301922D01*
X275973Y301906D01*
X276035Y301890D01*
X276223Y301859D01*
X276285Y301843D01*
X276473Y301812D01*
X276536Y301796D01*
X276645Y301781D01*
X276708Y301765D01*
X276896Y301734D01*
X276958Y301718D01*
X277068Y301703D01*
X277130Y301687D01*
X277318Y301656D01*
X277381Y301640D01*
X277568Y301609D01*
X277631Y301593D01*
X277740Y301577D01*
X277803Y301562D01*
X277991Y301530D01*
X278116Y301499D01*
X278225Y301437D01*
X278327Y301335D01*
X278374Y301225D01*
X278390Y301163D01*
X278374Y293403D01*
X278312Y293293D01*
X278210Y293192D01*
X278100Y293144D01*
X278038Y293129D01*
X277850Y293098D01*
X277787Y293082D01*
X277600Y293051D01*
X277537Y293035D01*
X277349Y293004D01*
X277287Y292988D01*
X277177Y292972D01*
X277115Y292957D01*
X276927Y292925D01*
X276864Y292910D01*
X276677Y292879D01*
X276614Y292863D01*
X276505Y292847D01*
X276442Y292832D01*
X276254Y292800D01*
X276192Y292785D01*
X276004Y292753D01*
X275941Y292738D01*
X275832Y292722D01*
X275769Y292707D01*
X275581Y292675D01*
X275519Y292659D01*
X275331Y292628D01*
X275269Y292613D01*
X275159Y292597D01*
X275096Y292581D01*
X274909Y292550D01*
X274846Y292534D01*
X274658Y292503D01*
X274596Y292487D01*
X274486Y292472D01*
X274424Y292456D01*
X274236Y292425D01*
X274173Y292409D01*
X273986Y292378D01*
X273923Y292362D01*
X273813Y292347D01*
X273751Y292331D01*
X273563Y292300D01*
X273501Y292284D01*
X273313Y292253D01*
X273250Y292237D01*
X273141Y292222D01*
X273078Y292206D01*
X272890Y292174D01*
X272828Y292159D01*
X272640Y292128D01*
X272578Y292112D01*
X272468Y292096D01*
X272405Y292081D01*
X272218Y292049D01*
X272155Y292034D01*
X272046Y292018D01*
X271983Y292002D01*
X271795Y291971D01*
X271733Y291956D01*
X271545Y291924D01*
X271482Y291909D01*
X271373Y291893D01*
X271310Y291877D01*
X271122Y291846D01*
X271060Y291830D01*
X270802Y291776D01*
X270645Y291682D01*
X270520Y291556D01*
X270504Y291525D01*
X270426Y291353D01*
X268205Y285799D01*
X268173Y285690D01*
X268158Y285533D01*
X268173Y285486D01*
X268189Y285377D01*
X268283Y285205D01*
X268361Y285095D01*
X268377Y285064D01*
X268533Y284845D01*
X268549Y284813D01*
X268705Y284594D01*
X268721Y284563D01*
X268877Y284344D01*
X268893Y284313D01*
X269049Y284094D01*
X269065Y284062D01*
X269143Y283953D01*
X269159Y283922D01*
X269190Y283890D01*
X269206Y283859D01*
X269284Y283750D01*
X269300Y283718D01*
X269456Y283499D01*
X269472Y283468D01*
X269628Y283249D01*
X269644Y283218D01*
X269800Y282999D01*
X269816Y282967D01*
X269973Y282748D01*
X269988Y282717D01*
X270067Y282607D01*
X270082Y282576D01*
X270113Y282545D01*
X270129Y282514D01*
X270207Y282404D01*
X270223Y282373D01*
X270379Y282154D01*
X270395Y282122D01*
X270551Y281903D01*
X270567Y281872D01*
X270724Y281653D01*
X270739Y281622D01*
X270896Y281403D01*
X270911Y281371D01*
X270990Y281262D01*
X271005Y281231D01*
X271036Y281199D01*
X271052Y281168D01*
X271130Y281059D01*
X271146Y281027D01*
X271303Y280808D01*
X271318Y280777D01*
X271475Y280558D01*
X271490Y280527D01*
X271647Y280308D01*
X271662Y280276D01*
X271819Y280057D01*
X271834Y280026D01*
X271913Y279916D01*
X271928Y279885D01*
X271960Y279854D01*
X271975Y279823D01*
X272053Y279713D01*
X272069Y279682D01*
X272225Y279463D01*
X272241Y279431D01*
X272351Y279275D01*
X272382Y279197D01*
X272398Y279134D01*
X272382Y278931D01*
X272319Y278821D01*
X271052Y277554D01*
X271044Y277546D01*
D02*
G37*
D10*
X110750Y240542D02*
G03*
X110750Y240542I-1250J0D01*
G01*
D11*
X304125Y179180D02*
X323923D01*
X304125Y161180D02*
X323923D01*
X218496Y165940D02*
X223464D01*
X218496Y143940D02*
X223464D01*
X259190Y155535D02*
Y175333D01*
X241190Y155535D02*
Y175333D01*
X300055Y201250D02*
X319854D01*
X300055Y183250D02*
X319854D01*
X115226Y195920D02*
X121636D01*
X115342Y174920D02*
X120994D01*
X91000Y250542D02*
Y290542D01*
Y250542D02*
X99000D01*
Y266542D01*
X111500D01*
X149500D02*
X162000D01*
Y250542D02*
Y266542D01*
Y250542D02*
X170000D01*
Y290542D01*
X108500Y326542D02*
X152500D01*
X287000Y167100D02*
Y176049D01*
X265000D02*
X269689D01*
X282311D02*
X287000D01*
X265000Y167100D02*
Y176049D01*
M02*
