G04*
G04 #@! TF.GenerationSoftware,Altium Limited,Altium Designer,24.5.2 (23)*
G04*
G04 Layer_Color=65535*
%FSLAX44Y44*%
%MOMM*%
G71*
G04*
G04 #@! TF.SameCoordinates,393E536B-8F59-49B7-8278-4084FBF8F83B*
G04*
G04*
G04 #@! TF.FilePolarity,Positive*
G04*
G01*
G75*
%ADD10C,0.2500*%
%ADD11C,0.2000*%
%ADD12C,0.1270*%
%ADD13C,0.2540*%
G36*
X27000Y152000D02*
X26016D01*
Y160000D01*
X27000D01*
Y152000D01*
D02*
G37*
G36*
X57000Y138000D02*
X57984D01*
Y130000D01*
X57000D01*
Y138000D01*
D02*
G37*
D10*
X306000Y265000D02*
G03*
X306000Y265000I-1000J0D01*
G01*
X129250Y180120D02*
G03*
X129250Y180120I-1250J0D01*
G01*
X198000Y288000D02*
G03*
X198000Y288000I-1250J0D01*
G01*
X105000D02*
G03*
X105000Y288000I-1250J0D01*
G01*
D11*
X178640Y212916D02*
Y222650D01*
X156640D02*
X161774D01*
X156640Y212916D02*
Y222650D01*
X173506D02*
X178640D01*
X302366Y215000D02*
X305000D01*
X255000D02*
Y217634D01*
X305000Y215000D02*
Y217634D01*
X255000Y265000D02*
X257634D01*
X255000Y262366D02*
Y265000D01*
Y215000D02*
X257634D01*
X153780Y198047D02*
Y217845D01*
X135780Y198047D02*
Y217845D01*
X13250Y271200D02*
X25257D01*
X13250Y173800D02*
X25257D01*
X272500Y125122D02*
X285999D01*
X272500Y139117D02*
X276003D01*
X272500Y125122D02*
Y139117D01*
X113500Y125122D02*
Y139117D01*
X109997D02*
X113500D01*
X100001Y125122D02*
X113500D01*
X276000Y139117D02*
Y142099D01*
X110000Y139117D02*
Y142099D01*
X285999Y120120D02*
Y125121D01*
X100001Y120120D02*
Y125121D01*
X128000Y313516D02*
Y324500D01*
Y285500D02*
Y296484D01*
X186016Y285500D02*
X190000D01*
X128000D02*
X169984D01*
X190000Y313516D02*
Y324500D01*
Y285500D02*
Y296484D01*
X148016Y324500D02*
X190000D01*
X128000D02*
X131984D01*
X139790Y255736D02*
Y261104D01*
X143806Y243420D02*
X154495D01*
X143806Y273420D02*
X152774D01*
X293750Y167103D02*
Y176734D01*
X306016Y181500D02*
X311984D01*
X324250Y168766D02*
Y176734D01*
X35000Y324500D02*
X38984D01*
X55016D02*
X97000D01*
Y285500D02*
Y296484D01*
Y313516D02*
Y324500D01*
X35000Y285500D02*
X76984D01*
X93016D02*
X97000D01*
X35000D02*
Y296484D01*
Y313516D02*
Y324500D01*
X103846Y262255D02*
X112054D01*
X103846Y245745D02*
X112054D01*
X329500Y302000D02*
X350500D01*
X329500Y318000D02*
X350500D01*
D12*
X340500Y224901D02*
Y228710D01*
X365500Y224901D02*
Y228599D01*
X343651Y120000D02*
X356349D01*
X343651Y150000D02*
X356520D01*
D13*
X228576Y295800D02*
X248944D01*
X228576Y313800D02*
X248944D01*
M02*
