G04*
G04 #@! TF.GenerationSoftware,Altium Limited,Altium Designer,22.10.1 (41)*
G04*
G04 Layer_Color=8388736*
%FSLAX44Y44*%
%MOMM*%
G71*
G04*
G04 #@! TF.SameCoordinates,27488822-8B8A-45CA-B0CB-A5C5B456CCF3*
G04*
G04*
G04 #@! TF.FilePolarity,Negative*
G04*
G01*
G75*
%ADD52R,0.8000X1.6000*%
%ADD53R,0.5700X0.7000*%
G04:AMPARAMS|DCode=54|XSize=0.7mm|YSize=0.57mm|CornerRadius=0.1675mm|HoleSize=0mm|Usage=FLASHONLY|Rotation=90.000|XOffset=0mm|YOffset=0mm|HoleType=Round|Shape=RoundedRectangle|*
%AMROUNDEDRECTD54*
21,1,0.7000,0.2350,0,0,90.0*
21,1,0.3650,0.5700,0,0,90.0*
1,1,0.3350,0.1175,0.1825*
1,1,0.3350,0.1175,-0.1825*
1,1,0.3350,-0.1175,-0.1825*
1,1,0.3350,-0.1175,0.1825*
%
%ADD54ROUNDEDRECTD54*%
%ADD55R,3.8000X3.8000*%
%ADD56R,0.9100X0.3700*%
%ADD57R,0.3700X0.9100*%
G04:AMPARAMS|DCode=58|XSize=0.91mm|YSize=0.37mm|CornerRadius=0.0838mm|HoleSize=0mm|Usage=FLASHONLY|Rotation=270.000|XOffset=0mm|YOffset=0mm|HoleType=Round|Shape=RoundedRectangle|*
%AMROUNDEDRECTD58*
21,1,0.9100,0.2025,0,0,270.0*
21,1,0.7425,0.3700,0,0,270.0*
1,1,0.1675,-0.1013,-0.3713*
1,1,0.1675,-0.1013,0.3713*
1,1,0.1675,0.1013,0.3713*
1,1,0.1675,0.1013,-0.3713*
%
%ADD58ROUNDEDRECTD58*%
%ADD59R,0.4000X0.3500*%
%ADD60R,0.6000X0.7000*%
%ADD61R,0.3500X0.4000*%
%ADD62R,0.5500X0.7000*%
%ADD63R,0.7000X0.5500*%
%ADD64R,0.4000X0.3500*%
G04:AMPARAMS|DCode=65|XSize=0.4mm|YSize=0.35mm|CornerRadius=0.1125mm|HoleSize=0mm|Usage=FLASHONLY|Rotation=0.000|XOffset=0mm|YOffset=0mm|HoleType=Round|Shape=RoundedRectangle|*
%AMROUNDEDRECTD65*
21,1,0.4000,0.1250,0,0,0.0*
21,1,0.1750,0.3500,0,0,0.0*
1,1,0.2250,0.0875,-0.0625*
1,1,0.2250,-0.0875,-0.0625*
1,1,0.2250,-0.0875,0.0625*
1,1,0.2250,0.0875,0.0625*
%
%ADD65ROUNDEDRECTD65*%
%ADD66R,0.3500X0.4000*%
G04:AMPARAMS|DCode=67|XSize=0.4mm|YSize=0.35mm|CornerRadius=0.1125mm|HoleSize=0mm|Usage=FLASHONLY|Rotation=270.000|XOffset=0mm|YOffset=0mm|HoleType=Round|Shape=RoundedRectangle|*
%AMROUNDEDRECTD67*
21,1,0.4000,0.1250,0,0,270.0*
21,1,0.1750,0.3500,0,0,270.0*
1,1,0.2250,-0.0625,-0.0875*
1,1,0.2250,-0.0625,0.0875*
1,1,0.2250,0.0625,0.0875*
1,1,0.2250,0.0625,-0.0875*
%
%ADD67ROUNDEDRECTD67*%
G04:AMPARAMS|DCode=68|XSize=1.0144mm|YSize=1.3192mm|CornerRadius=0.2786mm|HoleSize=0mm|Usage=FLASHONLY|Rotation=90.000|XOffset=0mm|YOffset=0mm|HoleType=Round|Shape=RoundedRectangle|*
%AMROUNDEDRECTD68*
21,1,1.0144,0.7620,0,0,90.0*
21,1,0.4572,1.3192,0,0,90.0*
1,1,0.5572,0.3810,0.2286*
1,1,0.5572,0.3810,-0.2286*
1,1,0.5572,-0.3810,-0.2286*
1,1,0.5572,-0.3810,0.2286*
%
%ADD68ROUNDEDRECTD68*%
%ADD69R,1.3192X1.0144*%
%ADD70R,1.0000X0.4000*%
G04:AMPARAMS|DCode=71|XSize=0.4mm|YSize=1mm|CornerRadius=0.125mm|HoleSize=0mm|Usage=FLASHONLY|Rotation=270.000|XOffset=0mm|YOffset=0mm|HoleType=Round|Shape=RoundedRectangle|*
%AMROUNDEDRECTD71*
21,1,0.4000,0.7500,0,0,270.0*
21,1,0.1500,1.0000,0,0,270.0*
1,1,0.2500,-0.3750,-0.0750*
1,1,0.2500,-0.3750,0.0750*
1,1,0.2500,0.3750,0.0750*
1,1,0.2500,0.3750,-0.0750*
%
%ADD71ROUNDEDRECTD71*%
%ADD72R,0.7000X0.6000*%
%ADD73R,0.9000X0.9000*%
G04:AMPARAMS|DCode=74|XSize=0.9mm|YSize=0.9mm|CornerRadius=0.25mm|HoleSize=0mm|Usage=FLASHONLY|Rotation=180.000|XOffset=0mm|YOffset=0mm|HoleType=Round|Shape=RoundedRectangle|*
%AMROUNDEDRECTD74*
21,1,0.9000,0.4000,0,0,180.0*
21,1,0.4000,0.9000,0,0,180.0*
1,1,0.5000,-0.2000,0.2000*
1,1,0.5000,0.2000,0.2000*
1,1,0.5000,0.2000,-0.2000*
1,1,0.5000,-0.2000,-0.2000*
%
%ADD74ROUNDEDRECTD74*%
%ADD75C,2.0000*%
G04:AMPARAMS|DCode=76|XSize=0.4mm|YSize=0.9mm|CornerRadius=0.125mm|HoleSize=0mm|Usage=FLASHONLY|Rotation=180.000|XOffset=0mm|YOffset=0mm|HoleType=Round|Shape=RoundedRectangle|*
%AMROUNDEDRECTD76*
21,1,0.4000,0.6500,0,0,180.0*
21,1,0.1500,0.9000,0,0,180.0*
1,1,0.2500,-0.0750,0.3250*
1,1,0.2500,0.0750,0.3250*
1,1,0.2500,0.0750,-0.3250*
1,1,0.2500,-0.0750,-0.3250*
%
%ADD76ROUNDEDRECTD76*%
%ADD77R,0.4000X0.9000*%
%ADD78R,1.1000X1.1000*%
%ADD79R,1.5500X1.1000*%
%ADD80R,1.0000X0.5000*%
%ADD81R,1.1500X1.4000*%
G04:AMPARAMS|DCode=82|XSize=1.15mm|YSize=1.4mm|CornerRadius=0.3125mm|HoleSize=0mm|Usage=FLASHONLY|Rotation=0.000|XOffset=0mm|YOffset=0mm|HoleType=Round|Shape=RoundedRectangle|*
%AMROUNDEDRECTD82*
21,1,1.1500,0.7750,0,0,0.0*
21,1,0.5250,1.4000,0,0,0.0*
1,1,0.6250,0.2625,-0.3875*
1,1,0.6250,-0.2625,-0.3875*
1,1,0.6250,-0.2625,0.3875*
1,1,0.6250,0.2625,0.3875*
%
%ADD82ROUNDEDRECTD82*%
%ADD83R,1.3700X2.3098*%
%ADD84R,0.6000X0.6000*%
G04:AMPARAMS|DCode=85|XSize=0.6mm|YSize=0.6mm|CornerRadius=0.1125mm|HoleSize=0mm|Usage=FLASHONLY|Rotation=0.000|XOffset=0mm|YOffset=0mm|HoleType=Round|Shape=RoundedRectangle|*
%AMROUNDEDRECTD85*
21,1,0.6000,0.3750,0,0,0.0*
21,1,0.3750,0.6000,0,0,0.0*
1,1,0.2250,0.1875,-0.1875*
1,1,0.2250,-0.1875,-0.1875*
1,1,0.2250,-0.1875,0.1875*
1,1,0.2250,0.1875,0.1875*
%
%ADD85ROUNDEDRECTD85*%
G04:AMPARAMS|DCode=86|XSize=1.1mm|YSize=0.76mm|CornerRadius=0.215mm|HoleSize=0mm|Usage=FLASHONLY|Rotation=180.000|XOffset=0mm|YOffset=0mm|HoleType=Round|Shape=RoundedRectangle|*
%AMROUNDEDRECTD86*
21,1,1.1000,0.3300,0,0,180.0*
21,1,0.6700,0.7600,0,0,180.0*
1,1,0.4300,-0.3350,0.1650*
1,1,0.4300,0.3350,0.1650*
1,1,0.4300,0.3350,-0.1650*
1,1,0.4300,-0.3350,-0.1650*
%
%ADD86ROUNDEDRECTD86*%
%ADD87R,1.1000X0.7600*%
G04:AMPARAMS|DCode=88|XSize=1.2mm|YSize=0.7mm|CornerRadius=0.101mm|HoleSize=0mm|Usage=FLASHONLY|Rotation=90.000|XOffset=0mm|YOffset=0mm|HoleType=Round|Shape=RoundedRectangle|*
%AMROUNDEDRECTD88*
21,1,1.2000,0.4980,0,0,90.0*
21,1,0.9980,0.7000,0,0,90.0*
1,1,0.2020,0.2490,0.4990*
1,1,0.2020,0.2490,-0.4990*
1,1,0.2020,-0.2490,-0.4990*
1,1,0.2020,-0.2490,0.4990*
%
%ADD88ROUNDEDRECTD88*%
%ADD89R,0.7000X1.2000*%
%ADD90R,1.2430X2.1320*%
G04:AMPARAMS|DCode=91|XSize=1.1mm|YSize=2.4mm|CornerRadius=0.55mm|HoleSize=0mm|Usage=FLASHONLY|Rotation=270.000|XOffset=0mm|YOffset=0mm|HoleType=Round|Shape=RoundedRectangle|*
%AMROUNDEDRECTD91*
21,1,1.1000,1.3000,0,0,270.0*
21,1,0.0000,2.4000,0,0,270.0*
1,1,1.1000,-0.6500,0.0000*
1,1,1.1000,-0.6500,0.0000*
1,1,1.1000,0.6500,0.0000*
1,1,1.1000,0.6500,0.0000*
%
%ADD91ROUNDEDRECTD91*%
G04:AMPARAMS|DCode=92|XSize=1mm|YSize=2.55mm|CornerRadius=0.5mm|HoleSize=0mm|Usage=FLASHONLY|Rotation=270.000|XOffset=0mm|YOffset=0mm|HoleType=Round|Shape=RoundedRectangle|*
%AMROUNDEDRECTD92*
21,1,1.0000,1.5500,0,0,270.0*
21,1,0.0000,2.5500,0,0,270.0*
1,1,1.0000,-0.7750,0.0000*
1,1,1.0000,-0.7750,0.0000*
1,1,1.0000,0.7750,0.0000*
1,1,1.0000,0.7750,0.0000*
%
%ADD92ROUNDEDRECTD92*%
%ADD93C,5.3000*%
G36*
X117049Y294126D02*
X117146D01*
X117354Y294098D01*
X117589Y294056D01*
X117839Y294001D01*
X118103Y293932D01*
X118352Y293821D01*
X118366D01*
X118380Y293807D01*
X118463Y293765D01*
X118574Y293696D01*
X118727Y293599D01*
X118879Y293474D01*
X119046Y293321D01*
X119212Y293155D01*
X119351Y292947D01*
X119365Y292919D01*
X119406Y292850D01*
X119462Y292725D01*
X119531Y292573D01*
X119600Y292378D01*
X119656Y292157D01*
X119697Y291893D01*
X119711Y291616D01*
Y291602D01*
Y291574D01*
Y291532D01*
Y291477D01*
X119697Y291324D01*
X119670Y291130D01*
X119614Y290908D01*
X119545Y290673D01*
X119448Y290423D01*
X119323Y290173D01*
X119309Y290146D01*
X119254Y290076D01*
X119170Y289951D01*
X119046Y289827D01*
X118893Y289674D01*
X118713Y289522D01*
X118505Y289383D01*
X118269Y289258D01*
X119836Y285860D01*
X117978D01*
X116646Y288981D01*
X115856D01*
Y285860D01*
X114164D01*
Y294140D01*
X116979D01*
X117049Y294126D01*
D02*
G37*
G36*
X24160D02*
X24354Y294112D01*
X24576Y294070D01*
X24825Y294029D01*
X25075Y293959D01*
X25311Y293862D01*
X25324D01*
X25338Y293848D01*
X25408Y293821D01*
X25533Y293751D01*
X25671Y293668D01*
X25824Y293557D01*
X25976Y293432D01*
X26129Y293280D01*
X26267Y293113D01*
X26281Y293086D01*
X26323Y293030D01*
X26378Y292933D01*
X26448Y292794D01*
X26503Y292642D01*
X26559Y292448D01*
X26600Y292240D01*
X26614Y292004D01*
Y291990D01*
Y291976D01*
Y291893D01*
X26600Y291754D01*
X26573Y291588D01*
X26517Y291408D01*
X26448Y291213D01*
X26351Y291005D01*
X26226Y290825D01*
X26212Y290811D01*
X26156Y290756D01*
X26073Y290673D01*
X25962Y290576D01*
X25824Y290478D01*
X25657Y290395D01*
X25463Y290312D01*
X25241Y290270D01*
Y290243D01*
X25269D01*
X25324Y290229D01*
X25408Y290215D01*
X25519Y290187D01*
X25643Y290146D01*
X25782Y290090D01*
X25921Y290021D01*
X26060Y289924D01*
X26073Y289910D01*
X26115Y289868D01*
X26184Y289813D01*
X26267Y289730D01*
X26351Y289632D01*
X26448Y289508D01*
X26531Y289369D01*
X26614Y289216D01*
X26628Y289203D01*
X26642Y289147D01*
X26670Y289050D01*
X26711Y288939D01*
X26753Y288787D01*
X26781Y288620D01*
X26795Y288440D01*
X26808Y288246D01*
Y288232D01*
Y288218D01*
Y288176D01*
Y288121D01*
X26795Y287996D01*
X26767Y287830D01*
X26725Y287635D01*
X26656Y287427D01*
X26573Y287206D01*
X26448Y286998D01*
X26434Y286970D01*
X26378Y286914D01*
X26309Y286817D01*
X26198Y286692D01*
X26046Y286554D01*
X25879Y286415D01*
X25685Y286276D01*
X25449Y286152D01*
X25435D01*
X25422Y286138D01*
X25338Y286110D01*
X25200Y286054D01*
X25019Y286013D01*
X24811Y285957D01*
X24548Y285902D01*
X24270Y285874D01*
X23965Y285860D01*
X21192D01*
Y294140D01*
X24007D01*
X24160Y294126D01*
D02*
G37*
G36*
X52452Y149487D02*
X52646Y149460D01*
X52867Y149418D01*
X53117Y149363D01*
X53367Y149293D01*
X53602Y149182D01*
X53616D01*
X53630Y149169D01*
X53700Y149127D01*
X53824Y149058D01*
X53963Y148961D01*
X54116Y148836D01*
X54282Y148697D01*
X54435Y148517D01*
X54573Y148322D01*
X54587Y148295D01*
X54629Y148225D01*
X54684Y148101D01*
X54754Y147948D01*
X54809Y147754D01*
X54865Y147532D01*
X54906Y147282D01*
X54920Y147005D01*
X53214D01*
Y147033D01*
Y147088D01*
X53200Y147171D01*
X53186Y147282D01*
X53145Y147407D01*
X53103Y147532D01*
X53034Y147657D01*
X52937Y147754D01*
X52923Y147768D01*
X52881Y147795D01*
X52826Y147837D01*
X52729Y147893D01*
X52618Y147934D01*
X52493Y147976D01*
X52327Y148004D01*
X52146Y148017D01*
X52063D01*
X51966Y148004D01*
X51855Y147990D01*
X51730Y147948D01*
X51592Y147907D01*
X51467Y147837D01*
X51356Y147754D01*
X51342Y147740D01*
X51314Y147712D01*
X51273Y147643D01*
X51217Y147574D01*
X51162Y147463D01*
X51120Y147338D01*
X51092Y147185D01*
X51079Y147005D01*
Y143482D01*
Y143455D01*
Y143399D01*
X51092Y143316D01*
X51120Y143205D01*
X51148Y143080D01*
X51189Y142955D01*
X51259Y142844D01*
X51356Y142733D01*
X51370Y142720D01*
X51411Y142692D01*
X51467Y142650D01*
X51564Y142609D01*
X51675Y142553D01*
X51814Y142512D01*
X51966Y142484D01*
X52146Y142470D01*
X52230D01*
X52327Y142484D01*
X52438Y142498D01*
X52562Y142539D01*
X52701Y142581D01*
X52826Y142650D01*
X52937Y142733D01*
X52951Y142747D01*
X52979Y142789D01*
X53020Y142844D01*
X53075Y142928D01*
X53131Y143039D01*
X53173Y143163D01*
X53200Y143316D01*
X53214Y143482D01*
Y144259D01*
X51994D01*
Y145701D01*
X54920D01*
Y143482D01*
Y143469D01*
Y143455D01*
Y143413D01*
Y143358D01*
X54906Y143219D01*
X54878Y143039D01*
X54837Y142831D01*
X54767Y142609D01*
X54684Y142387D01*
X54573Y142165D01*
X54559Y142137D01*
X54504Y142068D01*
X54435Y141971D01*
X54324Y141846D01*
X54185Y141707D01*
X54019Y141569D01*
X53824Y141430D01*
X53602Y141305D01*
X53575Y141291D01*
X53492Y141264D01*
X53367Y141208D01*
X53186Y141152D01*
X52979Y141097D01*
X52729Y141042D01*
X52452Y141014D01*
X52146Y141000D01*
X52008D01*
X51855Y141014D01*
X51647Y141042D01*
X51425Y141069D01*
X51176Y141125D01*
X50926Y141208D01*
X50690Y141305D01*
X50662Y141319D01*
X50593Y141361D01*
X50468Y141430D01*
X50330Y141527D01*
X50177Y141652D01*
X50024Y141791D01*
X49858Y141971D01*
X49719Y142165D01*
X49706Y142193D01*
X49664Y142262D01*
X49608Y142387D01*
X49553Y142539D01*
X49497Y142733D01*
X49442Y142955D01*
X49400Y143205D01*
X49387Y143482D01*
Y147005D01*
Y147019D01*
Y147033D01*
Y147074D01*
Y147130D01*
X49400Y147282D01*
X49428Y147463D01*
X49470Y147657D01*
X49525Y147879D01*
X49608Y148101D01*
X49719Y148322D01*
X49733Y148350D01*
X49789Y148420D01*
X49858Y148517D01*
X49969Y148642D01*
X50108Y148780D01*
X50274Y148919D01*
X50468Y149058D01*
X50690Y149182D01*
X50704D01*
X50718Y149196D01*
X50801Y149238D01*
X50926Y149279D01*
X51106Y149349D01*
X51314Y149404D01*
X51564Y149446D01*
X51841Y149487D01*
X52146Y149501D01*
X52285D01*
X52452Y149487D01*
D02*
G37*
G36*
X32065D02*
X32259Y149460D01*
X32481Y149418D01*
X32731Y149363D01*
X32980Y149293D01*
X33216Y149182D01*
X33230D01*
X33244Y149169D01*
X33313Y149127D01*
X33438Y149058D01*
X33577Y148961D01*
X33729Y148836D01*
X33895Y148697D01*
X34048Y148517D01*
X34187Y148322D01*
X34201Y148295D01*
X34242Y148225D01*
X34298Y148101D01*
X34367Y147948D01*
X34423Y147754D01*
X34478Y147532D01*
X34520Y147282D01*
X34534Y147005D01*
X32828D01*
Y147033D01*
Y147088D01*
X32814Y147171D01*
X32800Y147282D01*
X32758Y147407D01*
X32717Y147532D01*
X32647Y147657D01*
X32550Y147754D01*
X32536Y147768D01*
X32495Y147795D01*
X32439Y147837D01*
X32342Y147893D01*
X32231Y147934D01*
X32106Y147976D01*
X31940Y148004D01*
X31760Y148017D01*
X31677D01*
X31593Y148004D01*
X31482Y147990D01*
X31358Y147948D01*
X31219Y147907D01*
X31094Y147837D01*
X30983Y147754D01*
X30969Y147740D01*
X30942Y147712D01*
X30900Y147643D01*
X30845Y147574D01*
X30789Y147463D01*
X30747Y147338D01*
X30720Y147185D01*
X30706Y147005D01*
Y143482D01*
Y143455D01*
Y143399D01*
X30720Y143316D01*
X30747Y143205D01*
X30775Y143080D01*
X30817Y142955D01*
X30886Y142844D01*
X30983Y142733D01*
X30997Y142720D01*
X31039Y142692D01*
X31094Y142650D01*
X31191Y142609D01*
X31288Y142553D01*
X31427Y142512D01*
X31579Y142484D01*
X31760Y142470D01*
X31843D01*
X31940Y142484D01*
X32051Y142498D01*
X32176Y142539D01*
X32315Y142581D01*
X32439Y142650D01*
X32550Y142733D01*
X32564Y142747D01*
X32592Y142789D01*
X32634Y142844D01*
X32689Y142928D01*
X32745Y143039D01*
X32786Y143163D01*
X32814Y143316D01*
X32828Y143482D01*
X34534D01*
Y143469D01*
Y143455D01*
Y143413D01*
Y143358D01*
X34520Y143219D01*
X34492Y143039D01*
X34450Y142831D01*
X34381Y142609D01*
X34298Y142387D01*
X34187Y142165D01*
X34173Y142137D01*
X34117Y142068D01*
X34048Y141971D01*
X33937Y141846D01*
X33798Y141707D01*
X33632Y141569D01*
X33438Y141430D01*
X33216Y141305D01*
X33188Y141291D01*
X33105Y141264D01*
X32980Y141208D01*
X32800Y141152D01*
X32592Y141097D01*
X32342Y141042D01*
X32065Y141014D01*
X31760Y141000D01*
X31621D01*
X31469Y141014D01*
X31274Y141042D01*
X31052Y141069D01*
X30803Y141125D01*
X30553Y141208D01*
X30317Y141305D01*
X30290Y141319D01*
X30220Y141361D01*
X30096Y141430D01*
X29957Y141527D01*
X29804Y141652D01*
X29652Y141791D01*
X29485Y141971D01*
X29347Y142165D01*
X29333Y142193D01*
X29291Y142262D01*
X29236Y142387D01*
X29180Y142539D01*
X29111Y142733D01*
X29056Y142955D01*
X29014Y143205D01*
X29000Y143482D01*
Y147005D01*
Y147019D01*
Y147033D01*
Y147074D01*
Y147130D01*
X29014Y147282D01*
X29042Y147463D01*
X29083Y147657D01*
X29153Y147879D01*
X29236Y148101D01*
X29347Y148322D01*
X29361Y148350D01*
X29416Y148420D01*
X29485Y148517D01*
X29596Y148642D01*
X29735Y148780D01*
X29901Y148919D01*
X30096Y149058D01*
X30317Y149182D01*
X30331D01*
X30345Y149196D01*
X30428Y149238D01*
X30553Y149279D01*
X30733Y149349D01*
X30942Y149404D01*
X31191Y149446D01*
X31469Y149487D01*
X31760Y149501D01*
X31899D01*
X32065Y149487D01*
D02*
G37*
G36*
X41135Y141111D02*
X39443D01*
Y144634D01*
X37529D01*
Y141111D01*
X35823D01*
Y149390D01*
X37529D01*
Y146159D01*
X39443D01*
Y149390D01*
X41135D01*
Y141111D01*
D02*
G37*
G36*
X287098Y176608D02*
X287192Y176579D01*
X287279Y176533D01*
X287355Y176470D01*
X287418Y176394D01*
X287464Y176307D01*
X287493Y176213D01*
X287502Y176115D01*
Y154115D01*
X287493Y154017D01*
X287464Y153923D01*
X287418Y153836D01*
X287355Y153760D01*
X287279Y153697D01*
X287192Y153651D01*
X287098Y153622D01*
X287000Y153613D01*
X276502D01*
Y145615D01*
X276493Y145517D01*
X276464Y145423D01*
X276418Y145336D01*
X276355Y145260D01*
X276279Y145197D01*
X276192Y145151D01*
X276098Y145122D01*
X276000Y145113D01*
X263000D01*
X262902Y145122D01*
X262808Y145151D01*
X262721Y145197D01*
X262645Y145260D01*
X262582Y145336D01*
X262536Y145423D01*
X262507Y145517D01*
X262498Y145615D01*
Y176115D01*
X262507Y176213D01*
X262536Y176307D01*
X262582Y176394D01*
X262645Y176470D01*
X262721Y176533D01*
X262808Y176579D01*
X262902Y176608D01*
X263000Y176618D01*
X287000D01*
X287098Y176608D01*
D02*
G37*
G36*
X123098D02*
X123192Y176579D01*
X123279Y176533D01*
X123355Y176470D01*
X123418Y176394D01*
X123464Y176307D01*
X123493Y176213D01*
X123502Y176115D01*
Y145615D01*
X123493Y145517D01*
X123464Y145423D01*
X123418Y145336D01*
X123355Y145260D01*
X123279Y145197D01*
X123192Y145151D01*
X123098Y145122D01*
X123000Y145113D01*
X110000D01*
X109902Y145122D01*
X109808Y145151D01*
X109721Y145197D01*
X109645Y145260D01*
X109582Y145336D01*
X109536Y145423D01*
X109507Y145517D01*
X109498Y145615D01*
Y153613D01*
X99000D01*
X98902Y153622D01*
X98808Y153651D01*
X98721Y153697D01*
X98645Y153760D01*
X98582Y153836D01*
X98536Y153923D01*
X98507Y154017D01*
X98498Y154115D01*
Y176115D01*
X98507Y176213D01*
X98536Y176307D01*
X98582Y176394D01*
X98645Y176470D01*
X98721Y176533D01*
X98808Y176579D01*
X98902Y176608D01*
X99000Y176618D01*
X123000D01*
X123098Y176608D01*
D02*
G37*
G36*
X45517Y149376D02*
X45614D01*
X45822Y149349D01*
X46058Y149307D01*
X46308Y149252D01*
X46571Y149182D01*
X46821Y149071D01*
X46835D01*
X46849Y149058D01*
X46932Y149016D01*
X47043Y148947D01*
X47195Y148849D01*
X47348Y148725D01*
X47514Y148572D01*
X47681Y148406D01*
X47819Y148198D01*
X47833Y148170D01*
X47875Y148101D01*
X47930Y147976D01*
X48000Y147823D01*
X48069Y147629D01*
X48124Y147407D01*
X48166Y147144D01*
X48180Y146866D01*
Y146853D01*
Y146825D01*
Y146783D01*
Y146728D01*
X48166Y146575D01*
X48138Y146381D01*
X48083Y146159D01*
X48014Y145923D01*
X47916Y145674D01*
X47792Y145424D01*
X47778Y145396D01*
X47722Y145327D01*
X47639Y145202D01*
X47514Y145077D01*
X47362Y144925D01*
X47182Y144772D01*
X46973Y144634D01*
X46738Y144509D01*
X48305Y141111D01*
X46446D01*
X45115Y144231D01*
X44325D01*
Y141111D01*
X42633D01*
Y149390D01*
X45448D01*
X45517Y149376D01*
D02*
G37*
G36*
X48027Y119111D02*
X46044D01*
X43922Y125518D01*
Y125504D01*
X43936Y125449D01*
Y125379D01*
X43950Y125282D01*
X43964Y125144D01*
Y125005D01*
X43978Y124839D01*
X43992Y124658D01*
Y124631D01*
Y124575D01*
X44006Y124478D01*
Y124339D01*
X44019Y124187D01*
X44033Y124020D01*
X44047Y123646D01*
Y123618D01*
X44061Y123563D01*
Y123466D01*
X44075Y123341D01*
Y123202D01*
X44089Y123050D01*
Y122731D01*
Y119111D01*
X42591D01*
Y127390D01*
X44574D01*
X46710Y120969D01*
Y120983D01*
Y121039D01*
X46696Y121136D01*
Y121247D01*
X46682Y121399D01*
X46668Y121566D01*
X46641Y121746D01*
X46627Y121940D01*
Y121968D01*
Y122037D01*
X46613Y122148D01*
X46599Y122287D01*
X46585Y122453D01*
Y122633D01*
X46557Y123036D01*
Y123063D01*
Y123133D01*
X46543Y123230D01*
Y123369D01*
Y123507D01*
X46530Y123674D01*
Y123826D01*
Y123979D01*
Y127390D01*
X48027D01*
Y119111D01*
D02*
G37*
G36*
X54726Y125906D02*
X51287D01*
Y124048D01*
X54324D01*
Y122647D01*
X51287D01*
Y120581D01*
X54726D01*
Y119111D01*
X49622D01*
Y127390D01*
X54726D01*
Y125906D01*
D02*
G37*
G36*
X31996Y127376D02*
X32204Y127349D01*
X32439Y127307D01*
X32689Y127252D01*
X32939Y127169D01*
X33188Y127058D01*
X33202D01*
X33216Y127044D01*
X33299Y127002D01*
X33410Y126919D01*
X33563Y126822D01*
X33715Y126683D01*
X33882Y126531D01*
X34048Y126336D01*
X34187Y126128D01*
X34201Y126101D01*
X34242Y126017D01*
X34298Y125893D01*
X34367Y125726D01*
X34436Y125518D01*
X34492Y125282D01*
X34534Y125019D01*
X34547Y124728D01*
Y121774D01*
Y121760D01*
Y121732D01*
Y121691D01*
Y121635D01*
X34534Y121482D01*
X34506Y121302D01*
X34464Y121080D01*
X34395Y120844D01*
X34312Y120609D01*
X34187Y120373D01*
X34173Y120345D01*
X34117Y120276D01*
X34048Y120165D01*
X33937Y120040D01*
X33785Y119888D01*
X33618Y119735D01*
X33424Y119583D01*
X33188Y119444D01*
X33174D01*
X33161Y119430D01*
X33077Y119388D01*
X32939Y119333D01*
X32758Y119277D01*
X32536Y119222D01*
X32287Y119166D01*
X31996Y119125D01*
X31690Y119111D01*
X29000D01*
Y127390D01*
X31829D01*
X31996Y127376D01*
D02*
G37*
G36*
X38708Y127487D02*
X38819Y127474D01*
X38930Y127460D01*
X39221Y127418D01*
X39526Y127335D01*
X39859Y127210D01*
X40025Y127127D01*
X40192Y127030D01*
X40344Y126919D01*
X40483Y126794D01*
X40497Y126780D01*
X40511Y126766D01*
X40552Y126725D01*
X40594Y126669D01*
X40649Y126600D01*
X40719Y126517D01*
X40788Y126406D01*
X40858Y126295D01*
X40913Y126170D01*
X40982Y126031D01*
X41107Y125698D01*
X41190Y125324D01*
X41204Y125116D01*
X41218Y124894D01*
Y121593D01*
Y121580D01*
Y121538D01*
Y121482D01*
X41204Y121399D01*
X41190Y121302D01*
X41176Y121177D01*
X41121Y120914D01*
X41038Y120609D01*
X40913Y120290D01*
X40830Y120137D01*
X40733Y119985D01*
X40608Y119832D01*
X40483Y119693D01*
X40469Y119679D01*
X40455Y119666D01*
X40414Y119624D01*
X40344Y119583D01*
X40275Y119527D01*
X40192Y119472D01*
X40081Y119416D01*
X39956Y119347D01*
X39831Y119277D01*
X39679Y119222D01*
X39512Y119166D01*
X39332Y119111D01*
X38944Y119028D01*
X38722Y119014D01*
X38500Y119000D01*
X38375D01*
X38292Y119014D01*
X38195Y119028D01*
X38070Y119042D01*
X37779Y119083D01*
X37474Y119166D01*
X37141Y119291D01*
X36974Y119374D01*
X36808Y119472D01*
X36655Y119569D01*
X36517Y119693D01*
X36503Y119707D01*
X36489Y119721D01*
X36447Y119763D01*
X36406Y119818D01*
X36350Y119888D01*
X36281Y119985D01*
X36212Y120082D01*
X36156Y120193D01*
X36087Y120331D01*
X36017Y120470D01*
X35893Y120789D01*
X35809Y121164D01*
X35796Y121371D01*
X35782Y121593D01*
Y124894D01*
Y124908D01*
Y124950D01*
Y125005D01*
X35796Y125088D01*
X35809Y125199D01*
X35823Y125310D01*
X35879Y125588D01*
X35962Y125893D01*
X36087Y126212D01*
X36170Y126364D01*
X36281Y126517D01*
X36392Y126655D01*
X36517Y126794D01*
X36530Y126808D01*
X36544Y126822D01*
X36600Y126863D01*
X36655Y126905D01*
X36725Y126960D01*
X36822Y127016D01*
X36919Y127085D01*
X37044Y127155D01*
X37169Y127210D01*
X37321Y127279D01*
X37487Y127335D01*
X37668Y127390D01*
X38056Y127474D01*
X38278Y127487D01*
X38500Y127501D01*
X38625D01*
X38708Y127487D01*
D02*
G37*
%LPC*%
G36*
X116827Y292656D02*
X115856D01*
Y290465D01*
X116924D01*
X117021Y290478D01*
X117146Y290506D01*
X117284Y290534D01*
X117437Y290576D01*
X117576Y290645D01*
X117700Y290742D01*
X117714Y290756D01*
X117756Y290797D01*
X117797Y290867D01*
X117867Y290950D01*
X117922Y291061D01*
X117964Y291200D01*
X118006Y291352D01*
X118019Y291532D01*
Y291560D01*
Y291616D01*
X118006Y291713D01*
X117978Y291838D01*
X117936Y291976D01*
X117881Y292115D01*
X117811Y292240D01*
X117700Y292365D01*
X117687Y292378D01*
X117645Y292406D01*
X117576Y292462D01*
X117479Y292517D01*
X117354Y292559D01*
X117201Y292614D01*
X117035Y292642D01*
X116827Y292656D01*
D02*
G37*
G36*
X23840Y292767D02*
X22842D01*
Y290797D01*
X23924D01*
X24007Y290811D01*
X24132Y290825D01*
X24257Y290867D01*
X24381Y290908D01*
X24506Y290978D01*
X24617Y291061D01*
X24631Y291075D01*
X24659Y291116D01*
X24714Y291172D01*
X24770Y291255D01*
X24811Y291366D01*
X24867Y291477D01*
X24894Y291630D01*
X24908Y291782D01*
Y291810D01*
Y291865D01*
X24894Y291949D01*
X24867Y292046D01*
X24839Y292170D01*
X24784Y292281D01*
X24714Y292406D01*
X24617Y292503D01*
X24603Y292517D01*
X24562Y292545D01*
X24506Y292586D01*
X24423Y292642D01*
X24312Y292684D01*
X24173Y292725D01*
X24021Y292753D01*
X23840Y292767D01*
D02*
G37*
G36*
X23910Y289466D02*
X22842D01*
Y287219D01*
X24007D01*
X24104Y287233D01*
X24229Y287261D01*
X24367Y287289D01*
X24506Y287344D01*
X24659Y287414D01*
X24784Y287511D01*
X24797Y287525D01*
X24839Y287566D01*
X24881Y287635D01*
X24950Y287733D01*
X25006Y287843D01*
X25047Y287996D01*
X25089Y288162D01*
X25103Y288343D01*
Y288370D01*
Y288426D01*
X25089Y288523D01*
X25061Y288634D01*
X25019Y288773D01*
X24964Y288911D01*
X24894Y289036D01*
X24784Y289161D01*
X24770Y289175D01*
X24728Y289203D01*
X24659Y289258D01*
X24562Y289314D01*
X24437Y289369D01*
X24284Y289424D01*
X24104Y289452D01*
X23910Y289466D01*
D02*
G37*
G36*
X45295Y147907D02*
X44325D01*
Y145715D01*
X45392D01*
X45490Y145729D01*
X45614Y145757D01*
X45753Y145785D01*
X45906Y145826D01*
X46044Y145896D01*
X46169Y145993D01*
X46183Y146006D01*
X46224Y146048D01*
X46266Y146117D01*
X46336Y146201D01*
X46391Y146312D01*
X46433Y146450D01*
X46474Y146603D01*
X46488Y146783D01*
Y146811D01*
Y146866D01*
X46474Y146963D01*
X46446Y147088D01*
X46405Y147227D01*
X46349Y147366D01*
X46280Y147490D01*
X46169Y147615D01*
X46155Y147629D01*
X46114Y147657D01*
X46044Y147712D01*
X45947Y147768D01*
X45822Y147809D01*
X45670Y147865D01*
X45503Y147893D01*
X45295Y147907D01*
D02*
G37*
G36*
X31690Y125851D02*
X30706D01*
Y120637D01*
X31774D01*
X31871Y120650D01*
X31982Y120678D01*
X32120Y120720D01*
X32259Y120775D01*
X32398Y120844D01*
X32523Y120955D01*
X32536Y120969D01*
X32578Y121011D01*
X32620Y121080D01*
X32689Y121177D01*
X32745Y121302D01*
X32786Y121441D01*
X32828Y121593D01*
X32841Y121774D01*
Y124728D01*
Y124755D01*
Y124811D01*
X32828Y124908D01*
X32800Y125019D01*
X32758Y125144D01*
X32703Y125282D01*
X32634Y125407D01*
X32523Y125532D01*
X32509Y125546D01*
X32467Y125588D01*
X32398Y125629D01*
X32301Y125698D01*
X32176Y125754D01*
X32037Y125795D01*
X31871Y125837D01*
X31690Y125851D01*
D02*
G37*
G36*
X38500Y126017D02*
X38403D01*
X38333Y126004D01*
X38181Y125962D01*
X37987Y125893D01*
X37890Y125837D01*
X37793Y125768D01*
X37709Y125685D01*
X37640Y125588D01*
X37571Y125477D01*
X37515Y125338D01*
X37487Y125185D01*
X37474Y125005D01*
Y121482D01*
Y121469D01*
Y121441D01*
X37487Y121385D01*
Y121330D01*
X37529Y121164D01*
X37598Y120983D01*
X37654Y120886D01*
X37723Y120789D01*
X37806Y120706D01*
X37903Y120623D01*
X38028Y120567D01*
X38167Y120512D01*
X38320Y120484D01*
X38500Y120470D01*
X38542D01*
X38597Y120484D01*
X38666D01*
X38819Y120526D01*
X39013Y120595D01*
X39110Y120650D01*
X39207Y120720D01*
X39290Y120803D01*
X39360Y120900D01*
X39429Y121011D01*
X39485Y121150D01*
X39512Y121302D01*
X39526Y121482D01*
Y125005D01*
Y125019D01*
Y125047D01*
Y125102D01*
X39512Y125158D01*
X39471Y125324D01*
X39401Y125518D01*
X39346Y125601D01*
X39276Y125698D01*
X39193Y125782D01*
X39096Y125865D01*
X38971Y125920D01*
X38833Y125976D01*
X38680Y126004D01*
X38500Y126017D01*
D02*
G37*
%LPD*%
D52*
X357000Y310000D02*
D03*
X323000D02*
D03*
D53*
X167640Y225400D02*
D03*
X174140Y206400D02*
D03*
D54*
X161140D02*
D03*
D55*
X280000Y240000D02*
D03*
D56*
X255500Y247500D02*
D03*
Y242500D02*
D03*
Y257500D02*
D03*
Y252500D02*
D03*
Y237500D02*
D03*
X304500Y257500D02*
D03*
Y252500D02*
D03*
Y247500D02*
D03*
Y242500D02*
D03*
X255500Y232500D02*
D03*
Y227500D02*
D03*
Y222500D02*
D03*
X304500Y237500D02*
D03*
Y232500D02*
D03*
Y227500D02*
D03*
Y222500D02*
D03*
D57*
X262500Y215500D02*
D03*
X267500D02*
D03*
X272500D02*
D03*
X277500D02*
D03*
X282500D02*
D03*
X287500D02*
D03*
X292500D02*
D03*
X297500D02*
D03*
X292500Y264500D02*
D03*
X287500D02*
D03*
X282500D02*
D03*
X277500D02*
D03*
X272500D02*
D03*
X267500D02*
D03*
X262500D02*
D03*
D58*
X297500D02*
D03*
D59*
X336000Y255625D02*
D03*
Y260375D02*
D03*
X130810Y219875D02*
D03*
Y224625D02*
D03*
X118680Y229185D02*
D03*
Y224435D02*
D03*
Y213935D02*
D03*
Y218685D02*
D03*
X301750Y302125D02*
D03*
Y297375D02*
D03*
X337250Y152875D02*
D03*
Y157625D02*
D03*
D60*
X346000Y198000D02*
D03*
X336000D02*
D03*
X241220Y271780D02*
D03*
X231220D02*
D03*
X113750Y318500D02*
D03*
X103750D02*
D03*
X114380Y275590D02*
D03*
X124380D02*
D03*
X137240Y237490D02*
D03*
X147240D02*
D03*
X91520Y236220D02*
D03*
X101520D02*
D03*
X101680Y226060D02*
D03*
X111680D02*
D03*
Y217060D02*
D03*
X101680D02*
D03*
X104060Y200660D02*
D03*
X94060D02*
D03*
X203280Y322580D02*
D03*
X213280D02*
D03*
X336000Y188000D02*
D03*
X346000D02*
D03*
D61*
X237655Y209550D02*
D03*
X242405D02*
D03*
X261290Y276860D02*
D03*
X256540D02*
D03*
X237650Y227924D02*
D03*
X242400D02*
D03*
X233845Y252730D02*
D03*
X238595D02*
D03*
X246545Y322580D02*
D03*
X251295D02*
D03*
X239865D02*
D03*
X235115D02*
D03*
X331305Y147320D02*
D03*
X326555D02*
D03*
X361625Y203000D02*
D03*
X356875D02*
D03*
X348375Y248750D02*
D03*
X353125D02*
D03*
X284645Y299720D02*
D03*
X289395D02*
D03*
X269570Y200660D02*
D03*
X274320D02*
D03*
D62*
X231470Y261620D02*
D03*
X240970D02*
D03*
X148920Y279400D02*
D03*
X158420D02*
D03*
X114630Y237490D02*
D03*
X124130D02*
D03*
X289230Y308610D02*
D03*
X279730D02*
D03*
X309550Y199390D02*
D03*
X300050D02*
D03*
X281000Y283210D02*
D03*
X290500D02*
D03*
X345250Y258000D02*
D03*
X354750D02*
D03*
X269570Y191770D02*
D03*
X279070D02*
D03*
X243510Y200660D02*
D03*
X234010D02*
D03*
D63*
X185420Y206070D02*
D03*
Y215570D02*
D03*
D64*
X312750Y310019D02*
D03*
X289770Y292100D02*
D03*
D65*
X307250Y310019D02*
D03*
X284270Y292100D02*
D03*
D66*
X302000Y310000D02*
D03*
D67*
Y315500D02*
D03*
D68*
X144780Y193167D02*
D03*
D69*
Y225933D02*
D03*
D70*
X76250Y255000D02*
D03*
Y245000D02*
D03*
Y235000D02*
D03*
Y225000D02*
D03*
Y215000D02*
D03*
Y205000D02*
D03*
Y195000D02*
D03*
Y185000D02*
D03*
Y190000D02*
D03*
Y200000D02*
D03*
Y210000D02*
D03*
Y220000D02*
D03*
Y230000D02*
D03*
Y240000D02*
D03*
Y250000D02*
D03*
Y260000D02*
D03*
Y180000D02*
D03*
D71*
Y265000D02*
D03*
D72*
X64500Y136000D02*
D03*
Y126000D02*
D03*
X64250Y147000D02*
D03*
Y157000D02*
D03*
D73*
X34000Y134000D02*
D03*
X50000Y156000D02*
D03*
D74*
X50000Y134000D02*
D03*
X34000Y156000D02*
D03*
D75*
X276860Y320040D02*
D03*
X81280Y125730D02*
D03*
D76*
X135500Y180120D02*
D03*
D77*
X140500D02*
D03*
X145500D02*
D03*
X150500D02*
D03*
X155500D02*
D03*
X160500D02*
D03*
X165500D02*
D03*
X170500D02*
D03*
X175500D02*
D03*
X180500D02*
D03*
X185500D02*
D03*
X190500D02*
D03*
X195500D02*
D03*
X200500D02*
D03*
X205500D02*
D03*
X210500D02*
D03*
X215500D02*
D03*
X220500D02*
D03*
X225500D02*
D03*
X230500D02*
D03*
X235500D02*
D03*
X240500D02*
D03*
X245500D02*
D03*
X250500D02*
D03*
D78*
X110500Y163865D02*
D03*
X275500D02*
D03*
D79*
X121250Y305000D02*
D03*
X196750D02*
D03*
X103750D02*
D03*
X28250D02*
D03*
D80*
X178000Y288000D02*
D03*
X140000Y322000D02*
D03*
X47000D02*
D03*
X85000Y288000D02*
D03*
D81*
X361750Y238250D02*
D03*
Y215250D02*
D03*
X344250D02*
D03*
D82*
Y238250D02*
D03*
D83*
X218440Y304800D02*
D03*
X259080D02*
D03*
D84*
X338000Y147000D02*
D03*
Y139000D02*
D03*
Y131000D02*
D03*
Y123000D02*
D03*
X362000D02*
D03*
Y131000D02*
D03*
Y139000D02*
D03*
D85*
Y147000D02*
D03*
D86*
X161290Y248920D02*
D03*
D87*
Y258420D02*
D03*
Y267920D02*
D03*
X135290D02*
D03*
Y248920D02*
D03*
D88*
X299500Y159750D02*
D03*
D89*
X309000D02*
D03*
X318500D02*
D03*
Y185750D02*
D03*
X299500D02*
D03*
D90*
X94615Y254000D02*
D03*
X121285D02*
D03*
D91*
X37750Y168500D02*
D03*
Y276500D02*
D03*
D92*
X70050Y168500D02*
D03*
Y276500D02*
D03*
D93*
X200000Y250000D02*
D03*
M02*
