G04*
G04 #@! TF.GenerationSoftware,Altium Limited,Altium Designer,24.5.2 (23)*
G04*
G04 Layer_Color=16711935*
%FSLAX44Y44*%
%MOMM*%
G71*
G04*
G04 #@! TF.SameCoordinates,393E536B-8F59-49B7-8278-4084FBF8F83B*
G04*
G04*
G04 #@! TF.FilePolarity,Negative*
G04*
G01*
G75*
%ADD62R,0.5500X0.7000*%
%ADD63R,0.7000X0.5500*%
G04:AMPARAMS|DCode=68|XSize=1.0144mm|YSize=1.3192mm|CornerRadius=0.2786mm|HoleSize=0mm|Usage=FLASHONLY|Rotation=90.000|XOffset=0mm|YOffset=0mm|HoleType=Round|Shape=RoundedRectangle|*
%AMROUNDEDRECTD68*
21,1,1.0144,0.7620,0,0,90.0*
21,1,0.4572,1.3192,0,0,90.0*
1,1,0.5572,0.3810,0.2286*
1,1,0.5572,0.3810,-0.2286*
1,1,0.5572,-0.3810,-0.2286*
1,1,0.5572,-0.3810,0.2286*
%
%ADD68ROUNDEDRECTD68*%
%ADD69R,1.3192X1.0144*%
%ADD72R,0.7000X0.6000*%
%ADD75C,2.0000*%
G04:AMPARAMS|DCode=91|XSize=1.1mm|YSize=2.4mm|CornerRadius=0.55mm|HoleSize=0mm|Usage=FLASHONLY|Rotation=270.000|XOffset=0mm|YOffset=0mm|HoleType=Round|Shape=RoundedRectangle|*
%AMROUNDEDRECTD91*
21,1,1.1000,1.3000,0,0,270.0*
21,1,0.0000,2.4000,0,0,270.0*
1,1,1.1000,-0.6500,0.0000*
1,1,1.1000,-0.6500,0.0000*
1,1,1.1000,0.6500,0.0000*
1,1,1.1000,0.6500,0.0000*
%
%ADD91ROUNDEDRECTD91*%
G04:AMPARAMS|DCode=92|XSize=1mm|YSize=2.55mm|CornerRadius=0.5mm|HoleSize=0mm|Usage=FLASHONLY|Rotation=270.000|XOffset=0mm|YOffset=0mm|HoleType=Round|Shape=RoundedRectangle|*
%AMROUNDEDRECTD92*
21,1,1.0000,1.5500,0,0,270.0*
21,1,0.0000,2.5500,0,0,270.0*
1,1,1.0000,-0.7750,0.0000*
1,1,1.0000,-0.7750,0.0000*
1,1,1.0000,0.7750,0.0000*
1,1,1.0000,0.7750,0.0000*
%
%ADD92ROUNDEDRECTD92*%
%ADD93C,5.3000*%
%ADD117R,1.0144X1.3192*%
G04:AMPARAMS|DCode=118|XSize=1.0144mm|YSize=1.3192mm|CornerRadius=0.2786mm|HoleSize=0mm|Usage=FLASHONLY|Rotation=180.000|XOffset=0mm|YOffset=0mm|HoleType=Round|Shape=RoundedRectangle|*
%AMROUNDEDRECTD118*
21,1,1.0144,0.7620,0,0,180.0*
21,1,0.4572,1.3192,0,0,180.0*
1,1,0.5572,-0.2286,0.3810*
1,1,0.5572,0.2286,0.3810*
1,1,0.5572,0.2286,-0.3810*
1,1,0.5572,-0.2286,-0.3810*
%
%ADD118ROUNDEDRECTD118*%
%ADD119R,0.9000X2.1000*%
G04:AMPARAMS|DCode=120|XSize=0.8mm|YSize=0.4mm|CornerRadius=0.125mm|HoleSize=0mm|Usage=FLASHONLY|Rotation=180.000|XOffset=0mm|YOffset=0mm|HoleType=Round|Shape=RoundedRectangle|*
%AMROUNDEDRECTD120*
21,1,0.8000,0.1500,0,0,180.0*
21,1,0.5500,0.4000,0,0,180.0*
1,1,0.2500,-0.2750,0.0750*
1,1,0.2500,0.2750,0.0750*
1,1,0.2500,0.2750,-0.0750*
1,1,0.2500,-0.2750,-0.0750*
%
%ADD120ROUNDEDRECTD120*%
%ADD121R,0.9000X1.4800*%
%ADD122R,0.8000X0.4000*%
G04:AMPARAMS|DCode=123|XSize=1.1mm|YSize=3.6mm|CornerRadius=0.3mm|HoleSize=0mm|Usage=FLASHONLY|Rotation=0.000|XOffset=0mm|YOffset=0mm|HoleType=Round|Shape=RoundedRectangle|*
%AMROUNDEDRECTD123*
21,1,1.1000,3.0000,0,0,0.0*
21,1,0.5000,3.6000,0,0,0.0*
1,1,0.6000,0.2500,-1.5000*
1,1,0.6000,-0.2500,-1.5000*
1,1,0.6000,-0.2500,1.5000*
1,1,0.6000,0.2500,1.5000*
%
%ADD123ROUNDEDRECTD123*%
%ADD124R,1.1000X3.6000*%
%ADD125R,1.6000X3.5000*%
%ADD126R,0.6590X0.7480*%
G04:AMPARAMS|DCode=127|XSize=0.748mm|YSize=0.659mm|CornerRadius=0.1898mm|HoleSize=0mm|Usage=FLASHONLY|Rotation=90.000|XOffset=0mm|YOffset=0mm|HoleType=Round|Shape=RoundedRectangle|*
%AMROUNDEDRECTD127*
21,1,0.7480,0.2795,0,0,90.0*
21,1,0.3685,0.6590,0,0,90.0*
1,1,0.3795,0.1398,0.1843*
1,1,0.3795,0.1398,-0.1843*
1,1,0.3795,-0.1398,-0.1843*
1,1,0.3795,-0.1398,0.1843*
%
%ADD127ROUNDEDRECTD127*%
D62*
X208610Y179070D02*
D03*
X218110D02*
D03*
X284150Y189230D02*
D03*
X274650D02*
D03*
D63*
X158750Y156540D02*
D03*
Y166040D02*
D03*
X148590Y156540D02*
D03*
Y166040D02*
D03*
X270510Y207950D02*
D03*
Y198450D02*
D03*
X209550D02*
D03*
Y207950D02*
D03*
X139700Y183820D02*
D03*
Y174320D02*
D03*
X219710Y207950D02*
D03*
Y198450D02*
D03*
X240030Y207950D02*
D03*
Y198450D02*
D03*
X229870Y207950D02*
D03*
Y198450D02*
D03*
X250500Y208250D02*
D03*
Y198750D02*
D03*
X260497Y208500D02*
D03*
Y199000D02*
D03*
D68*
X250190Y180213D02*
D03*
D69*
Y147447D02*
D03*
D72*
X269500Y150615D02*
D03*
Y140615D02*
D03*
X283210Y151050D02*
D03*
Y141050D02*
D03*
D75*
X81280Y125730D02*
D03*
X276860Y320040D02*
D03*
D91*
X37750Y168500D02*
D03*
Y276500D02*
D03*
D92*
X70050Y168500D02*
D03*
Y276500D02*
D03*
D93*
X200000Y250000D02*
D03*
D117*
X296037Y170180D02*
D03*
X327942Y192250D02*
D03*
D118*
X328803Y170180D02*
D03*
X295176Y192250D02*
D03*
D119*
X230980Y154940D02*
D03*
X210980D02*
D03*
D120*
X128010Y192920D02*
D03*
D121*
X118110Y185420D02*
D03*
D122*
X128010Y187920D02*
D03*
Y182920D02*
D03*
Y177920D02*
D03*
X108210Y192920D02*
D03*
Y187920D02*
D03*
Y182920D02*
D03*
Y177920D02*
D03*
D123*
X120500Y254042D02*
D03*
D124*
X140500D02*
D03*
D125*
X97000Y311542D02*
D03*
X164000D02*
D03*
D126*
X276000Y178254D02*
D03*
X269775Y160344D02*
D03*
D127*
X282225D02*
D03*
M02*
