G04*
G04 #@! TF.GenerationSoftware,Altium Limited,Altium Designer,24.5.2 (23)*
G04*
G04 Layer_Physical_Order=1*
G04 Layer_Color=255*
%FSLAX44Y44*%
%MOMM*%
G71*
G04*
G04 #@! TF.SameCoordinates,393E536B-8F59-49B7-8278-4084FBF8F83B*
G04*
G04*
G04 #@! TF.FilePolarity,Positive*
G04*
G01*
G75*
%ADD10C,0.2500*%
%ADD11C,0.2000*%
%ADD13C,0.2540*%
%ADD14R,0.4700X0.6000*%
G04:AMPARAMS|DCode=15|XSize=0.6mm|YSize=0.47mm|CornerRadius=0.1175mm|HoleSize=0mm|Usage=FLASHONLY|Rotation=90.000|XOffset=0mm|YOffset=0mm|HoleType=Round|Shape=RoundedRectangle|*
%AMROUNDEDRECTD15*
21,1,0.6000,0.2350,0,0,90.0*
21,1,0.3650,0.4700,0,0,90.0*
1,1,0.2350,0.1175,0.1825*
1,1,0.2350,0.1175,-0.1825*
1,1,0.2350,-0.1175,-0.1825*
1,1,0.2350,-0.1175,0.1825*
%
%ADD15ROUNDEDRECTD15*%
%ADD17R,0.8100X0.2700*%
%ADD18R,0.2700X0.8100*%
G04:AMPARAMS|DCode=19|XSize=0.81mm|YSize=0.27mm|CornerRadius=0.0338mm|HoleSize=0mm|Usage=FLASHONLY|Rotation=270.000|XOffset=0mm|YOffset=0mm|HoleType=Round|Shape=RoundedRectangle|*
%AMROUNDEDRECTD19*
21,1,0.8100,0.2025,0,0,270.0*
21,1,0.7425,0.2700,0,0,270.0*
1,1,0.0675,-0.1013,-0.3713*
1,1,0.0675,-0.1013,0.3713*
1,1,0.0675,0.1013,0.3713*
1,1,0.0675,0.1013,-0.3713*
%
%ADD19ROUNDEDRECTD19*%
%ADD20R,0.3000X0.2500*%
%ADD21R,0.5000X0.6000*%
%ADD22R,0.2500X0.3000*%
%ADD23R,0.4500X0.6000*%
%ADD24R,0.6000X0.4500*%
%ADD25R,0.3000X0.2500*%
G04:AMPARAMS|DCode=26|XSize=0.3mm|YSize=0.25mm|CornerRadius=0.0625mm|HoleSize=0mm|Usage=FLASHONLY|Rotation=0.000|XOffset=0mm|YOffset=0mm|HoleType=Round|Shape=RoundedRectangle|*
%AMROUNDEDRECTD26*
21,1,0.3000,0.1250,0,0,0.0*
21,1,0.1750,0.2500,0,0,0.0*
1,1,0.1250,0.0875,-0.0625*
1,1,0.1250,-0.0875,-0.0625*
1,1,0.1250,-0.0875,0.0625*
1,1,0.1250,0.0875,0.0625*
%
%ADD26ROUNDEDRECTD26*%
%ADD27R,0.2500X0.3000*%
G04:AMPARAMS|DCode=28|XSize=0.3mm|YSize=0.25mm|CornerRadius=0.0625mm|HoleSize=0mm|Usage=FLASHONLY|Rotation=270.000|XOffset=0mm|YOffset=0mm|HoleType=Round|Shape=RoundedRectangle|*
%AMROUNDEDRECTD28*
21,1,0.3000,0.1250,0,0,270.0*
21,1,0.1750,0.2500,0,0,270.0*
1,1,0.1250,-0.0625,-0.0875*
1,1,0.1250,-0.0625,0.0875*
1,1,0.1250,0.0625,0.0875*
1,1,0.1250,0.0625,-0.0875*
%
%ADD28ROUNDEDRECTD28*%
G04:AMPARAMS|DCode=29|XSize=0.9144mm|YSize=1.2192mm|CornerRadius=0.2286mm|HoleSize=0mm|Usage=FLASHONLY|Rotation=90.000|XOffset=0mm|YOffset=0mm|HoleType=Round|Shape=RoundedRectangle|*
%AMROUNDEDRECTD29*
21,1,0.9144,0.7620,0,0,90.0*
21,1,0.4572,1.2192,0,0,90.0*
1,1,0.4572,0.3810,0.2286*
1,1,0.4572,0.3810,-0.2286*
1,1,0.4572,-0.3810,-0.2286*
1,1,0.4572,-0.3810,0.2286*
%
%ADD29ROUNDEDRECTD29*%
%ADD30R,1.2192X0.9144*%
%ADD31R,0.9000X0.3000*%
G04:AMPARAMS|DCode=32|XSize=0.3mm|YSize=0.9mm|CornerRadius=0.075mm|HoleSize=0mm|Usage=FLASHONLY|Rotation=270.000|XOffset=0mm|YOffset=0mm|HoleType=Round|Shape=RoundedRectangle|*
%AMROUNDEDRECTD32*
21,1,0.3000,0.7500,0,0,270.0*
21,1,0.1500,0.9000,0,0,270.0*
1,1,0.1500,-0.3750,-0.0750*
1,1,0.1500,-0.3750,0.0750*
1,1,0.1500,0.3750,0.0750*
1,1,0.1500,0.3750,-0.0750*
%
%ADD32ROUNDEDRECTD32*%
%ADD33R,0.6000X0.5000*%
%ADD34R,0.8000X0.8000*%
G04:AMPARAMS|DCode=35|XSize=0.8mm|YSize=0.8mm|CornerRadius=0.2mm|HoleSize=0mm|Usage=FLASHONLY|Rotation=180.000|XOffset=0mm|YOffset=0mm|HoleType=Round|Shape=RoundedRectangle|*
%AMROUNDEDRECTD35*
21,1,0.8000,0.4000,0,0,180.0*
21,1,0.4000,0.8000,0,0,180.0*
1,1,0.4000,-0.2000,0.2000*
1,1,0.4000,0.2000,0.2000*
1,1,0.4000,0.2000,-0.2000*
1,1,0.4000,-0.2000,-0.2000*
%
%ADD35ROUNDEDRECTD35*%
%ADD36C,1.0000*%
G04:AMPARAMS|DCode=37|XSize=0.3mm|YSize=0.8mm|CornerRadius=0.075mm|HoleSize=0mm|Usage=FLASHONLY|Rotation=180.000|XOffset=0mm|YOffset=0mm|HoleType=Round|Shape=RoundedRectangle|*
%AMROUNDEDRECTD37*
21,1,0.3000,0.6500,0,0,180.0*
21,1,0.1500,0.8000,0,0,180.0*
1,1,0.1500,-0.0750,0.3250*
1,1,0.1500,0.0750,0.3250*
1,1,0.1500,0.0750,-0.3250*
1,1,0.1500,-0.0750,-0.3250*
%
%ADD37ROUNDEDRECTD37*%
%ADD38R,0.3000X0.8000*%
%ADD39R,1.0000X1.0000*%
%ADD40R,1.4500X1.0000*%
%ADD41R,0.9000X0.4000*%
%ADD42R,1.0500X1.3000*%
G04:AMPARAMS|DCode=43|XSize=1.05mm|YSize=1.3mm|CornerRadius=0.2625mm|HoleSize=0mm|Usage=FLASHONLY|Rotation=0.000|XOffset=0mm|YOffset=0mm|HoleType=Round|Shape=RoundedRectangle|*
%AMROUNDEDRECTD43*
21,1,1.0500,0.7750,0,0,0.0*
21,1,0.5250,1.3000,0,0,0.0*
1,1,0.5250,0.2625,-0.3875*
1,1,0.5250,-0.2625,-0.3875*
1,1,0.5250,-0.2625,0.3875*
1,1,0.5250,0.2625,0.3875*
%
%ADD43ROUNDEDRECTD43*%
%ADD44R,1.2700X2.2098*%
%ADD45R,0.5000X0.5000*%
G04:AMPARAMS|DCode=46|XSize=0.5mm|YSize=0.5mm|CornerRadius=0.0625mm|HoleSize=0mm|Usage=FLASHONLY|Rotation=0.000|XOffset=0mm|YOffset=0mm|HoleType=Round|Shape=RoundedRectangle|*
%AMROUNDEDRECTD46*
21,1,0.5000,0.3750,0,0,0.0*
21,1,0.3750,0.5000,0,0,0.0*
1,1,0.1250,0.1875,-0.1875*
1,1,0.1250,-0.1875,-0.1875*
1,1,0.1250,-0.1875,0.1875*
1,1,0.1250,0.1875,0.1875*
%
%ADD46ROUNDEDRECTD46*%
G04:AMPARAMS|DCode=47|XSize=1mm|YSize=0.66mm|CornerRadius=0.165mm|HoleSize=0mm|Usage=FLASHONLY|Rotation=180.000|XOffset=0mm|YOffset=0mm|HoleType=Round|Shape=RoundedRectangle|*
%AMROUNDEDRECTD47*
21,1,1.0000,0.3300,0,0,180.0*
21,1,0.6700,0.6600,0,0,180.0*
1,1,0.3300,-0.3350,0.1650*
1,1,0.3300,0.3350,0.1650*
1,1,0.3300,0.3350,-0.1650*
1,1,0.3300,-0.3350,-0.1650*
%
%ADD47ROUNDEDRECTD47*%
%ADD48R,1.0000X0.6600*%
G04:AMPARAMS|DCode=49|XSize=1.1mm|YSize=0.6mm|CornerRadius=0.051mm|HoleSize=0mm|Usage=FLASHONLY|Rotation=90.000|XOffset=0mm|YOffset=0mm|HoleType=Round|Shape=RoundedRectangle|*
%AMROUNDEDRECTD49*
21,1,1.1000,0.4980,0,0,90.0*
21,1,0.9980,0.6000,0,0,90.0*
1,1,0.1020,0.2490,0.4990*
1,1,0.1020,0.2490,-0.4990*
1,1,0.1020,-0.2490,-0.4990*
1,1,0.1020,-0.2490,0.4990*
%
%ADD49ROUNDEDRECTD49*%
%ADD50R,0.6000X1.1000*%
%ADD51R,1.1430X2.0320*%
%ADD52R,0.8000X1.6000*%
G04:AMPARAMS|DCode=91|XSize=1.1mm|YSize=2.4mm|CornerRadius=0.55mm|HoleSize=0mm|Usage=FLASHONLY|Rotation=270.000|XOffset=0mm|YOffset=0mm|HoleType=Round|Shape=RoundedRectangle|*
%AMROUNDEDRECTD91*
21,1,1.1000,1.3000,0,0,270.0*
21,1,0.0000,2.4000,0,0,270.0*
1,1,1.1000,-0.6500,0.0000*
1,1,1.1000,-0.6500,0.0000*
1,1,1.1000,0.6500,0.0000*
1,1,1.1000,0.6500,0.0000*
%
%ADD91ROUNDEDRECTD91*%
G04:AMPARAMS|DCode=92|XSize=1mm|YSize=2.55mm|CornerRadius=0.5mm|HoleSize=0mm|Usage=FLASHONLY|Rotation=270.000|XOffset=0mm|YOffset=0mm|HoleType=Round|Shape=RoundedRectangle|*
%AMROUNDEDRECTD92*
21,1,1.0000,1.5500,0,0,270.0*
21,1,0.0000,2.5500,0,0,270.0*
1,1,1.0000,-0.7750,0.0000*
1,1,1.0000,-0.7750,0.0000*
1,1,1.0000,0.7750,0.0000*
1,1,1.0000,0.7750,0.0000*
%
%ADD92ROUNDEDRECTD92*%
%ADD94C,0.3500*%
%ADD95R,3.7000X3.7000*%
%ADD96C,0.3000*%
%ADD97C,0.1500*%
%ADD98C,0.4000*%
%ADD99C,0.5000*%
%ADD100C,0.6000*%
%ADD101C,0.8000*%
%ADD102C,0.5000*%
%ADD103C,5.2000*%
%ADD104C,0.6000*%
G36*
X198780Y326691D02*
Y317580D01*
X199966D01*
Y312000D01*
X187500D01*
Y298000D01*
X191850D01*
Y296185D01*
X192611Y294348D01*
X193915Y293044D01*
X193861Y292570D01*
X193526Y291774D01*
X193210D01*
X191942Y291521D01*
X190867Y290803D01*
X186213Y286150D01*
X185040Y286635D01*
Y286730D01*
X178000D01*
X170960D01*
Y285759D01*
X156210D01*
X155235Y285565D01*
X154881Y285329D01*
X153710Y284940D01*
X153710Y284940D01*
X153710Y284940D01*
X150190D01*
Y279400D01*
Y273860D01*
X153661D01*
Y264160D01*
X153750Y263713D01*
Y259690D01*
X161290D01*
Y257150D01*
X153750D01*
Y252580D01*
X153750D01*
X154366Y251310D01*
X154219Y250570D01*
Y247270D01*
X154502Y245846D01*
X155309Y244639D01*
X156516Y243832D01*
X157721Y243592D01*
Y236241D01*
X157526Y236045D01*
X155918Y235379D01*
X154511Y233972D01*
X154422Y233756D01*
X153055Y233440D01*
X152280Y234131D01*
Y236220D01*
X147240D01*
Y237490D01*
X145970D01*
Y243030D01*
X143316D01*
X142290Y243620D01*
X142290Y244263D01*
Y254220D01*
X129549D01*
Y256754D01*
X134406Y261611D01*
X140970D01*
X141945Y261805D01*
X142772Y262358D01*
X143325Y263185D01*
X143519Y264160D01*
Y271780D01*
X143325Y272755D01*
X142772Y273582D01*
X140232Y276122D01*
X139405Y276675D01*
X138430Y276869D01*
X135502D01*
X135152Y277392D01*
X131342Y281202D01*
X130515Y281755D01*
X129540Y281949D01*
X121920D01*
X120945Y281755D01*
X120591Y281519D01*
X119420Y281130D01*
X119420Y281130D01*
X119420Y281130D01*
X115650D01*
Y275590D01*
Y270050D01*
X116196D01*
X116682Y268877D01*
X113965Y266160D01*
X113570D01*
Y265667D01*
X113215Y265135D01*
X113021Y264160D01*
Y244528D01*
X113066Y244300D01*
X112169Y243052D01*
X112123Y243030D01*
X109840D01*
Y238760D01*
X114630D01*
Y236220D01*
X109840D01*
Y231950D01*
X108939Y231060D01*
X107673D01*
X107180Y231060D01*
X106560Y232073D01*
Y234950D01*
X101520D01*
Y237490D01*
X106560D01*
Y241760D01*
X103567D01*
X103470Y241766D01*
X102853Y242630D01*
X102718Y243030D01*
X102879Y243840D01*
Y264160D01*
X102685Y265135D01*
X102330Y265667D01*
Y266160D01*
X101837D01*
X101305Y266515D01*
X100330Y266709D01*
X88900D01*
X87925Y266515D01*
X87393Y266160D01*
X86900D01*
Y265667D01*
X86545Y265135D01*
X86351Y264160D01*
Y256326D01*
X84560Y254535D01*
X83820Y254841D01*
Y254000D01*
X72390D01*
Y275230D01*
X70050D01*
X54862D01*
X54954Y274532D01*
X55714Y272698D01*
X55921Y272428D01*
X55359Y271289D01*
X51821D01*
X51655Y271628D01*
X51320Y272559D01*
X52083Y274401D01*
X52192Y275230D01*
X37750D01*
X23308D01*
X23417Y274401D01*
X24180Y272559D01*
X23846Y271628D01*
X23679Y271289D01*
X12039D01*
Y310000D01*
Y311769D01*
X12729Y315239D01*
X14083Y318508D01*
X16049Y321449D01*
X18551Y323951D01*
X21492Y325917D01*
X24761Y327271D01*
X28231Y327961D01*
X30000Y327961D01*
X168228Y327961D01*
X168614Y326691D01*
X168408Y326554D01*
X161908Y320053D01*
X147040D01*
Y320730D01*
X140000D01*
Y322000D01*
X138730D01*
Y326540D01*
X132960D01*
Y321498D01*
X131690Y320972D01*
X131459Y321204D01*
X130218Y322032D01*
X128755Y322323D01*
X118250D01*
Y323500D01*
X109250D01*
Y323500D01*
X108250D01*
Y323500D01*
X99250D01*
Y313500D01*
X100436D01*
Y312000D01*
X94500D01*
Y298000D01*
X100436D01*
Y297570D01*
X100688Y296302D01*
X101407Y295227D01*
X106877Y289757D01*
X107952Y289039D01*
X109220Y288786D01*
X142293D01*
X143218Y287861D01*
X145055Y287100D01*
X147045D01*
X148882Y287861D01*
X150289Y289268D01*
X151050Y291105D01*
Y293095D01*
X150289Y294932D01*
X148882Y296339D01*
X147045Y297100D01*
X145055D01*
X143218Y296339D01*
X142293Y295414D01*
X110593D01*
X109179Y296827D01*
X109665Y298000D01*
X111460D01*
Y297460D01*
X119980D01*
Y305000D01*
X121250D01*
Y306270D01*
X131040D01*
Y311480D01*
X131040Y312407D01*
X131569Y312407D01*
X163492D01*
X164955Y312698D01*
X166195Y313526D01*
X172696Y320027D01*
X187252D01*
X187668Y319611D01*
X189505Y318850D01*
X191495D01*
X193332Y319611D01*
X194739Y321018D01*
X195500Y322855D01*
Y324845D01*
X194739Y326682D01*
X194634Y326788D01*
X195119Y327961D01*
X197668D01*
X198780Y326691D01*
D02*
G37*
G36*
X306156Y319073D02*
X304907Y318657D01*
X303860Y319356D01*
X303270Y319474D01*
Y315500D01*
X302000D01*
Y314349D01*
X301400Y314230D01*
X298227D01*
X298394Y313390D01*
X298750Y312857D01*
Y312786D01*
X297997Y311658D01*
X297667Y310000D01*
Y303059D01*
X297997Y301400D01*
X298250Y301021D01*
Y299080D01*
X297642Y298170D01*
X297312Y296512D01*
X297417Y295987D01*
Y274760D01*
X297443Y274628D01*
X297192Y272720D01*
X296868Y272440D01*
X295598Y273020D01*
Y283210D01*
X295210Y285161D01*
X294750Y285849D01*
Y288210D01*
X293848D01*
Y292100D01*
X293538Y293661D01*
X293270Y294062D01*
X293270Y295350D01*
X293270Y295350D01*
X293185Y295680D01*
X293185Y295680D01*
Y298450D01*
X289395D01*
Y300990D01*
X293185D01*
Y303070D01*
X294020D01*
Y307340D01*
X289230D01*
Y308610D01*
X287960D01*
Y314150D01*
X284440D01*
Y314150D01*
X283394Y313610D01*
X282125D01*
X281600Y314880D01*
X282461Y315742D01*
X283383Y317338D01*
X283860Y319118D01*
Y320962D01*
X283383Y322742D01*
X282461Y324338D01*
X281158Y325641D01*
X279562Y326563D01*
X279084Y326691D01*
X279251Y327961D01*
X306156D01*
Y319073D01*
D02*
G37*
G36*
X274636Y326691D02*
X274158Y326563D01*
X272562Y325641D01*
X271259Y324338D01*
X270337Y322742D01*
X269860Y320962D01*
Y319118D01*
X270337Y317338D01*
X271259Y315742D01*
X271700Y315301D01*
X271414Y313790D01*
X270963Y313594D01*
X270925Y313610D01*
X268935D01*
X268486Y313424D01*
X267430Y314129D01*
Y317849D01*
X255416D01*
X254609Y318657D01*
Y322580D01*
X254545Y322900D01*
Y326080D01*
X250335D01*
Y326620D01*
X247815D01*
Y322580D01*
Y318540D01*
X247981D01*
Y317284D01*
X248234Y316016D01*
X248952Y314941D01*
X250730Y313163D01*
Y293104D01*
X245090D01*
X241350Y296844D01*
X240274Y297562D01*
X239006Y297815D01*
X226790D01*
Y311785D01*
X227634D01*
X228902Y312038D01*
X229977Y312756D01*
X235103Y317882D01*
X236075Y318540D01*
Y318540D01*
X236075Y318540D01*
X238595D01*
Y322580D01*
Y326620D01*
X236075D01*
Y326080D01*
X231865D01*
Y324016D01*
X226261Y318413D01*
X224410D01*
X223894Y319352D01*
X223848Y319647D01*
X223949Y319748D01*
X224710Y321585D01*
Y323575D01*
X223949Y325412D01*
X222670Y326691D01*
X222755Y327289D01*
X223060Y327961D01*
X274468D01*
X274636Y326691D01*
D02*
G37*
G36*
X172720Y264160D02*
X156210D01*
Y283210D01*
X172720D01*
Y264160D01*
D02*
G37*
G36*
X100330Y243840D02*
X88259D01*
X88240Y243844D01*
X88240Y243844D01*
X76250D01*
X76231Y243840D01*
X71120D01*
Y251460D01*
X72345D01*
X72390Y251451D01*
X83820D01*
X83865Y251460D01*
X85090D01*
X88900Y255270D01*
Y264160D01*
X100330D01*
Y243840D01*
D02*
G37*
G36*
X331960Y256895D02*
X336000D01*
Y255625D01*
X337270D01*
Y251835D01*
X340040D01*
Y252252D01*
X341000Y253000D01*
X344166D01*
X345125Y252250D01*
Y249070D01*
X345061Y248750D01*
Y246841D01*
X341625D01*
X339820Y246482D01*
X338291Y245459D01*
X337268Y243930D01*
X336909Y242125D01*
Y240804D01*
X332843D01*
X323803Y249843D01*
X322728Y250561D01*
X321460Y250814D01*
X319509D01*
X318983Y252084D01*
X323670Y256770D01*
X323845Y257032D01*
X331960D01*
Y256895D01*
D02*
G37*
G36*
X367961Y247290D02*
X363020D01*
Y238250D01*
X360480D01*
Y247290D01*
X356915D01*
Y247480D01*
X353125D01*
Y250020D01*
X356915D01*
Y252460D01*
X359540D01*
Y256730D01*
X354750D01*
Y258000D01*
X353480D01*
Y263540D01*
X349960D01*
Y263540D01*
X348914Y263000D01*
X347489D01*
X345624Y264864D01*
X345592Y264886D01*
X345977Y266156D01*
X367961D01*
Y247290D01*
D02*
G37*
G36*
X233860Y229193D02*
X237650D01*
Y226653D01*
X233860D01*
Y223883D01*
X234048D01*
X234534Y222710D01*
X228498Y216674D01*
X215524D01*
X215273Y217176D01*
X215134Y217944D01*
X216378Y219188D01*
X217139Y221025D01*
Y223015D01*
X216378Y224852D01*
X216045Y225186D01*
X216144Y226452D01*
X218593Y228231D01*
X219881Y229519D01*
X220551Y229386D01*
X221958Y227979D01*
X223795Y227218D01*
X225785D01*
X227622Y227979D01*
X229029Y229386D01*
X229099Y229556D01*
X233860D01*
Y229193D01*
D02*
G37*
G36*
X331667Y223717D02*
X332742Y222999D01*
X334010Y222746D01*
X336460D01*
Y216520D01*
X344250D01*
Y213980D01*
X336460D01*
Y206210D01*
X339437D01*
X339501Y206183D01*
X340440Y205245D01*
Y204743D01*
X340342Y204250D01*
X339579Y203068D01*
X339267Y203000D01*
X336186D01*
X333043Y206143D01*
X331968Y206862D01*
X330707Y207112D01*
X330629Y207302D01*
X329222Y208709D01*
X327385Y209470D01*
X325395D01*
X323558Y208709D01*
X322151Y207302D01*
X321390Y205465D01*
Y203475D01*
X322151Y201638D01*
X323558Y200231D01*
X325395Y199470D01*
X327385D01*
X329222Y200231D01*
X329402Y200411D01*
X331500Y198314D01*
X331500Y193000D01*
X331500Y191730D01*
Y187686D01*
X330387Y186574D01*
X328638Y185849D01*
X327231Y184442D01*
X326470Y182605D01*
Y180615D01*
X327231Y178778D01*
X327431Y178578D01*
X326905Y177308D01*
X324292D01*
X323500Y178250D01*
Y193250D01*
X323500D01*
X323282Y193577D01*
X323770Y194755D01*
Y196745D01*
X323009Y198582D01*
X321602Y199989D01*
X319765Y200750D01*
X317775D01*
X315938Y199989D01*
X315610Y199661D01*
X314340Y200187D01*
Y204930D01*
X310820D01*
Y199390D01*
X308280D01*
Y204930D01*
X304760D01*
Y204930D01*
X303714Y204390D01*
X300543D01*
X300050Y204488D01*
X299557Y204390D01*
X295800D01*
Y202052D01*
X294790Y200541D01*
X294402Y198590D01*
Y190347D01*
X291929D01*
X289978Y189959D01*
X288324Y188854D01*
X285683Y186213D01*
X285123D01*
X283860Y186230D01*
Y190500D01*
X279070D01*
Y193040D01*
X283860D01*
Y197310D01*
X278110D01*
Y199390D01*
X274320D01*
Y200660D01*
X273649D01*
X273338Y202221D01*
X273050Y202652D01*
Y204700D01*
X271578D01*
Y209450D01*
X300850D01*
Y218960D01*
X301040D01*
Y219150D01*
X303401D01*
X304500Y218931D01*
X305599Y219150D01*
X310550D01*
Y219492D01*
X310858Y219553D01*
X311222Y219796D01*
X315317D01*
X316096Y219951D01*
X319088D01*
X319611Y218688D01*
X321018Y217281D01*
X322855Y216520D01*
X324845D01*
X326682Y217281D01*
X328089Y218688D01*
X328850Y220525D01*
Y222515D01*
X328089Y224352D01*
X327909Y224532D01*
X328267Y225527D01*
X329561Y225823D01*
X331667Y223717D01*
D02*
G37*
G36*
X178231Y231408D02*
X181408Y228231D01*
X185042Y225590D01*
X189044Y223551D01*
X193317Y222163D01*
X197066Y221569D01*
X197092Y220279D01*
X196852Y220231D01*
X195777Y219513D01*
X192133Y215870D01*
X190960Y216355D01*
Y220360D01*
X186690D01*
Y215570D01*
X185420D01*
Y214300D01*
X179880D01*
Y211678D01*
X175799D01*
X174140Y212008D01*
X171994Y211581D01*
X171723Y211400D01*
X169790D01*
Y209790D01*
X168959Y208546D01*
X168532Y206400D01*
Y205673D01*
X167552Y204693D01*
X166379Y205179D01*
Y215900D01*
X166185Y216875D01*
X165632Y217702D01*
X165429Y217906D01*
X165819Y218786D01*
X166082Y219049D01*
X167640Y218844D01*
X169337Y219067D01*
X170918Y219722D01*
X171801Y220400D01*
X171990D01*
Y220545D01*
X172276Y220764D01*
X174816Y223304D01*
X175858Y224662D01*
X176513Y226243D01*
X176736Y227940D01*
Y231304D01*
X178006Y231717D01*
X178231Y231408D01*
D02*
G37*
G36*
X132080Y216085D02*
X134850D01*
Y217343D01*
X135890Y218431D01*
X143724D01*
X151231Y210924D01*
Y205630D01*
X151425Y204655D01*
X151978Y203828D01*
X152174Y203631D01*
X151688Y202458D01*
X149987D01*
X147841Y202031D01*
X146022Y200815D01*
X145029Y199823D01*
X140970D01*
X139298Y199490D01*
X137880Y198543D01*
X136933Y197125D01*
X136600Y195453D01*
Y190881D01*
X136933Y189209D01*
X137880Y187791D01*
X138251Y187543D01*
X137902Y186309D01*
X137000Y186120D01*
D01*
X136516Y186155D01*
X136250Y186174D01*
X135793Y186174D01*
X134750D01*
X133677Y185960D01*
X132767Y185353D01*
X132160Y184443D01*
X131946Y183370D01*
Y176870D01*
X132160Y175797D01*
X132767Y174887D01*
X133550Y174365D01*
X133738Y174142D01*
X134305Y172860D01*
X134131Y171990D01*
Y156940D01*
X134403Y155574D01*
X135177Y154417D01*
X148067Y141527D01*
X149224Y140753D01*
X150590Y140481D01*
X258137D01*
X259027Y139592D01*
X260185Y138818D01*
X261550Y138546D01*
X277450D01*
X278815Y138818D01*
X279973Y139592D01*
X286673Y146291D01*
X287327D01*
X287998Y145621D01*
X289835Y144860D01*
X291637D01*
X292090Y144343D01*
X292407Y143727D01*
X291999Y143116D01*
X291572Y140970D01*
X291999Y138824D01*
X293215Y137005D01*
X295034Y135789D01*
X297180Y135362D01*
X299326Y135789D01*
X301145Y137005D01*
X302060Y137920D01*
X303230Y137294D01*
X303048Y136378D01*
Y136227D01*
X303012Y136080D01*
X302963Y135100D01*
X302971Y135050D01*
X302961Y135000D01*
Y117039D01*
X272216D01*
X270678Y117345D01*
X269229Y117945D01*
X267925Y118816D01*
X266816Y119925D01*
X265945Y121229D01*
X265345Y122678D01*
X265039Y124216D01*
X265039Y125000D01*
X265029Y125050D01*
X265037Y125100D01*
X264988Y126080D01*
X264952Y126227D01*
Y126378D01*
X264569Y128301D01*
X264492Y128486D01*
X264453Y128683D01*
X263703Y130494D01*
X263591Y130661D01*
X263515Y130847D01*
X262425Y132477D01*
X262283Y132619D01*
X262172Y132786D01*
X260786Y134172D01*
X260619Y134284D01*
X260477Y134425D01*
X258847Y135515D01*
X258661Y135591D01*
X258494Y135703D01*
X256683Y136453D01*
X256486Y136492D01*
X256301Y136569D01*
X254378Y136952D01*
X254227D01*
X254080Y136988D01*
X253100Y137037D01*
X253050Y137029D01*
X253000Y137039D01*
X133000Y137039D01*
X132950Y137029D01*
X132900Y137037D01*
X131920Y136988D01*
X131773Y136952D01*
X131622D01*
X129699Y136569D01*
X129514Y136492D01*
X129317Y136453D01*
X127506Y135703D01*
X127339Y135591D01*
X127153Y135515D01*
X125523Y134425D01*
X125381Y134284D01*
X125214Y134172D01*
X123828Y132786D01*
X123716Y132619D01*
X123574Y132477D01*
X122485Y130847D01*
X122409Y130661D01*
X122297Y130494D01*
X121547Y128683D01*
X121508Y128486D01*
X121431Y128301D01*
X121048Y126378D01*
Y126227D01*
X121012Y126080D01*
X120963Y125100D01*
X120971Y125050D01*
X120961Y125000D01*
X120961Y124216D01*
X120655Y122678D01*
X120055Y121229D01*
X119184Y119925D01*
X118075Y118816D01*
X116771Y117945D01*
X115322Y117345D01*
X113784Y117039D01*
X28231D01*
X24761Y117729D01*
X21492Y119083D01*
X18551Y121049D01*
X16049Y123551D01*
X14083Y126492D01*
X12729Y129761D01*
X12039Y133231D01*
Y135000D01*
Y173711D01*
X23679D01*
X23846Y173372D01*
X24180Y172441D01*
X23417Y170599D01*
X23308Y169770D01*
X37750D01*
Y167230D01*
X23308D01*
X23417Y166401D01*
X24227Y164445D01*
X25516Y162766D01*
X27195Y161477D01*
X27577Y161319D01*
X27945Y160104D01*
X27723Y159771D01*
X27371Y158000D01*
Y157270D01*
X40629D01*
Y158000D01*
X40406Y159121D01*
X41274Y160391D01*
X44000D01*
Y150000D01*
X56000D01*
Y153431D01*
X58352D01*
X59250Y152533D01*
Y151500D01*
X59250Y151230D01*
Y142500D01*
X60681D01*
Y140500D01*
X59500D01*
Y131770D01*
X59234Y131458D01*
X57666Y131380D01*
X56078Y132968D01*
Y136000D01*
X55768Y137561D01*
X54884Y138884D01*
X53561Y139768D01*
X52000Y140078D01*
X48000D01*
X46439Y139768D01*
X45116Y138884D01*
X44232Y137561D01*
X43922Y136000D01*
Y132000D01*
X44232Y130439D01*
X45116Y129116D01*
X46439Y128232D01*
X48000Y127922D01*
X51032D01*
X55477Y123477D01*
X56634Y122703D01*
X58000Y122431D01*
X59500D01*
Y121500D01*
X69500D01*
Y130230D01*
X69500Y130500D01*
Y131500D01*
X69500Y131770D01*
Y135667D01*
X70651Y136382D01*
X70770Y136386D01*
X72050Y136131D01*
X100638D01*
X101308Y135461D01*
X103145Y134700D01*
X105135D01*
X106972Y135461D01*
X108379Y136868D01*
X109140Y138705D01*
Y140695D01*
X108379Y142532D01*
X106972Y143939D01*
X105135Y144700D01*
X103145D01*
X101308Y143939D01*
X101059Y143690D01*
X99983Y144410D01*
X100250Y145055D01*
Y147045D01*
X99489Y148882D01*
X98082Y150289D01*
X96245Y151050D01*
X94255D01*
X92418Y150289D01*
X91011Y148882D01*
X90250Y147045D01*
Y145055D01*
X90553Y144325D01*
X89847Y143269D01*
X73528D01*
X69250Y147547D01*
Y151230D01*
X69250Y151500D01*
Y152500D01*
X69250Y152770D01*
Y160895D01*
X77800D01*
X79768Y161154D01*
X81602Y161914D01*
X83178Y163122D01*
X84386Y164697D01*
X85146Y166532D01*
X85238Y167230D01*
X70050D01*
Y169770D01*
X85238D01*
X85146Y170468D01*
X84386Y172303D01*
X83178Y173878D01*
X82550Y174359D01*
Y171950D01*
X71120D01*
Y190500D01*
X76250D01*
Y191270D01*
X83290D01*
Y191761D01*
X88900D01*
X89875Y191955D01*
X90702Y192508D01*
X91255Y193335D01*
X91449Y194310D01*
Y195660D01*
X97974D01*
X99020Y195120D01*
X99020Y195120D01*
X99020Y195120D01*
X102790D01*
Y200660D01*
Y206200D01*
X102213D01*
X101508Y207256D01*
X101520Y207285D01*
Y209275D01*
X100892Y210790D01*
X101470Y212060D01*
X106180D01*
Y212060D01*
X107180D01*
Y212060D01*
X114640D01*
Y210145D01*
X117410D01*
Y213935D01*
X119950D01*
Y210145D01*
X122720D01*
Y212176D01*
X123415Y212641D01*
X125404D01*
X127242Y213402D01*
X128648Y214809D01*
X129177Y216085D01*
X129540D01*
Y219875D01*
X132080D01*
Y216085D01*
D02*
G37*
G36*
X249450Y219150D02*
X258960D01*
Y218960D01*
X259150D01*
Y217686D01*
X258732Y217061D01*
X258422Y215500D01*
Y205769D01*
X257391Y204738D01*
X247760D01*
Y205660D01*
X247588D01*
Y208445D01*
X247588Y208445D01*
X247278Y210006D01*
X246394Y211329D01*
X245655Y212068D01*
Y213050D01*
X244367D01*
X243966Y213318D01*
X242706Y213568D01*
X242405Y213628D01*
X241445Y213590D01*
Y213590D01*
X238925D01*
Y211542D01*
X238637Y211111D01*
X238326Y209550D01*
X237655D01*
Y208280D01*
X233865D01*
Y206200D01*
X229220D01*
Y201930D01*
X234010D01*
Y199390D01*
X229220D01*
Y196789D01*
X227512Y196082D01*
X226423Y194993D01*
X226204Y195211D01*
X224367Y195972D01*
X222377D01*
X220540Y195211D01*
X219400Y194071D01*
X218732Y194739D01*
X216895Y195500D01*
X214905D01*
X213068Y194739D01*
X211661Y193332D01*
X211542Y193044D01*
X210152Y193620D01*
X208163D01*
X207118Y193188D01*
X206456Y193960D01*
X206321Y194232D01*
X207050Y195992D01*
Y197981D01*
X206289Y199818D01*
X204882Y201225D01*
X204438Y201409D01*
X204407Y202771D01*
X205814Y204178D01*
X206575Y206015D01*
Y208005D01*
X206255Y208776D01*
X207104Y210046D01*
X229870D01*
X231138Y210299D01*
X232213Y211017D01*
X232692Y211495D01*
X233865Y211010D01*
Y210820D01*
X236385D01*
Y213736D01*
X235959Y214763D01*
X240383Y219186D01*
X249450D01*
Y219150D01*
D02*
G37*
G36*
X133350Y275590D02*
Y274320D01*
X138430D01*
X140970Y271780D01*
Y264160D01*
X133350D01*
X127000Y257810D01*
Y245110D01*
X128290Y243820D01*
Y243620D01*
X128490D01*
X129540Y242570D01*
Y236220D01*
X132740Y233020D01*
Y232490D01*
X133270D01*
X134620Y231140D01*
X151130D01*
Y228600D01*
X163830Y215900D01*
Y203200D01*
X156210D01*
X153780Y205630D01*
Y211980D01*
X144780Y220980D01*
X135890D01*
X134310Y222560D01*
Y223125D01*
X133745D01*
X133350Y223520D01*
X132555D01*
X132371Y223643D01*
X130810Y223953D01*
X130622Y223916D01*
X129410Y224970D01*
Y226044D01*
X128648Y227881D01*
X128270Y228260D01*
Y229870D01*
X124460Y233680D01*
X122562D01*
X122448Y234251D01*
X121920Y235041D01*
Y240030D01*
X118110Y243840D01*
X116258D01*
X115570Y244528D01*
Y264160D01*
X121920Y270510D01*
Y279400D01*
X129540D01*
X133350Y275590D01*
D02*
G37*
G36*
X367961Y182039D02*
X351246D01*
X350500Y183000D01*
X350500Y183136D01*
Y185735D01*
X350710Y186049D01*
X351098Y188000D01*
Y198000D01*
Y203690D01*
X350849Y204940D01*
X351741Y206210D01*
X352040D01*
X353085Y205667D01*
Y204270D01*
X356875D01*
Y203000D01*
X358145D01*
Y198960D01*
X360665D01*
Y199500D01*
X364875D01*
Y202680D01*
X364939Y203000D01*
Y206750D01*
X367961D01*
Y182039D01*
D02*
G37*
G36*
X88900Y194310D02*
X72390D01*
Y200660D01*
X88900D01*
Y194310D01*
D02*
G37*
G36*
X265781Y180714D02*
X265965Y180439D01*
X268894Y177510D01*
X270548Y176405D01*
X272006Y176115D01*
X287000D01*
Y176017D01*
X287795D01*
X289746Y176405D01*
X291400Y177510D01*
X293230Y179340D01*
X294500Y178814D01*
Y178250D01*
X298011D01*
X302913Y173349D01*
X304401Y172354D01*
X306157Y172005D01*
X309186D01*
X311716Y169476D01*
X312338Y169060D01*
X311953Y167790D01*
X310270D01*
Y159750D01*
X307730D01*
Y167790D01*
X303460D01*
Y167790D01*
X302190Y167259D01*
X301990Y167299D01*
X297010D01*
X296031Y167104D01*
X295200Y166550D01*
X294646Y165719D01*
X294451Y164740D01*
Y162093D01*
X294319Y161896D01*
X293892Y159750D01*
Y155378D01*
X292622Y154530D01*
X291825Y154860D01*
X289835D01*
X287998Y154099D01*
X287327Y153429D01*
X285195D01*
X283829Y153157D01*
X282671Y152383D01*
X276000Y145712D01*
Y145615D01*
X263000D01*
Y145712D01*
X262139Y146573D01*
X260981Y147347D01*
X259615Y147619D01*
X254655D01*
X254169Y148792D01*
X257857Y152480D01*
X258805D01*
X260642Y153241D01*
X262049Y154648D01*
X262810Y156485D01*
Y158475D01*
X262049Y160312D01*
X260642Y161719D01*
X258805Y162480D01*
X256815D01*
X254978Y161719D01*
X253571Y160312D01*
X252810Y158475D01*
Y157527D01*
X246172Y150889D01*
X204793D01*
X204087Y151945D01*
X204390Y152675D01*
Y154665D01*
X203629Y156502D01*
X202222Y157909D01*
X200385Y158670D01*
X198395D01*
X196558Y157909D01*
X195151Y156502D01*
X194390Y154665D01*
Y152675D01*
X194693Y151945D01*
X193987Y150889D01*
X179939D01*
X179453Y152062D01*
X179499Y152108D01*
X180260Y153945D01*
Y155935D01*
X179499Y157772D01*
X178092Y159179D01*
X176255Y159940D01*
X174265D01*
X172428Y159179D01*
X171021Y157772D01*
X170260Y155935D01*
Y153945D01*
X171021Y152108D01*
X171067Y152062D01*
X170581Y150889D01*
X156418D01*
X144539Y162768D01*
Y166700D01*
X145809Y167226D01*
X146299Y166736D01*
X148136Y165975D01*
X150125D01*
X151963Y166736D01*
X152908Y167681D01*
X153378Y167211D01*
X155215Y166450D01*
X157205D01*
X159042Y167211D01*
X160449Y168618D01*
X161210Y170455D01*
Y172445D01*
X160953Y173064D01*
X161659Y174120D01*
X166460D01*
Y173580D01*
X169230D01*
Y180120D01*
X171770D01*
Y173580D01*
X174540D01*
Y174120D01*
X202672D01*
Y170180D01*
X202780Y169638D01*
Y169086D01*
X202991Y168576D01*
X203099Y168034D01*
X203406Y167575D01*
X203617Y167064D01*
X204008Y166674D01*
X204315Y166215D01*
X204774Y165908D01*
X205165Y165517D01*
X205675Y165306D01*
X206134Y164999D01*
X206676Y164891D01*
X207186Y164680D01*
X207738D01*
X208280Y164572D01*
X208822Y164680D01*
X209374D01*
X209884Y164891D01*
X210426Y164999D01*
X210885Y165306D01*
X211395Y165517D01*
X211786Y165908D01*
X212245Y166215D01*
X212552Y166674D01*
X212943Y167064D01*
X213154Y167575D01*
X213461Y168034D01*
X213569Y168576D01*
X213780Y169086D01*
Y169638D01*
X213888Y170180D01*
Y173580D01*
X214230D01*
Y180120D01*
X216421D01*
X216732Y178559D01*
X216770Y178502D01*
Y173580D01*
X219540D01*
Y174120D01*
X254000D01*
Y176042D01*
X256500D01*
X256500Y176042D01*
X258061Y176352D01*
X259384Y177236D01*
X262568Y180420D01*
X262615D01*
X264452Y181181D01*
X265781Y180714D01*
D02*
G37*
G36*
X344153Y159485D02*
X344339Y159409D01*
X344506Y159297D01*
X346317Y158547D01*
X346514Y158508D01*
X346699Y158431D01*
X348622Y158048D01*
X348773D01*
X348920Y158012D01*
X349900Y157963D01*
X349950Y157971D01*
X350000Y157961D01*
X360784Y157961D01*
X362322Y157655D01*
X363771Y157055D01*
X365075Y156184D01*
X366184Y155075D01*
X367055Y153771D01*
X367655Y152322D01*
X367754Y151823D01*
X367501Y151431D01*
X366696Y151267D01*
X365915Y151318D01*
X365110Y151856D01*
X363875Y152102D01*
X363270D01*
Y147000D01*
X362000D01*
Y145730D01*
X356898D01*
Y145125D01*
X356951Y144858D01*
X355934Y143588D01*
X353630D01*
X351874Y143239D01*
X350386Y142244D01*
X344310Y136169D01*
X343040Y136695D01*
Y137730D01*
X338000D01*
Y140270D01*
X343040D01*
Y144040D01*
X342500D01*
Y151500D01*
X341328D01*
Y152875D01*
X341167Y153685D01*
X341290Y153835D01*
X341290D01*
Y156355D01*
X339243D01*
X338811Y156643D01*
X337250Y156954D01*
Y158895D01*
X341290D01*
Y159956D01*
X341669Y160313D01*
X341847Y160414D01*
X342560Y160550D01*
X344153Y159485D01*
D02*
G37*
%LPC*%
G36*
X54040Y326540D02*
X48270D01*
Y323270D01*
X54040D01*
Y326540D01*
D02*
G37*
G36*
X147040D02*
X141270D01*
Y323270D01*
X147040D01*
Y326540D01*
D02*
G37*
G36*
X45730D02*
X39960D01*
Y323270D01*
X45730D01*
Y326540D01*
D02*
G37*
G36*
X54040Y320730D02*
X48270D01*
Y317460D01*
X54040D01*
Y320730D01*
D02*
G37*
G36*
X45730D02*
X39960D01*
Y317460D01*
X45730D01*
Y320730D01*
D02*
G37*
G36*
X38040Y312540D02*
X29520D01*
Y306270D01*
X38040D01*
Y312540D01*
D02*
G37*
G36*
X26980D02*
X18460D01*
Y306270D01*
X26980D01*
Y312540D01*
D02*
G37*
G36*
X131040Y303730D02*
X122520D01*
Y297460D01*
X131040D01*
Y303730D01*
D02*
G37*
G36*
X38040D02*
X29520D01*
Y297460D01*
X38040D01*
Y303730D01*
D02*
G37*
G36*
X26980D02*
X18460D01*
Y297460D01*
X26980D01*
Y303730D01*
D02*
G37*
G36*
X185040Y292540D02*
X179270D01*
Y289270D01*
X185040D01*
Y292540D01*
D02*
G37*
G36*
X92040D02*
X86270D01*
Y289270D01*
X92040D01*
Y292540D01*
D02*
G37*
G36*
X176730D02*
X170960D01*
Y289270D01*
X176730D01*
Y292540D01*
D02*
G37*
G36*
X83730D02*
X77960D01*
Y289270D01*
X83730D01*
Y292540D01*
D02*
G37*
G36*
X92040Y286730D02*
X86270D01*
Y283460D01*
X92040D01*
Y286730D01*
D02*
G37*
G36*
X83730D02*
X77960D01*
Y284245D01*
X77800Y284105D01*
X71320D01*
Y277770D01*
X72390D01*
Y283210D01*
X82550D01*
X82973Y282787D01*
X83202Y283460D01*
X83730D01*
Y286730D01*
D02*
G37*
G36*
X147650Y284940D02*
X144130D01*
Y280670D01*
X147650D01*
Y284940D01*
D02*
G37*
G36*
X83820Y281040D02*
Y277770D01*
X85238D01*
X85146Y278468D01*
X84386Y280303D01*
X83820Y281040D01*
D02*
G37*
G36*
X68780Y284105D02*
X62300D01*
X60332Y283846D01*
X58498Y283086D01*
X56922Y281878D01*
X55714Y280303D01*
X54954Y278468D01*
X54862Y277770D01*
X68780D01*
Y284105D01*
D02*
G37*
G36*
X44250Y284609D02*
X39020D01*
Y277770D01*
X52192D01*
X52083Y278599D01*
X51273Y280555D01*
X49984Y282234D01*
X48305Y283523D01*
X46349Y284333D01*
X44250Y284609D01*
D02*
G37*
G36*
X36480D02*
X31250D01*
X29151Y284333D01*
X27195Y283523D01*
X25516Y282234D01*
X24227Y280555D01*
X23417Y278599D01*
X23308Y277770D01*
X36480D01*
Y284609D01*
D02*
G37*
G36*
X113110Y281130D02*
X109340D01*
Y276860D01*
X113110D01*
Y281130D01*
D02*
G37*
G36*
X147650Y278130D02*
X144130D01*
Y273860D01*
X147650D01*
Y278130D01*
D02*
G37*
G36*
X85238Y275230D02*
X83820D01*
Y271960D01*
X84386Y272698D01*
X85146Y274532D01*
X85238Y275230D01*
D02*
G37*
G36*
X113110Y274320D02*
X109340D01*
Y270050D01*
X113110D01*
Y274320D01*
D02*
G37*
G36*
X152280Y243030D02*
X148510D01*
Y238760D01*
X152280D01*
Y243030D01*
D02*
G37*
G36*
X300730Y319474D02*
X300140Y319356D01*
X299093Y318657D01*
X298394Y317610D01*
X298227Y316770D01*
X300730D01*
Y319474D01*
D02*
G37*
G36*
X294020Y314150D02*
X290500D01*
Y309880D01*
X294020D01*
Y314150D01*
D02*
G37*
G36*
X245275Y326620D02*
X241135D01*
Y322580D01*
Y318540D01*
X245275D01*
Y322580D01*
Y326620D01*
D02*
G37*
G36*
X334730Y254355D02*
X331960D01*
Y251835D01*
X334730D01*
Y254355D01*
D02*
G37*
G36*
X359540Y263540D02*
X356020D01*
Y259270D01*
X359540D01*
Y263540D01*
D02*
G37*
G36*
X278110Y204700D02*
X275590D01*
Y201930D01*
X278110D01*
Y204700D01*
D02*
G37*
G36*
X184150Y220360D02*
X179880D01*
Y216840D01*
X184150D01*
Y220360D01*
D02*
G37*
G36*
X109100Y206200D02*
X105330D01*
Y201930D01*
X109100D01*
Y206200D01*
D02*
G37*
G36*
X131805Y206590D02*
X129815D01*
X127978Y205829D01*
X126571Y204422D01*
X125810Y202585D01*
Y200595D01*
X126571Y198758D01*
X127978Y197351D01*
X129815Y196590D01*
X131805D01*
X133642Y197351D01*
X135049Y198758D01*
X135810Y200595D01*
Y202585D01*
X135049Y204422D01*
X133642Y205829D01*
X131805Y206590D01*
D02*
G37*
G36*
X109100Y199390D02*
X105330D01*
Y195120D01*
X109100D01*
Y199390D01*
D02*
G37*
G36*
X83290Y188730D02*
X82550D01*
Y186270D01*
X83290D01*
Y188730D01*
D02*
G37*
G36*
Y183730D02*
X82550D01*
Y181270D01*
X83290D01*
Y183730D01*
D02*
G37*
G36*
Y178730D02*
X82550D01*
Y175960D01*
X83290D01*
Y178730D01*
D02*
G37*
G36*
X94975Y180260D02*
X92985D01*
X91148Y179499D01*
X89741Y178092D01*
X88980Y176255D01*
Y174265D01*
X89741Y172428D01*
X91148Y171021D01*
X92985Y170260D01*
X94975D01*
X96812Y171021D01*
X98219Y172428D01*
X98980Y174265D01*
Y176255D01*
X98219Y178092D01*
X96812Y179499D01*
X94975Y180260D01*
D02*
G37*
G36*
X40629Y154730D02*
X35270D01*
Y149371D01*
X36000D01*
X37771Y149723D01*
X39273Y150727D01*
X40277Y152229D01*
X40629Y154000D01*
Y154730D01*
D02*
G37*
G36*
X32730D02*
X27371D01*
Y154000D01*
X27723Y152229D01*
X28727Y150727D01*
X30229Y149723D01*
X32000Y149371D01*
X32730D01*
Y154730D01*
D02*
G37*
G36*
X28000Y140000D02*
X27034Y139355D01*
X26395Y139620D01*
X24405D01*
X22568Y138859D01*
X21161Y137452D01*
X20400Y135615D01*
Y133625D01*
X21161Y131788D01*
X22568Y130381D01*
X24405Y129620D01*
X26395D01*
X26944Y129848D01*
X28000Y129142D01*
Y128000D01*
X40000D01*
Y140000D01*
X28000D01*
Y140000D01*
D02*
G37*
G36*
X82202Y132730D02*
X80358D01*
X78578Y132253D01*
X76982Y131331D01*
X75679Y130028D01*
X74757Y128432D01*
X74280Y126652D01*
Y124808D01*
X74757Y123028D01*
X75679Y121432D01*
X76982Y120129D01*
X78578Y119207D01*
X80358Y118730D01*
X82202D01*
X83982Y119207D01*
X85578Y120129D01*
X86881Y121432D01*
X87803Y123028D01*
X88280Y124808D01*
Y126652D01*
X87803Y128432D01*
X86881Y130028D01*
X85578Y131331D01*
X83982Y132253D01*
X82202Y132730D01*
D02*
G37*
G36*
X355605Y201730D02*
X353085D01*
Y198960D01*
X355605D01*
Y201730D01*
D02*
G37*
G36*
X360730Y152102D02*
X360125D01*
X358890Y151856D01*
X357843Y151157D01*
X357144Y150110D01*
X356898Y148875D01*
Y148270D01*
X360730D01*
Y152102D01*
D02*
G37*
%LPD*%
D10*
X171112Y323850D02*
X190500D01*
X163492Y316230D02*
X171112Y323850D01*
X128755Y318500D02*
X131025Y316230D01*
X113750Y318500D02*
X128755D01*
X131025Y316230D02*
X163492D01*
X240220Y260870D02*
Y263120D01*
X231220Y271280D02*
X234830Y267670D01*
X235517D01*
X231220Y271280D02*
Y271780D01*
X235517Y267670D02*
X237457Y265730D01*
X237610D01*
X240220Y263120D01*
D11*
X124130Y236740D02*
X130810Y230060D01*
Y224625D02*
Y230060D01*
X124130Y236740D02*
Y237490D01*
X123835Y218215D02*
X124410Y217641D01*
X118930Y218685D02*
X119400Y218215D01*
X114045Y223195D02*
X117190D01*
X118680Y218685D02*
X118930D01*
X119400Y218215D02*
X123835D01*
X111680Y225560D02*
X114045Y223195D01*
X118430Y218685D02*
X118680D01*
X118930Y224685D02*
X124045D01*
X124410Y225049D01*
X299500Y151520D02*
X301160Y149860D01*
X313690D01*
X316500Y152670D02*
Y157750D01*
X318500Y159750D01*
X313690Y149860D02*
X316500Y152670D01*
X247735Y227415D02*
X255415D01*
X247963Y227837D02*
X248050Y227750D01*
X242487Y227837D02*
X247963D01*
X242400Y227924D02*
X242487Y227837D01*
X277450Y142115D02*
X285195Y149860D01*
X290830D01*
X154940Y147320D02*
X247650D01*
X150590Y144050D02*
X259615D01*
X261550Y142115D01*
X247650Y147320D02*
X257810Y157480D01*
X137700Y156940D02*
X150590Y144050D01*
X261550Y142115D02*
X277450D01*
X140970Y161290D02*
X154940Y147320D01*
X158750Y232222D02*
X161290Y234762D01*
X158750Y231140D02*
Y232222D01*
X161290Y234762D02*
Y248920D01*
X255415Y227415D02*
X255500Y227500D01*
X255170Y232830D02*
X255500Y232500D01*
X118430Y224435D02*
X118680D01*
X111680Y225560D02*
Y226060D01*
X117190Y223195D02*
X118430Y224435D01*
X323178Y228790D02*
X323850D01*
X304850Y227150D02*
X309493D01*
X304500Y227500D02*
X304850Y227150D01*
X321179Y226790D02*
X323178Y228790D01*
X314117Y226790D02*
X321179D01*
X313962Y226635D02*
X314117Y226790D01*
X309493Y227150D02*
X310008Y226635D01*
X313962D01*
X117190Y219925D02*
X118430Y218685D01*
X114045Y219925D02*
X117190D01*
X111680Y217560D02*
X114045Y219925D01*
X111680Y217060D02*
Y217560D01*
X315317Y223365D02*
X315472Y223520D01*
X321179D01*
X310008Y223365D02*
X315317D01*
X309493Y222850D02*
X310008Y223365D01*
X304500Y222500D02*
X304850Y222850D01*
X309493D01*
X321179Y223520D02*
X323178Y221520D01*
X323850D01*
X118680Y224435D02*
X118930Y224685D01*
X155855Y171805D02*
X156210Y171450D01*
X155855Y171805D02*
Y179765D01*
X155500Y180120D02*
X155855Y179765D01*
X140970Y170576D02*
X145000Y174606D01*
X137700Y156940D02*
Y171990D01*
X140970Y161290D02*
Y170576D01*
X149131Y170975D02*
Y171786D01*
X137700Y171990D02*
X140000Y174290D01*
X149131Y171786D02*
X150500Y173155D01*
Y180120D01*
X86845Y224344D02*
X95795D01*
X85185Y230250D02*
X85435Y230500D01*
X76500Y230250D02*
X85185D01*
X86188Y225000D02*
X86845Y224344D01*
X76250Y230000D02*
X76500Y230250D01*
X90245Y217095D02*
X101645D01*
X87340Y220000D02*
X90245Y217095D01*
X76250Y220000D02*
X87340D01*
X76250Y225000D02*
X86188D01*
X101645Y217095D02*
X101680Y217060D01*
X95946Y208854D02*
X96520Y208280D01*
X76250Y215000D02*
X87260D01*
X93406Y208854D02*
X95946D01*
X87260Y215000D02*
X93406Y208854D01*
X140000Y174290D02*
Y179620D01*
X140500Y180120D01*
X145000Y174606D02*
Y179620D01*
X145500Y180120D01*
X64750Y147000D02*
X72050Y139700D01*
X104140D01*
X25400Y134620D02*
X33380D01*
X34000Y134000D01*
X33895Y156105D02*
X34000Y156000D01*
X25505Y156105D02*
X33895D01*
X25400Y156210D02*
X25505Y156105D01*
X50000Y134000D02*
X58000Y126000D01*
X64500D01*
X51000Y157000D02*
X64250D01*
X50000Y156000D02*
X51000Y157000D01*
X64250Y136250D02*
X64500Y136000D01*
X64250Y136250D02*
Y147000D01*
X64750D01*
X135290Y248920D02*
X137240Y246970D01*
Y237490D02*
Y246970D01*
X95250Y224790D02*
X100410D01*
X101680Y226060D01*
D13*
X101520Y236220D02*
X107950D01*
X84425Y210000D02*
X88230Y206195D01*
X89025D01*
X94060Y201160D01*
X76250Y210000D02*
X84425D01*
X94060Y200660D02*
Y201160D01*
X88240Y240000D02*
X91520Y236720D01*
X76250Y240000D02*
X88240D01*
X91520Y236220D02*
Y236720D01*
D14*
X167640Y225400D02*
D03*
X174140Y206400D02*
D03*
D15*
X161140D02*
D03*
D17*
X255500Y247500D02*
D03*
Y242500D02*
D03*
Y257500D02*
D03*
Y252500D02*
D03*
Y237500D02*
D03*
X304500Y257500D02*
D03*
Y252500D02*
D03*
Y247500D02*
D03*
Y242500D02*
D03*
X255500Y232500D02*
D03*
Y227500D02*
D03*
Y222500D02*
D03*
X304500Y237500D02*
D03*
Y232500D02*
D03*
Y227500D02*
D03*
Y222500D02*
D03*
D18*
X262500Y215500D02*
D03*
X267500D02*
D03*
X272500D02*
D03*
X277500D02*
D03*
X282500D02*
D03*
X287500D02*
D03*
X292500D02*
D03*
X297500D02*
D03*
X292500Y264500D02*
D03*
X287500D02*
D03*
X282500D02*
D03*
X277500D02*
D03*
X272500D02*
D03*
X267500D02*
D03*
X262500D02*
D03*
D19*
X297500D02*
D03*
D20*
X336000Y255625D02*
D03*
Y260375D02*
D03*
X130810Y219875D02*
D03*
Y224625D02*
D03*
X118680Y229185D02*
D03*
Y224435D02*
D03*
Y213935D02*
D03*
Y218685D02*
D03*
X301750Y302125D02*
D03*
Y297375D02*
D03*
X337250Y152875D02*
D03*
Y157625D02*
D03*
D21*
X346000Y198000D02*
D03*
X336000D02*
D03*
X241220Y271780D02*
D03*
X231220D02*
D03*
X113750Y318500D02*
D03*
X103750D02*
D03*
X114380Y275590D02*
D03*
X124380D02*
D03*
X137240Y237490D02*
D03*
X147240D02*
D03*
X91520Y236220D02*
D03*
X101520D02*
D03*
X101680Y226060D02*
D03*
X111680D02*
D03*
Y217060D02*
D03*
X101680D02*
D03*
X104060Y200660D02*
D03*
X94060D02*
D03*
X203280Y322580D02*
D03*
X213280D02*
D03*
X336000Y188000D02*
D03*
X346000D02*
D03*
D22*
X237655Y209550D02*
D03*
X242405D02*
D03*
X261290Y276860D02*
D03*
X256540D02*
D03*
X237650Y227924D02*
D03*
X242400D02*
D03*
X233845Y252730D02*
D03*
X238595D02*
D03*
X246545Y322580D02*
D03*
X251295D02*
D03*
X239865D02*
D03*
X235115D02*
D03*
X331305Y147320D02*
D03*
X326555D02*
D03*
X361625Y203000D02*
D03*
X356875D02*
D03*
X348375Y248750D02*
D03*
X353125D02*
D03*
X284645Y299720D02*
D03*
X289395D02*
D03*
X269570Y200660D02*
D03*
X274320D02*
D03*
D23*
X231470Y261620D02*
D03*
X240970D02*
D03*
X148920Y279400D02*
D03*
X158420D02*
D03*
X114630Y237490D02*
D03*
X124130D02*
D03*
X289230Y308610D02*
D03*
X279730D02*
D03*
X309550Y199390D02*
D03*
X300050D02*
D03*
X281000Y283210D02*
D03*
X290500D02*
D03*
X345250Y258000D02*
D03*
X354750D02*
D03*
X269570Y191770D02*
D03*
X279070D02*
D03*
X243510Y200660D02*
D03*
X234010D02*
D03*
D24*
X185420Y206070D02*
D03*
Y215570D02*
D03*
D25*
X312750Y310019D02*
D03*
X289770Y292100D02*
D03*
D26*
X307250Y310019D02*
D03*
X284270Y292100D02*
D03*
D27*
X302000Y310000D02*
D03*
D28*
Y315500D02*
D03*
D29*
X144780Y193167D02*
D03*
D30*
Y225933D02*
D03*
D31*
X76250Y255000D02*
D03*
Y245000D02*
D03*
Y235000D02*
D03*
Y225000D02*
D03*
Y215000D02*
D03*
Y205000D02*
D03*
Y195000D02*
D03*
Y185000D02*
D03*
Y190000D02*
D03*
Y200000D02*
D03*
Y210000D02*
D03*
Y220000D02*
D03*
Y230000D02*
D03*
Y240000D02*
D03*
Y250000D02*
D03*
Y260000D02*
D03*
Y180000D02*
D03*
D32*
Y265000D02*
D03*
D33*
X64500Y136000D02*
D03*
Y126000D02*
D03*
X64250Y147000D02*
D03*
Y157000D02*
D03*
D34*
X34000Y134000D02*
D03*
X50000Y156000D02*
D03*
D35*
X50000Y134000D02*
D03*
X34000Y156000D02*
D03*
D36*
X276860Y320040D02*
D03*
X81280Y125730D02*
D03*
D37*
X135500Y180120D02*
D03*
D38*
X140500D02*
D03*
X145500D02*
D03*
X150500D02*
D03*
X155500D02*
D03*
X160500D02*
D03*
X165500D02*
D03*
X170500D02*
D03*
X175500D02*
D03*
X180500D02*
D03*
X185500D02*
D03*
X190500D02*
D03*
X195500D02*
D03*
X200500D02*
D03*
X205500D02*
D03*
X210500D02*
D03*
X215500D02*
D03*
X220500D02*
D03*
X225500D02*
D03*
X230500D02*
D03*
X235500D02*
D03*
X240500D02*
D03*
X245500D02*
D03*
X250500D02*
D03*
D39*
X110500Y163865D02*
D03*
X275500D02*
D03*
D40*
X121250Y305000D02*
D03*
X196750D02*
D03*
X103750D02*
D03*
X28250D02*
D03*
D41*
X178000Y288000D02*
D03*
X140000Y322000D02*
D03*
X47000D02*
D03*
X85000Y288000D02*
D03*
D42*
X361750Y238250D02*
D03*
Y215250D02*
D03*
X344250D02*
D03*
D43*
Y238250D02*
D03*
D44*
X218440Y304800D02*
D03*
X259080D02*
D03*
D45*
X338000Y147000D02*
D03*
Y139000D02*
D03*
Y131000D02*
D03*
Y123000D02*
D03*
X362000D02*
D03*
Y131000D02*
D03*
Y139000D02*
D03*
D46*
Y147000D02*
D03*
D47*
X161290Y248920D02*
D03*
D48*
Y258420D02*
D03*
Y267920D02*
D03*
X135290D02*
D03*
Y248920D02*
D03*
D49*
X299500Y159750D02*
D03*
D50*
X309000D02*
D03*
X318500D02*
D03*
Y185750D02*
D03*
X299500D02*
D03*
D51*
X94615Y254000D02*
D03*
X121285D02*
D03*
D52*
X357000Y310000D02*
D03*
X323000D02*
D03*
D91*
X37750Y168500D02*
D03*
Y276500D02*
D03*
D92*
X70050Y168500D02*
D03*
Y276500D02*
D03*
D94*
X297500Y264500D02*
G03*
X301750Y274760I-10260J10260D01*
G01*
X302000Y303059D02*
Y310000D01*
X302019Y310019D02*
X307250D01*
X312750Y310000D02*
X323000D01*
X301750Y274760D02*
Y296407D01*
X301646Y296512D02*
X301750Y296407D01*
X302000Y310000D02*
X302019Y310019D01*
D95*
X280000Y240000D02*
D03*
D96*
X140290Y322290D02*
X148300D01*
X140000Y322000D02*
X140290Y322290D01*
X148300D02*
X148590Y322580D01*
X361950Y238450D02*
Y248920D01*
X361750Y238250D02*
X361950Y238450D01*
X251460Y277960D02*
X251843Y277577D01*
X255823D02*
X256540Y276860D01*
X251843Y277577D02*
X255823D01*
X178675Y214820D02*
X184670D01*
X177180Y213867D02*
X177721D01*
X184670Y214820D02*
X185420Y215570D01*
X177721Y213867D02*
X178675Y214820D01*
X170500Y171620D02*
X172720Y169400D01*
X170500Y171620D02*
Y180120D01*
X172720Y168910D02*
Y169400D01*
X343820Y139350D02*
X344170Y139700D01*
X338000Y139000D02*
X338350Y139350D01*
X343820D01*
X246150Y217170D02*
X255270Y208050D01*
X241300Y217170D02*
X246150D01*
X237655Y213525D02*
X241300Y217170D01*
X237655Y209550D02*
Y213525D01*
X262500Y204080D02*
Y215500D01*
X243510Y200660D02*
X259080D01*
X262500Y204080D01*
X219710Y226060D02*
X228687D01*
X219439Y226331D02*
X219710Y226060D01*
X228687D02*
X229956Y224790D01*
X232442D01*
X239865Y322580D02*
X246545D01*
X239865Y317665D02*
X240030Y317500D01*
X239865Y317665D02*
Y322580D01*
X234760Y201410D02*
Y206655D01*
X234010Y200660D02*
X234760Y201410D01*
Y206655D02*
X237655Y209550D01*
X281557Y205357D02*
X281940Y205740D01*
X279606Y200660D02*
X281557Y202612D01*
X274320Y200660D02*
X279606D01*
X281557Y202612D02*
Y205357D01*
X147240Y237490D02*
Y252650D01*
X152400Y257810D01*
X130810Y212090D02*
Y219875D01*
X104060Y201160D02*
X107567Y204667D01*
Y206627D01*
X107950Y207010D01*
X104060Y200660D02*
Y201160D01*
X118997Y209933D02*
Y213618D01*
Y209933D02*
X119380Y209550D01*
X118680Y213935D02*
X118997Y213618D01*
X94521Y166370D02*
X97026Y163865D01*
X93980Y166370D02*
X94521D01*
X97026Y163865D02*
X110500D01*
X114630Y236740D02*
X118680Y232690D01*
Y229185D02*
Y232690D01*
X114630Y236740D02*
Y237490D01*
X109603Y244727D02*
Y247267D01*
X113880Y238240D02*
Y240450D01*
X109603Y244727D02*
X113880Y240450D01*
Y238240D02*
X114630Y237490D01*
X109220Y247650D02*
X109603Y247267D01*
X82500Y288000D02*
X85000D01*
X76243Y294257D02*
X82500Y288000D01*
X72773Y294257D02*
X76243D01*
X72390Y294640D02*
X72773Y294257D01*
X28250Y305000D02*
X28450Y304800D01*
X39370D01*
X46990Y316230D02*
Y321990D01*
X47000Y322000D01*
X139700Y321700D02*
X140000Y322000D01*
X121450Y304800D02*
X132080D01*
X121250Y305000D02*
X121450Y304800D01*
X107950Y275590D02*
X114380D01*
X114942Y276152D01*
Y280892D02*
X119800Y285750D01*
X114942Y276152D02*
Y280892D01*
X119800Y285750D02*
X142570D01*
X148170Y280900D02*
X148920Y280150D01*
X142570Y285750D02*
X147420Y280900D01*
X148920Y279400D02*
Y280150D01*
X147420Y280900D02*
X148170D01*
X177800Y288200D02*
X178000Y288000D01*
X177800Y288200D02*
Y295910D01*
X277243Y287717D02*
Y292987D01*
X281000Y283210D02*
Y283960D01*
X277243Y287717D02*
X281000Y283960D01*
X276860Y293370D02*
X277243Y292987D01*
X226272Y264939D02*
X226443Y264768D01*
X229072D01*
X231470Y262370D01*
Y261620D02*
Y262370D01*
X229870Y252730D02*
X233845D01*
X217170Y170180D02*
Y170721D01*
X215500Y172391D02*
X217170Y170721D01*
X215500Y172391D02*
Y180120D01*
X356870Y196850D02*
Y202995D01*
X356875Y203000D01*
X344250Y214000D02*
X355250Y203000D01*
X344250Y214000D02*
Y215250D01*
X355250Y203000D02*
X356875D01*
X353125Y248750D02*
X361780D01*
X361950Y248920D01*
X354845Y257905D02*
X360585D01*
X360680Y257810D01*
X354750Y258000D02*
X354845Y257905D01*
X336000Y255625D02*
X336167Y255458D01*
Y251843D02*
Y255458D01*
Y251843D02*
X336550Y251460D01*
X331970Y160020D02*
X332011D01*
X334406Y157625D01*
X308610Y168910D02*
X308805Y168715D01*
Y159945D02*
X309000Y159750D01*
X308805Y159945D02*
Y168715D01*
X279070Y191770D02*
Y192520D01*
X288290Y201740D01*
Y202250D01*
X261620Y185240D02*
Y185420D01*
X256500Y180120D02*
X261620Y185240D01*
X309550Y199390D02*
X309715Y199555D01*
Y205575D01*
X309880Y205740D01*
X325470Y157130D02*
X329725Y152875D01*
X334406Y157625D02*
X337250D01*
X329725Y152875D02*
X337250D01*
X321358Y149750D02*
X321851D01*
X324281Y147320D01*
X326555D01*
X356870Y152130D02*
X362000Y147000D01*
X356870Y152130D02*
Y152400D01*
X344075Y123095D02*
X344170Y123190D01*
X338000Y123000D02*
X338095Y123095D01*
X344075D01*
X289395Y299720D02*
X294640D01*
X289395Y316065D02*
X289560Y316230D01*
X289230Y308610D02*
X289395Y308775D01*
Y316065D01*
X301843Y315343D02*
X302000Y315500D01*
X297563Y315343D02*
X301843D01*
X297180Y314960D02*
X297563Y315343D01*
X289770Y283940D02*
Y292100D01*
Y283940D02*
X290500Y283210D01*
X245665Y247500D02*
X255500D01*
X240215Y251110D02*
X242055D01*
X238595Y252730D02*
X240215Y251110D01*
X242055D02*
X245665Y247500D01*
X238595Y252730D02*
Y254700D01*
X232442Y224790D02*
X235575Y227924D01*
X237650D01*
X269570Y191770D02*
Y200660D01*
X267500Y202730D02*
X269570Y200660D01*
X267500Y202730D02*
Y215500D01*
X262500D02*
X267500D01*
X242405Y209550D02*
X243510Y208445D01*
Y200660D02*
Y208445D01*
X250500Y180120D02*
X256500D01*
X247633Y187420D02*
X254730D01*
X260350Y193040D01*
X337250Y147750D02*
X337875Y147125D01*
X337250Y147750D02*
Y152875D01*
X249807Y193037D02*
X250190Y193420D01*
X240500Y187160D02*
X246377Y193037D01*
X249807D01*
X240500Y180120D02*
Y187160D01*
X245500Y185287D02*
X247633Y187420D01*
X245500Y180120D02*
Y185287D01*
X237107Y190121D02*
Y192657D01*
X237490Y193040D01*
X235500Y180120D02*
Y188514D01*
X237107Y190121D01*
X230500Y180120D02*
Y191687D01*
X230344Y191843D02*
X230500Y191687D01*
X223372Y190431D02*
X225500Y188303D01*
X223372Y190431D02*
Y190972D01*
X225500Y180120D02*
Y188303D01*
X215900Y189959D02*
Y190500D01*
Y189959D02*
X220500Y185359D01*
Y180120D02*
Y185359D01*
X238595Y254700D02*
X240220Y256325D01*
Y260870D01*
D97*
X198120Y217170D02*
X207290D01*
X212139Y222020D01*
X251295Y317284D02*
X259080Y309499D01*
X251295Y317284D02*
Y322580D01*
X259080Y304800D02*
Y309499D01*
X234615Y321830D02*
X235115Y322330D01*
X224040Y315099D02*
X227634D01*
X235115Y322330D02*
Y322580D01*
X234365Y321830D02*
X234615D01*
X227634Y315099D02*
X234365Y321830D01*
X218440Y309499D02*
X224040Y315099D01*
X218440Y304800D02*
Y309499D01*
X229870Y213360D02*
X239010Y222500D01*
X255500D01*
X199390Y213360D02*
X229870D01*
X103750Y305000D02*
X103750Y305000D01*
Y318500D01*
X199000Y305000D02*
X203280Y309280D01*
Y322580D01*
X196750Y305000D02*
X199000D01*
X109220Y292100D02*
X146050D01*
X103750Y297570D02*
X109220Y292100D01*
X267475Y276924D02*
Y277811D01*
X258266Y287020D02*
X267475Y277811D01*
X242570Y287020D02*
X258266D01*
X267701Y277585D02*
X272500Y272786D01*
X218440Y283210D02*
X257810D01*
X236971Y279400D02*
X241220Y275151D01*
X227084Y279400D02*
X236971D01*
X209989Y280670D02*
X212699Y277960D01*
X225644D01*
X227084Y279400D01*
X331470Y181610D02*
X332140Y182280D01*
Y183640D01*
X336000Y187500D01*
Y188000D01*
X330700Y203800D02*
X336000Y198500D01*
X326390Y204470D02*
X327060Y203800D01*
X330700D01*
X243717Y289790D02*
X263255D01*
X272580Y280466D01*
X275350Y279748D02*
Y283831D01*
X259080Y300101D02*
Y304800D01*
X272580Y278600D02*
X276900Y274280D01*
X259080Y300101D02*
X275350Y283831D01*
X272580Y278600D02*
Y280466D01*
X275350Y279748D02*
X282500Y272597D01*
X276900Y265100D02*
Y274280D01*
X282500Y264500D02*
Y272597D01*
X266900Y265100D02*
Y269895D01*
X261289Y276861D02*
Y279731D01*
X262225Y274820D02*
Y277065D01*
X261735Y277555D02*
X262225Y277065D01*
X262725Y274070D02*
X266900Y269895D01*
X262225Y274820D02*
X262725Y274320D01*
Y274070D02*
Y274320D01*
X257810Y283210D02*
X261289Y279731D01*
Y276861D02*
X261290Y276860D01*
X361625Y215125D02*
X361750Y215250D01*
X361625Y203000D02*
Y215125D01*
X344250Y238250D02*
Y240515D01*
X348375Y244640D02*
Y248750D01*
X344250Y240515D02*
X348375Y244640D01*
X331470Y237490D02*
X343490D01*
X344250Y238250D01*
X321460Y247500D02*
X331470Y237490D01*
X304500Y247500D02*
X321460D01*
X357250Y221000D02*
X361750Y216500D01*
X350940Y226060D02*
X356000Y221000D01*
X361750Y215250D02*
Y216500D01*
X356000Y221000D02*
X357250D01*
X334010Y226060D02*
X350940D01*
X304500Y242500D02*
X317570D01*
X334010Y226060D01*
X103750Y297570D02*
Y305000D01*
X196750D02*
X196850Y304900D01*
Y297180D02*
Y304900D01*
X228287Y238594D02*
X241614D01*
X242708Y237500D02*
X255500D01*
X241614Y238594D02*
X242708Y237500D01*
X239707Y245110D02*
X242434Y242383D01*
X255383D01*
X238760Y245110D02*
X239707D01*
X249200Y252615D02*
X255385D01*
X246545Y255270D02*
X249200Y252615D01*
X246380Y255270D02*
X246545D01*
X255385Y252615D02*
X255500Y252500D01*
X237500Y233000D02*
X255000D01*
X225442Y232870D02*
X237370D01*
X237500Y233000D01*
X224790Y232218D02*
X225442Y232870D01*
X255383Y242383D02*
X255500Y242500D01*
X193040Y212090D02*
X198120Y217170D01*
X196325Y210295D02*
X199390Y213360D01*
X336000Y198000D02*
Y198500D01*
X361810Y123190D02*
X362000Y123000D01*
X355600Y123190D02*
X361810D01*
X355600Y130810D02*
X361810D01*
X362000Y131000D01*
X255000Y233000D02*
X255170Y232830D01*
X241220Y271780D02*
Y275151D01*
X193040Y280670D02*
X209989D01*
X241130Y288460D02*
X242570Y287020D01*
X193210Y288460D02*
X241130D01*
X239006Y294501D02*
X243717Y289790D01*
X224040Y294501D02*
X239006D01*
X178229Y273479D02*
X193210Y288460D01*
X218440Y300101D02*
X224040Y294501D01*
X218440Y300101D02*
Y304800D01*
X266900Y265100D02*
X267500Y264500D01*
X243192Y271780D02*
X251460D01*
X258740Y264500D01*
X272500D02*
Y272786D01*
X276900Y265100D02*
X277500Y264500D01*
X176015Y186370D02*
X193040Y203395D01*
X196325Y202763D02*
Y210295D01*
X180500Y186938D02*
X196325Y202763D01*
X193040Y203395D02*
Y212090D01*
X176015Y180635D02*
Y186370D01*
X180500Y180120D02*
Y186938D01*
X258740Y264500D02*
X262500D01*
X248920Y265273D02*
Y265430D01*
Y265273D02*
X252200Y261992D01*
X204275Y187960D02*
X208497D01*
X209157Y188620D01*
X252200Y258100D02*
X252800Y257500D01*
X252200Y258100D02*
Y261992D01*
X195500Y180120D02*
Y186646D01*
X199095Y201583D02*
Y203583D01*
X185566Y188054D02*
X199095Y201583D01*
X185566Y180186D02*
Y188054D01*
X197746Y196317D02*
X201380D01*
X195500Y186646D02*
X199373Y190518D01*
X202985Y186670D02*
X204275Y187960D01*
X201380Y196317D02*
X202050Y196986D01*
X190500Y189070D02*
X197746Y196317D01*
X201250Y184976D02*
X202944Y186670D01*
X201250Y180870D02*
Y184976D01*
X190500Y180120D02*
Y189070D01*
X202944Y186670D02*
X202985D01*
X200500Y180120D02*
X201250Y180870D01*
X252800Y257500D02*
X255500D01*
X199095Y203583D02*
X201575Y206063D01*
Y207010D01*
X185500Y180120D02*
X185566Y180186D01*
X175500Y180120D02*
X176015Y180635D01*
X304545Y232455D02*
X314915D01*
X304500Y232500D02*
X304545Y232455D01*
X314915D02*
X314960Y232410D01*
D98*
X269930Y308610D02*
X279730D01*
X224790Y271780D02*
X231220D01*
X213280Y322580D02*
X219710D01*
X321310Y261620D02*
X342380D01*
X331772Y172720D02*
X342300Y183248D01*
Y183800D01*
X346000Y187500D01*
X321310Y172720D02*
X331772D01*
X346000Y187500D02*
Y188000D01*
X321310Y172720D02*
X325470Y168560D01*
Y157130D02*
Y168560D01*
X314960Y172720D02*
X321310D01*
X311087Y176593D02*
X314960Y172720D01*
X299500Y183250D02*
X306157Y176593D01*
X299500Y183250D02*
Y185750D01*
X306157Y176593D02*
X311087D01*
X338000Y131000D02*
X345630D01*
X353630Y139000D02*
X362000D01*
X345630Y131000D02*
X353630Y139000D01*
X279980Y304385D02*
Y308360D01*
X284270Y292100D02*
Y300095D01*
X279980Y304385D02*
X284270Y300095D01*
X279730Y308610D02*
X279980Y308360D01*
X345250Y258000D02*
Y258750D01*
X342380Y261620D02*
X345250Y258750D01*
X320065Y260375D02*
X321310Y261620D01*
X331470Y144780D02*
X333815Y147125D01*
X337875D01*
X331470Y134620D02*
Y144780D01*
X337500Y131500D02*
X338000Y131000D01*
X334590Y131500D02*
X337500D01*
X331470Y134620D02*
X334590Y131500D01*
D99*
X303530Y255270D02*
X314960D01*
X285750Y181115D02*
X287795D01*
X272499D02*
X285750D01*
X299500Y185749D02*
Y185750D01*
X291929Y185249D02*
X299000D01*
X299500Y185749D01*
X287795Y181115D02*
X291929Y185249D01*
X269570Y184044D02*
X272499Y181115D01*
X269570Y184044D02*
Y191770D01*
X317512Y257822D02*
X320065Y260375D01*
X314960Y255270D02*
X317512Y257822D01*
X346000Y198000D02*
Y203690D01*
X345440Y204250D02*
X346000Y203690D01*
Y188000D02*
Y198000D01*
X290000Y264500D02*
X290500Y265000D01*
Y283210D01*
X299500Y198590D02*
X300050Y199140D01*
X299500Y185750D02*
Y198590D01*
X300050Y199140D02*
Y199390D01*
D100*
X208280Y170180D02*
Y181071D01*
X299500Y151520D02*
Y159750D01*
Y143290D02*
Y151520D01*
X297180Y140970D02*
X299500Y143290D01*
X181610Y199390D02*
Y206070D01*
X174470D02*
X181610D01*
X174140Y203350D02*
Y206400D01*
X167640Y196850D02*
X174140Y203350D01*
X149987Y196850D02*
X167640D01*
X152710Y258120D02*
X160990D01*
X152400Y257810D02*
X152710Y258120D01*
X160990D02*
X161290Y258420D01*
X146304Y193167D02*
X149987Y196850D01*
X144780Y193167D02*
X146304D01*
X174140Y206400D02*
X174470Y206070D01*
D101*
X167640Y225400D02*
X170180Y227940D01*
Y232410D01*
D102*
X280000Y240000D02*
D03*
X273000Y233000D02*
D03*
X280000D02*
D03*
X287000D02*
D03*
Y240000D02*
D03*
X273000D02*
D03*
Y247000D02*
D03*
X280000D02*
D03*
X287000D02*
D03*
X59690Y304800D02*
D03*
X316230Y213360D02*
D03*
X294640Y123190D02*
D03*
X105410Y125730D02*
D03*
X81280Y151130D02*
D03*
X148590Y322580D02*
D03*
X251460Y277960D02*
D03*
X177180Y213867D02*
D03*
X157480Y213360D02*
D03*
X172720Y168910D02*
D03*
X130810Y153670D02*
D03*
X165100D02*
D03*
X344170Y139700D02*
D03*
X255270Y208050D02*
D03*
X219439Y226331D02*
D03*
X212139Y222020D02*
D03*
X240030Y317500D02*
D03*
X215900Y190500D02*
D03*
X130810Y212090D02*
D03*
Y201590D02*
D03*
X124410Y217641D02*
D03*
Y225049D02*
D03*
X107950Y207010D02*
D03*
X119380Y209550D02*
D03*
X128270Y161290D02*
D03*
X93980Y166370D02*
D03*
X85818Y197809D02*
D03*
X109220Y247650D02*
D03*
X83820Y311150D02*
D03*
X72390Y294640D02*
D03*
X39370Y304800D02*
D03*
X46990Y316230D02*
D03*
X190500Y323850D02*
D03*
X132080Y304800D02*
D03*
X107950Y275590D02*
D03*
X177800Y295910D02*
D03*
X176530Y312420D02*
D03*
X276860Y293370D02*
D03*
X267475Y276924D02*
D03*
X269930Y308610D02*
D03*
X224790Y271780D02*
D03*
X226272Y264939D02*
D03*
X218440Y283210D02*
D03*
X219710Y322580D02*
D03*
X229870Y252730D02*
D03*
X285750Y181115D02*
D03*
X217170Y170180D02*
D03*
X356870Y196850D02*
D03*
X361950Y248920D02*
D03*
X360680Y257810D02*
D03*
X336550Y251460D02*
D03*
X317512Y257822D02*
D03*
X345440Y204250D02*
D03*
X331470Y181610D02*
D03*
X331970Y160020D02*
D03*
X308610Y168910D02*
D03*
X288290Y202250D02*
D03*
X281940Y205740D02*
D03*
X261620Y185420D02*
D03*
X318770Y195750D02*
D03*
X309880Y205740D02*
D03*
X326390Y204470D02*
D03*
X321358Y149750D02*
D03*
X356870Y152400D02*
D03*
X344170Y123190D02*
D03*
X294640Y299720D02*
D03*
X289560Y316230D02*
D03*
X297180Y314960D02*
D03*
X146050Y292100D02*
D03*
X196850Y297180D02*
D03*
X238760Y245110D02*
D03*
X246380Y255270D02*
D03*
X224790Y232218D02*
D03*
X228287Y238594D02*
D03*
X248050Y227750D02*
D03*
X355600Y123190D02*
D03*
Y130810D02*
D03*
X260350Y193040D02*
D03*
X283210Y134620D02*
D03*
X290830Y149860D02*
D03*
X297180Y140970D02*
D03*
X199390Y153670D02*
D03*
X181610Y199390D02*
D03*
X193040Y280670D02*
D03*
X158750Y231140D02*
D03*
X99060Y182880D02*
D03*
X93980Y175260D02*
D03*
X123190Y196850D02*
D03*
X128270Y172720D02*
D03*
X178229Y273479D02*
D03*
X175260Y193040D02*
D03*
Y154940D02*
D03*
X248920Y265430D02*
D03*
X323850Y228790D02*
D03*
Y221520D02*
D03*
X250190Y193420D02*
D03*
X237490Y193040D02*
D03*
X230344Y191843D02*
D03*
X223372Y190972D02*
D03*
X209157Y188620D02*
D03*
X199373Y190518D02*
D03*
X202050Y196986D02*
D03*
X201575Y207010D02*
D03*
X314960Y232410D02*
D03*
X257810Y157480D02*
D03*
X156210Y171450D02*
D03*
X149131Y170975D02*
D03*
X85435Y230500D02*
D03*
X94243Y217095D02*
D03*
X107950Y236220D02*
D03*
X152400Y257810D02*
D03*
X104140Y139700D02*
D03*
X95250Y146050D02*
D03*
X170180Y232410D02*
D03*
X25400Y134620D02*
D03*
Y156210D02*
D03*
X85066Y247432D02*
D03*
X95795Y224344D02*
D03*
X96520Y208280D02*
D03*
D103*
X200000Y250000D02*
D03*
D104*
X166370Y278130D02*
D03*
X208280Y170180D02*
D03*
M02*
