G04*
G04 #@! TF.GenerationSoftware,Altium Limited,Altium Designer,22.10.1 (41)*
G04*
G04 Layer_Physical_Order=3*
G04 Layer_Color=16440176*
%FSLAX44Y44*%
%MOMM*%
G71*
G04*
G04 #@! TF.SameCoordinates,27488822-8B8A-45CA-B0CB-A5C5B456CCF3*
G04*
G04*
G04 #@! TF.FilePolarity,Positive*
G04*
G01*
G75*
G04:AMPARAMS|DCode=91|XSize=1.1mm|YSize=2.4mm|CornerRadius=0.55mm|HoleSize=0mm|Usage=FLASHONLY|Rotation=270.000|XOffset=0mm|YOffset=0mm|HoleType=Round|Shape=RoundedRectangle|*
%AMROUNDEDRECTD91*
21,1,1.1000,1.3000,0,0,270.0*
21,1,0.0000,2.4000,0,0,270.0*
1,1,1.1000,-0.6500,0.0000*
1,1,1.1000,-0.6500,0.0000*
1,1,1.1000,0.6500,0.0000*
1,1,1.1000,0.6500,0.0000*
%
%ADD91ROUNDEDRECTD91*%
G04:AMPARAMS|DCode=92|XSize=1mm|YSize=2.55mm|CornerRadius=0.5mm|HoleSize=0mm|Usage=FLASHONLY|Rotation=270.000|XOffset=0mm|YOffset=0mm|HoleType=Round|Shape=RoundedRectangle|*
%AMROUNDEDRECTD92*
21,1,1.0000,1.5500,0,0,270.0*
21,1,0.0000,2.5500,0,0,270.0*
1,1,1.0000,-0.7750,0.0000*
1,1,1.0000,-0.7750,0.0000*
1,1,1.0000,0.7750,0.0000*
1,1,1.0000,0.7750,0.0000*
%
%ADD92ROUNDEDRECTD92*%
%ADD102C,0.5000*%
%ADD103C,5.2000*%
G36*
X306156Y270000D02*
X306449Y268529D01*
X307282Y267282D01*
X308529Y266449D01*
X310000Y266156D01*
X367961D01*
Y182039D01*
X350000D01*
X349950Y182029D01*
X349900Y182037D01*
X348920Y181988D01*
X348773Y181952D01*
X348622D01*
X346699Y181569D01*
X346514Y181492D01*
X346317Y181453D01*
X344506Y180703D01*
X344339Y180592D01*
X344153Y180515D01*
X342523Y179426D01*
X342381Y179284D01*
X342214Y179172D01*
X340828Y177786D01*
X340717Y177619D01*
X340574Y177477D01*
X339485Y175847D01*
X339408Y175661D01*
X339297Y175494D01*
X338547Y173683D01*
X338508Y173486D01*
X338431Y173301D01*
X338048Y171378D01*
Y171227D01*
X338012Y171080D01*
X337963Y170100D01*
X337978Y170000D01*
X337963Y169900D01*
X338012Y168920D01*
X338048Y168773D01*
Y168622D01*
X338431Y166699D01*
X338508Y166514D01*
X338547Y166317D01*
X339297Y164506D01*
X339408Y164339D01*
X339485Y164153D01*
X340574Y162523D01*
X340717Y162381D01*
X340828Y162214D01*
X342214Y160828D01*
X342381Y160716D01*
X342523Y160574D01*
X344153Y159485D01*
X344339Y159409D01*
X344506Y159297D01*
X346317Y158547D01*
X346514Y158508D01*
X346699Y158431D01*
X348622Y158048D01*
X348773D01*
X348920Y158012D01*
X349900Y157963D01*
X349950Y157971D01*
X350000Y157961D01*
X360784Y157961D01*
X362322Y157655D01*
X363771Y157055D01*
X365075Y156184D01*
X366184Y155075D01*
X367055Y153771D01*
X367655Y152322D01*
X367961Y150784D01*
X367961Y117039D01*
X357135D01*
X356882Y118309D01*
X358432Y118951D01*
X359839Y120358D01*
X360600Y122195D01*
Y124185D01*
X359839Y126022D01*
X358861Y127000D01*
X359839Y127978D01*
X360600Y129815D01*
Y131805D01*
X359839Y133642D01*
X358432Y135049D01*
X356595Y135810D01*
X354605D01*
X352768Y135049D01*
X351361Y133642D01*
X350600Y131805D01*
Y129815D01*
X351361Y127978D01*
X352339Y127000D01*
X351361Y126022D01*
X350600Y124185D01*
Y122195D01*
X351361Y120358D01*
X352768Y118951D01*
X354318Y118309D01*
X354065Y117039D01*
X334216D01*
X332678Y117345D01*
X331229Y117945D01*
X329925Y118816D01*
X328816Y119925D01*
X327945Y121229D01*
X327345Y122678D01*
X327039Y124216D01*
Y135000D01*
X327029Y135050D01*
X327037Y135100D01*
X326988Y136080D01*
X326952Y136227D01*
Y136378D01*
X326569Y138301D01*
X326492Y138486D01*
X326453Y138683D01*
X325703Y140494D01*
X325592Y140661D01*
X325515Y140847D01*
X324426Y142477D01*
X324283Y142619D01*
X324172Y142786D01*
X322786Y144172D01*
X322619Y144284D01*
X322477Y144425D01*
X320847Y145515D01*
X320661Y145591D01*
X320494Y145703D01*
X318683Y146453D01*
X318486Y146492D01*
X318301Y146569D01*
X316378Y146952D01*
X316227D01*
X316080Y146988D01*
X315100Y147037D01*
X315000Y147022D01*
X314900Y147037D01*
X313920Y146988D01*
X313773Y146952D01*
X313622D01*
X311699Y146569D01*
X311514Y146492D01*
X311317Y146453D01*
X309506Y145703D01*
X309339Y145591D01*
X309153Y145515D01*
X307523Y144425D01*
X307381Y144283D01*
X307214Y144172D01*
X305828Y142786D01*
X305716Y142619D01*
X305574Y142477D01*
X304485Y140847D01*
X304408Y140661D01*
X304297Y140494D01*
X303547Y138683D01*
X303508Y138486D01*
X303431Y138301D01*
X303048Y136378D01*
Y136227D01*
X303012Y136080D01*
X302963Y135100D01*
X302971Y135050D01*
X302961Y135000D01*
Y117039D01*
X272216D01*
X270678Y117345D01*
X269229Y117945D01*
X267925Y118816D01*
X266816Y119925D01*
X265945Y121229D01*
X265345Y122678D01*
X265039Y124216D01*
X265039Y125000D01*
X265029Y125050D01*
X265037Y125100D01*
X264988Y126080D01*
X264952Y126227D01*
Y126378D01*
X264569Y128301D01*
X264492Y128486D01*
X264453Y128683D01*
X263703Y130494D01*
X263591Y130661D01*
X263515Y130847D01*
X262425Y132477D01*
X262283Y132619D01*
X262172Y132786D01*
X260786Y134172D01*
X260619Y134284D01*
X260477Y134425D01*
X258847Y135515D01*
X258661Y135591D01*
X258494Y135703D01*
X256683Y136453D01*
X256486Y136492D01*
X256301Y136569D01*
X254378Y136952D01*
X254227D01*
X254080Y136988D01*
X253100Y137037D01*
X253050Y137029D01*
X253000Y137039D01*
X133000Y137039D01*
X132950Y137029D01*
X132900Y137037D01*
X131920Y136988D01*
X131773Y136952D01*
X131622D01*
X129699Y136569D01*
X129514Y136492D01*
X129317Y136453D01*
X127506Y135703D01*
X127339Y135591D01*
X127153Y135515D01*
X125523Y134425D01*
X125381Y134284D01*
X125214Y134172D01*
X123828Y132786D01*
X123716Y132619D01*
X123574Y132477D01*
X122485Y130847D01*
X122409Y130661D01*
X122297Y130494D01*
X121547Y128683D01*
X121508Y128486D01*
X121431Y128301D01*
X121048Y126378D01*
Y126227D01*
X121012Y126080D01*
X120963Y125100D01*
X120971Y125050D01*
X120961Y125000D01*
X120961Y124216D01*
X120655Y122678D01*
X120055Y121229D01*
X119184Y119925D01*
X118075Y118816D01*
X116771Y117945D01*
X115322Y117345D01*
X113784Y117039D01*
X28231D01*
X24761Y117729D01*
X21492Y119083D01*
X18551Y121049D01*
X16049Y123551D01*
X14083Y126492D01*
X12729Y129761D01*
X12039Y133231D01*
Y135000D01*
Y173711D01*
X23679D01*
X23846Y173372D01*
X24180Y172441D01*
X23417Y170599D01*
X23308Y169770D01*
X37750D01*
X52192D01*
X52083Y170599D01*
X51320Y172441D01*
X51655Y173372D01*
X51821Y173711D01*
X55359D01*
X55921Y172572D01*
X55714Y172303D01*
X54954Y170468D01*
X54862Y169770D01*
X70050D01*
X85238D01*
X85146Y170468D01*
X84386Y172303D01*
X83178Y173878D01*
X81602Y175086D01*
X79768Y175846D01*
X77800Y176105D01*
X70789D01*
Y268895D01*
X77800D01*
X79768Y269154D01*
X81602Y269914D01*
X83178Y271122D01*
X84386Y272698D01*
X85146Y274532D01*
X85238Y275230D01*
X70050D01*
X54862D01*
X54954Y274532D01*
X55714Y272698D01*
X55921Y272428D01*
X55359Y271289D01*
X51821D01*
X51655Y271628D01*
X51320Y272559D01*
X52083Y274401D01*
X52192Y275230D01*
X37750D01*
X23308D01*
X23417Y274401D01*
X24180Y272559D01*
X23846Y271628D01*
X23679Y271289D01*
X12039D01*
Y310000D01*
Y311769D01*
X12729Y315239D01*
X14083Y318508D01*
X16049Y321449D01*
X18551Y323951D01*
X21492Y325917D01*
X24761Y327271D01*
X28231Y327961D01*
X30000Y327961D01*
X185881Y327961D01*
X186367Y326788D01*
X186261Y326682D01*
X185500Y324845D01*
Y322855D01*
X186261Y321018D01*
X187668Y319611D01*
X189505Y318850D01*
X191495D01*
X193332Y319611D01*
X194739Y321018D01*
X195500Y322855D01*
Y324845D01*
X194739Y326682D01*
X194634Y326788D01*
X195119Y327961D01*
X216360Y327961D01*
X216665Y327289D01*
X216750Y326691D01*
X215471Y325412D01*
X214710Y323575D01*
Y321585D01*
X215471Y319748D01*
X216878Y318341D01*
X218715Y317580D01*
X220705D01*
X222542Y318341D01*
X223949Y319748D01*
X224710Y321585D01*
Y323575D01*
X223949Y325412D01*
X222670Y326691D01*
X222755Y327289D01*
X223060Y327961D01*
X306156D01*
Y270000D01*
D02*
G37*
%LPC*%
G36*
X270925Y313610D02*
X268935D01*
X267098Y312849D01*
X265691Y311442D01*
X264930Y309605D01*
Y307615D01*
X265691Y305778D01*
X267098Y304371D01*
X268935Y303610D01*
X270925D01*
X272762Y304371D01*
X274169Y305778D01*
X274930Y307615D01*
Y309605D01*
X274169Y311442D01*
X272762Y312849D01*
X270925Y313610D01*
D02*
G37*
G36*
X197845Y302180D02*
X195855D01*
X194018Y301419D01*
X192611Y300012D01*
X191850Y298175D01*
Y296185D01*
X192611Y294348D01*
X194018Y292941D01*
X195855Y292180D01*
X197845D01*
X199682Y292941D01*
X201089Y294348D01*
X201850Y296185D01*
Y298175D01*
X201089Y300012D01*
X199682Y301419D01*
X197845Y302180D01*
D02*
G37*
G36*
X147045Y297100D02*
X145055D01*
X143218Y296339D01*
X141811Y294932D01*
X141050Y293095D01*
Y291105D01*
X141811Y289268D01*
X143218Y287861D01*
X145055Y287100D01*
X147045D01*
X148882Y287861D01*
X150289Y289268D01*
X151050Y291105D01*
Y293095D01*
X150289Y294932D01*
X148882Y296339D01*
X147045Y297100D01*
D02*
G37*
G36*
X219435Y288210D02*
X217445D01*
X215608Y287449D01*
X214201Y286042D01*
X213440Y284205D01*
Y282215D01*
X214201Y280378D01*
X215608Y278971D01*
X217445Y278210D01*
X219435D01*
X221272Y278971D01*
X222679Y280378D01*
X223440Y282215D01*
Y284205D01*
X222679Y286042D01*
X221272Y287449D01*
X219435Y288210D01*
D02*
G37*
G36*
X77800Y284105D02*
X71320D01*
Y277770D01*
X85238D01*
X85146Y278468D01*
X84386Y280303D01*
X83178Y281878D01*
X81602Y283086D01*
X79768Y283846D01*
X77800Y284105D01*
D02*
G37*
G36*
X68780D02*
X62300D01*
X60332Y283846D01*
X58498Y283086D01*
X56922Y281878D01*
X55714Y280303D01*
X54954Y278468D01*
X54862Y277770D01*
X68780D01*
Y284105D01*
D02*
G37*
G36*
X44250Y284609D02*
X39020D01*
Y277770D01*
X52192D01*
X52083Y278599D01*
X51273Y280555D01*
X49984Y282234D01*
X48305Y283523D01*
X46349Y284333D01*
X44250Y284609D01*
D02*
G37*
G36*
X36480D02*
X31250D01*
X29151Y284333D01*
X27195Y283523D01*
X25516Y282234D01*
X24227Y280555D01*
X23417Y278599D01*
X23308Y277770D01*
X36480D01*
Y284609D01*
D02*
G37*
G36*
X194035Y285670D02*
X192045D01*
X190208Y284909D01*
X188801Y283502D01*
X188040Y281665D01*
Y279675D01*
X188801Y277838D01*
X189015Y277624D01*
X188613Y276229D01*
X185042Y274410D01*
X184347Y273905D01*
X183687Y274241D01*
X183169Y274619D01*
X182468Y276312D01*
X181062Y277718D01*
X179224Y278479D01*
X177235D01*
X175397Y277718D01*
X173991Y276312D01*
X173229Y274474D01*
Y272485D01*
X173991Y270647D01*
X175397Y269241D01*
X176731Y268688D01*
X177296Y267306D01*
X175590Y264958D01*
X173551Y260956D01*
X172163Y256683D01*
X171460Y252246D01*
Y251270D01*
X198730D01*
Y278809D01*
X198040Y279676D01*
Y281665D01*
X197279Y283502D01*
X195872Y284909D01*
X194035Y285670D01*
D02*
G37*
G36*
X167464Y283630D02*
X165276D01*
X163255Y282793D01*
X161707Y281245D01*
X160870Y279224D01*
Y277036D01*
X161707Y275014D01*
X163255Y273467D01*
X165276Y272630D01*
X167464D01*
X169485Y273467D01*
X171033Y275014D01*
X171870Y277036D01*
Y279224D01*
X171033Y281245D01*
X169485Y282793D01*
X167464Y283630D01*
D02*
G37*
G36*
X268470Y281924D02*
X266480D01*
X264643Y281163D01*
X263236Y279756D01*
X262475Y277919D01*
Y275930D01*
X263236Y274092D01*
X264643Y272685D01*
X266480Y271924D01*
X268470D01*
X270307Y272685D01*
X271714Y274092D01*
X272475Y275930D01*
Y277919D01*
X271714Y279756D01*
X270307Y281163D01*
X268470Y281924D01*
D02*
G37*
G36*
X318507Y262822D02*
X316518D01*
X314680Y262061D01*
X313274Y260655D01*
X312512Y258817D01*
Y256828D01*
X313274Y254990D01*
X314680Y253584D01*
X316518Y252822D01*
X318507D01*
X320345Y253584D01*
X321751Y254990D01*
X322513Y256828D01*
Y258817D01*
X321751Y260655D01*
X320345Y262061D01*
X318507Y262822D01*
D02*
G37*
G36*
X202246Y278540D02*
X201270D01*
Y251270D01*
X228540D01*
Y252246D01*
X227837Y256683D01*
X226449Y260956D01*
X224410Y264958D01*
X224009Y265510D01*
X224656Y266780D01*
X225785D01*
X227622Y267541D01*
X229029Y268948D01*
X229790Y270785D01*
Y272775D01*
X229029Y274612D01*
X227622Y276019D01*
X225785Y276780D01*
X223795D01*
X221958Y276019D01*
X220551Y274612D01*
X219790Y272775D01*
Y272368D01*
X218805Y271875D01*
X218520Y271822D01*
X214958Y274410D01*
X210956Y276449D01*
X206683Y277837D01*
X202246Y278540D01*
D02*
G37*
G36*
X278730Y251929D02*
X277145Y251273D01*
X276500Y250628D01*
X275855Y251273D01*
X274270Y251929D01*
Y247000D01*
X273000D01*
Y245730D01*
X268071D01*
X268727Y244145D01*
X269372Y243500D01*
X268727Y242855D01*
X268071Y241270D01*
X273000D01*
Y238730D01*
X268071D01*
X268727Y237145D01*
X269372Y236500D01*
X268727Y235855D01*
X268071Y234270D01*
X273000D01*
Y233000D01*
X274270D01*
Y228071D01*
X275855Y228727D01*
X276500Y229372D01*
X277145Y228727D01*
X278730Y228071D01*
Y233000D01*
X281270D01*
Y228071D01*
X282855Y228727D01*
X283500Y229372D01*
X284145Y228727D01*
X285730Y228071D01*
Y233000D01*
X287000D01*
Y234270D01*
X291929D01*
X291273Y235855D01*
X290628Y236500D01*
X291273Y237145D01*
X291929Y238730D01*
X287000D01*
Y241270D01*
X291929D01*
X291273Y242855D01*
X290628Y243500D01*
X291273Y244145D01*
X291929Y245730D01*
X287000D01*
Y247000D01*
X285730D01*
Y251929D01*
X284145Y251273D01*
X283500Y250628D01*
X282855Y251273D01*
X281270Y251929D01*
Y247000D01*
X278730D01*
Y251929D01*
D02*
G37*
G36*
X249915Y270430D02*
X247925D01*
X246088Y269669D01*
X244681Y268262D01*
X243920Y266425D01*
Y264435D01*
X244681Y262598D01*
X245739Y261540D01*
X245489Y260642D01*
X245315Y260241D01*
X243548Y259509D01*
X242141Y258102D01*
X241380Y256265D01*
Y254275D01*
X242141Y252438D01*
X243548Y251031D01*
X245385Y250270D01*
X247375D01*
X249212Y251031D01*
X250619Y252438D01*
X251380Y254275D01*
Y256265D01*
X250619Y258102D01*
X249561Y259160D01*
X249811Y260058D01*
X249984Y260459D01*
X251752Y261191D01*
X253159Y262598D01*
X253920Y264435D01*
Y266425D01*
X253159Y268262D01*
X251752Y269669D01*
X249915Y270430D01*
D02*
G37*
G36*
X288270Y251929D02*
Y248270D01*
X291929D01*
X291273Y249855D01*
X289855Y251273D01*
X288270Y251929D01*
D02*
G37*
G36*
X271730D02*
X270145Y251273D01*
X268727Y249855D01*
X268071Y248270D01*
X271730D01*
Y251929D01*
D02*
G37*
G36*
X86060Y252432D02*
X84071D01*
X82234Y251671D01*
X80827Y250264D01*
X80066Y248427D01*
Y246438D01*
X80827Y244600D01*
X82234Y243193D01*
X84071Y242432D01*
X86060D01*
X87898Y243193D01*
X89305Y244600D01*
X90066Y246438D01*
Y248427D01*
X89305Y250264D01*
X87898Y251671D01*
X86060Y252432D01*
D02*
G37*
G36*
X239755Y250110D02*
X237765D01*
X235928Y249349D01*
X234521Y247942D01*
X233760Y246105D01*
Y244115D01*
X234521Y242278D01*
X235928Y240871D01*
X237765Y240110D01*
X239755D01*
X241592Y240871D01*
X242999Y242278D01*
X243760Y244115D01*
Y246105D01*
X242999Y247942D01*
X241592Y249349D01*
X239755Y250110D01*
D02*
G37*
G36*
X198730Y248730D02*
X171460D01*
Y247754D01*
X172163Y243317D01*
X173551Y239044D01*
X174734Y236724D01*
X173693Y235968D01*
X173012Y236649D01*
X171175Y237410D01*
X169185D01*
X167348Y236649D01*
X165941Y235242D01*
X165180Y233405D01*
Y231415D01*
X165941Y229578D01*
X167348Y228171D01*
X169185Y227410D01*
X171175D01*
X173012Y228171D01*
X174419Y229578D01*
X175180Y231415D01*
Y233405D01*
X175140Y233501D01*
X176256Y234126D01*
X178231Y231408D01*
X181408Y228231D01*
X185042Y225590D01*
X189044Y223551D01*
X193317Y222163D01*
X197754Y221460D01*
X198730D01*
Y248730D01*
D02*
G37*
G36*
X291929Y231730D02*
X288270D01*
Y228071D01*
X289855Y228727D01*
X291273Y230145D01*
X291929Y231730D01*
D02*
G37*
G36*
X271730D02*
X268071D01*
X268727Y230145D01*
X270145Y228727D01*
X271730Y228071D01*
Y231730D01*
D02*
G37*
G36*
X228540Y248730D02*
X201270D01*
Y221460D01*
X202246D01*
X205870Y222034D01*
X207139Y221066D01*
Y221025D01*
X207901Y219188D01*
X209307Y217781D01*
X211145Y217020D01*
X213134D01*
X214972Y217781D01*
X216378Y219188D01*
X217139Y221025D01*
Y223015D01*
X216378Y224852D01*
X216045Y225186D01*
X216144Y226452D01*
X218593Y228231D01*
X219881Y229519D01*
X220551Y229386D01*
X221958Y227979D01*
X223795Y227218D01*
X225785D01*
X227622Y227979D01*
X229029Y229386D01*
X229790Y231224D01*
Y233213D01*
X229581Y233718D01*
X231119Y234355D01*
X232526Y235762D01*
X233287Y237599D01*
Y239589D01*
X232526Y241426D01*
X231119Y242833D01*
X229282Y243594D01*
X228859D01*
X228034Y244560D01*
X228540Y247754D01*
Y248730D01*
D02*
G37*
G36*
X159745Y236140D02*
X157755D01*
X155918Y235379D01*
X154511Y233972D01*
X153750Y232135D01*
Y230145D01*
X154511Y228308D01*
X155918Y226901D01*
X157755Y226140D01*
X159745D01*
X161582Y226901D01*
X162989Y228308D01*
X163750Y230145D01*
Y232135D01*
X162989Y233972D01*
X161582Y235379D01*
X159745Y236140D01*
D02*
G37*
G36*
X86430Y235500D02*
X84440D01*
X82603Y234739D01*
X81196Y233332D01*
X80435Y231495D01*
Y229505D01*
X81196Y227668D01*
X82603Y226261D01*
X84440Y225500D01*
X86430D01*
X88267Y226261D01*
X89674Y227668D01*
X90435Y229505D01*
Y231495D01*
X89674Y233332D01*
X88267Y234739D01*
X86430Y235500D01*
D02*
G37*
G36*
X249045Y232750D02*
X247055D01*
X245218Y231989D01*
X243811Y230582D01*
X243050Y228745D01*
Y226756D01*
X243811Y224918D01*
X245218Y223511D01*
X247055Y222750D01*
X249045D01*
X250882Y223511D01*
X252289Y224918D01*
X253050Y226756D01*
Y228745D01*
X252289Y230582D01*
X250882Y231989D01*
X249045Y232750D01*
D02*
G37*
G36*
X315955Y237410D02*
X313965D01*
X312128Y236649D01*
X310721Y235242D01*
X309960Y233405D01*
Y231415D01*
X310721Y229578D01*
X312128Y228171D01*
X313965Y227410D01*
X315955D01*
X317580Y228083D01*
X318222Y227938D01*
X318956Y227539D01*
X319611Y225958D01*
X320414Y225155D01*
X319611Y224352D01*
X318850Y222515D01*
Y220525D01*
X319611Y218688D01*
X321018Y217281D01*
X322855Y216520D01*
X324845D01*
X326682Y217281D01*
X328089Y218688D01*
X328850Y220525D01*
Y222515D01*
X328089Y224352D01*
X327286Y225155D01*
X328089Y225958D01*
X328850Y227795D01*
Y229785D01*
X328089Y231622D01*
X326682Y233029D01*
X324845Y233790D01*
X322855D01*
X321230Y233117D01*
X320588Y233262D01*
X319854Y233661D01*
X319199Y235242D01*
X317792Y236649D01*
X315955Y237410D01*
D02*
G37*
G36*
X125404Y230049D02*
X123415D01*
X121577Y229288D01*
X120171Y227881D01*
X119410Y226044D01*
Y224055D01*
X120171Y222217D01*
X121043Y221345D01*
X120171Y220473D01*
X119410Y218635D01*
Y216646D01*
X120171Y214809D01*
X121577Y213402D01*
X123415Y212641D01*
X125404D01*
X127242Y213402D01*
X128648Y214809D01*
X129410Y216646D01*
Y218635D01*
X128648Y220473D01*
X127776Y221345D01*
X128648Y222217D01*
X129410Y224055D01*
Y226044D01*
X128648Y227881D01*
X127242Y229288D01*
X125404Y230049D01*
D02*
G37*
G36*
X158475Y218360D02*
X156485D01*
X154648Y217599D01*
X153241Y216192D01*
X152480Y214355D01*
Y212365D01*
X153241Y210528D01*
X154648Y209121D01*
X156485Y208360D01*
X158475D01*
X160312Y209121D01*
X161719Y210528D01*
X162480Y212365D01*
Y214355D01*
X161719Y216192D01*
X160312Y217599D01*
X158475Y218360D01*
D02*
G37*
G36*
X96789Y229344D02*
X94800D01*
X92962Y228583D01*
X91556Y227176D01*
X90795Y225338D01*
Y223349D01*
X91556Y221512D01*
X91530Y221383D01*
X91411Y221334D01*
X90004Y219927D01*
X89243Y218089D01*
Y216100D01*
X90004Y214263D01*
X91411Y212856D01*
X91989Y212616D01*
X92287Y211118D01*
X92281Y211112D01*
X91520Y209275D01*
Y207285D01*
X92281Y205448D01*
X93688Y204041D01*
X95525Y203280D01*
X97515D01*
X99352Y204041D01*
X100759Y205448D01*
X101520Y207285D01*
Y209275D01*
X100759Y211112D01*
X99352Y212519D01*
X98774Y212759D01*
X98476Y214257D01*
X98482Y214263D01*
X99243Y216100D01*
Y218089D01*
X98482Y219927D01*
X98507Y220056D01*
X98627Y220105D01*
X100034Y221512D01*
X100795Y223349D01*
Y225338D01*
X100034Y227176D01*
X98627Y228583D01*
X96789Y229344D01*
D02*
G37*
G36*
X327385Y209470D02*
X325395D01*
X323558Y208709D01*
X322151Y207302D01*
X321390Y205465D01*
Y203475D01*
X322151Y201638D01*
X323558Y200231D01*
X325395Y199470D01*
X327385D01*
X329222Y200231D01*
X330629Y201638D01*
X331390Y203475D01*
Y205465D01*
X330629Y207302D01*
X329222Y208709D01*
X327385Y209470D01*
D02*
G37*
G36*
X346435Y209250D02*
X344445D01*
X342608Y208489D01*
X341201Y207082D01*
X340440Y205245D01*
Y203255D01*
X341201Y201418D01*
X342608Y200011D01*
X344445Y199250D01*
X346435D01*
X348272Y200011D01*
X349679Y201418D01*
X350440Y203255D01*
Y205245D01*
X349679Y207082D01*
X348272Y208489D01*
X346435Y209250D01*
D02*
G37*
G36*
X131805Y206590D02*
X129815D01*
X127978Y205829D01*
X126571Y204422D01*
X125810Y202585D01*
Y200595D01*
X126571Y198758D01*
X127978Y197351D01*
X129815Y196590D01*
X131805D01*
X133642Y197351D01*
X135049Y198758D01*
X135810Y200595D01*
Y202585D01*
X135049Y204422D01*
X133642Y205829D01*
X131805Y206590D01*
D02*
G37*
G36*
X86813Y202809D02*
X84824D01*
X82986Y202048D01*
X81580Y200642D01*
X80818Y198804D01*
Y196815D01*
X81580Y194977D01*
X82986Y193571D01*
X84824Y192809D01*
X86813D01*
X88651Y193571D01*
X90057Y194977D01*
X90818Y196815D01*
Y198804D01*
X90057Y200642D01*
X88651Y202048D01*
X86813Y202809D01*
D02*
G37*
G36*
X319765Y200750D02*
X317775D01*
X315938Y199989D01*
X314531Y198582D01*
X313770Y196745D01*
Y194755D01*
X314531Y192918D01*
X315938Y191511D01*
X317775Y190750D01*
X319765D01*
X321602Y191511D01*
X323009Y192918D01*
X323770Y194755D01*
Y196745D01*
X323009Y198582D01*
X321602Y199989D01*
X319765Y200750D01*
D02*
G37*
G36*
X202570Y212010D02*
X200580D01*
X198743Y211249D01*
X197336Y209842D01*
X196575Y208005D01*
Y206015D01*
X197336Y204178D01*
X198743Y202771D01*
X199187Y202587D01*
X199218Y201225D01*
X197811Y199818D01*
X197050Y197981D01*
Y195992D01*
X197412Y195118D01*
X196541Y194757D01*
X195134Y193351D01*
X194373Y191513D01*
Y189524D01*
X195134Y187686D01*
X196541Y186280D01*
X198378Y185518D01*
X200367D01*
X202205Y186280D01*
X203008Y187082D01*
X204506Y186784D01*
X204918Y185788D01*
X206325Y184381D01*
X208163Y183620D01*
X210152D01*
X211989Y184381D01*
X213396Y185788D01*
X213515Y186076D01*
X214905Y185500D01*
X216895D01*
X218732Y186261D01*
X219872Y187401D01*
X220540Y186733D01*
X222377Y185972D01*
X224367D01*
X226204Y186733D01*
X227294Y187823D01*
X227512Y187604D01*
X229350Y186843D01*
X231339D01*
X233176Y187604D01*
X234516Y188943D01*
X234658Y188801D01*
X236495Y188040D01*
X238485D01*
X240322Y188801D01*
X241729Y190208D01*
X242490Y192045D01*
Y194035D01*
X241729Y195872D01*
X240322Y197279D01*
X238485Y198040D01*
X236495D01*
X234658Y197279D01*
X233319Y195940D01*
X233176Y196082D01*
X231339Y196843D01*
X229350D01*
X227512Y196082D01*
X226423Y194993D01*
X226204Y195211D01*
X224367Y195972D01*
X222377D01*
X220540Y195211D01*
X219400Y194071D01*
X218732Y194739D01*
X216895Y195500D01*
X214905D01*
X213068Y194739D01*
X211661Y193332D01*
X211542Y193044D01*
X210152Y193620D01*
X208163D01*
X207118Y193188D01*
X206456Y193960D01*
X206321Y194232D01*
X207050Y195992D01*
Y197981D01*
X206289Y199818D01*
X204882Y201225D01*
X204438Y201409D01*
X204407Y202771D01*
X205814Y204178D01*
X206575Y206015D01*
Y208005D01*
X205814Y209842D01*
X204407Y211249D01*
X202570Y212010D01*
D02*
G37*
G36*
X182605Y204390D02*
X180615D01*
X178778Y203629D01*
X177371Y202222D01*
X176610Y200385D01*
Y199213D01*
X176337Y198313D01*
X175437Y198040D01*
X174265D01*
X172428Y197279D01*
X171021Y195872D01*
X170260Y194035D01*
Y192045D01*
X171021Y190208D01*
X172428Y188801D01*
X174265Y188040D01*
X176255D01*
X178092Y188801D01*
X179499Y190208D01*
X180260Y192045D01*
Y193217D01*
X180533Y194117D01*
X181433Y194390D01*
X182605D01*
X184442Y195151D01*
X185849Y196558D01*
X186610Y198395D01*
Y200385D01*
X185849Y202222D01*
X184442Y203629D01*
X182605Y204390D01*
D02*
G37*
G36*
X251185Y198420D02*
X249195D01*
X247358Y197659D01*
X245951Y196252D01*
X245190Y194415D01*
Y192425D01*
X245951Y190588D01*
X247358Y189181D01*
X249195Y188420D01*
X251185D01*
X253022Y189181D01*
X254429Y190588D01*
X254504Y190769D01*
X255879D01*
X256111Y190208D01*
X257518Y188801D01*
X257586Y188457D01*
X257381Y188252D01*
X256620Y186415D01*
Y184425D01*
X257381Y182588D01*
X258788Y181181D01*
X260625Y180420D01*
X262615D01*
X264452Y181181D01*
X265859Y182588D01*
X266620Y184425D01*
Y186415D01*
X265859Y188252D01*
X264452Y189659D01*
X264384Y190003D01*
X264589Y190208D01*
X265350Y192045D01*
Y194035D01*
X264589Y195872D01*
X263182Y197279D01*
X261345Y198040D01*
X259355D01*
X257518Y197279D01*
X256111Y195872D01*
X256036Y195691D01*
X254661D01*
X254429Y196252D01*
X253022Y197659D01*
X251185Y198420D01*
D02*
G37*
G36*
X332465Y186610D02*
X330475D01*
X328638Y185849D01*
X327231Y184442D01*
X326470Y182605D01*
Y180615D01*
X327231Y178778D01*
X328638Y177371D01*
X330475Y176610D01*
X332465D01*
X334302Y177371D01*
X335709Y178778D01*
X336470Y180615D01*
Y182605D01*
X335709Y184442D01*
X334302Y185849D01*
X332465Y186610D01*
D02*
G37*
G36*
X286745Y186115D02*
X284755D01*
X282918Y185354D01*
X281511Y183947D01*
X280750Y182110D01*
Y180121D01*
X281511Y178283D01*
X282918Y176876D01*
X284755Y176115D01*
X286745D01*
X288582Y176876D01*
X289989Y178283D01*
X290750Y180121D01*
Y182110D01*
X289989Y183947D01*
X288582Y185354D01*
X286745Y186115D01*
D02*
G37*
G36*
X157205Y176450D02*
X155215D01*
X153378Y175689D01*
X152433Y174744D01*
X151963Y175213D01*
X150125Y175975D01*
X148136D01*
X146299Y175213D01*
X144892Y173807D01*
X144131Y171969D01*
Y169980D01*
X144892Y168142D01*
X146299Y166736D01*
X148136Y165975D01*
X150125D01*
X151963Y166736D01*
X152908Y167681D01*
X153378Y167211D01*
X155215Y166450D01*
X157205D01*
X159042Y167211D01*
X160449Y168618D01*
X161210Y170455D01*
Y172445D01*
X160449Y174282D01*
X159042Y175689D01*
X157205Y176450D01*
D02*
G37*
G36*
X94975Y180260D02*
X92985D01*
X91148Y179499D01*
X89741Y178092D01*
X88980Y176255D01*
Y174265D01*
X89741Y172428D01*
X91148Y171021D01*
X92985Y170260D01*
X94975D01*
X96812Y171021D01*
X98219Y172428D01*
X98980Y174265D01*
Y176255D01*
X98219Y178092D01*
X96812Y179499D01*
X94975Y180260D01*
D02*
G37*
G36*
X209374Y175680D02*
X207186D01*
X205165Y174843D01*
X203617Y173295D01*
X202780Y171274D01*
Y169086D01*
X203617Y167064D01*
X205165Y165517D01*
X207186Y164680D01*
X209374D01*
X211395Y165517D01*
X212943Y167064D01*
X213780Y169086D01*
Y171274D01*
X212943Y173295D01*
X211395Y174843D01*
X209374Y175680D01*
D02*
G37*
G36*
X85238Y167230D02*
X71320D01*
Y160895D01*
X77800D01*
X79768Y161154D01*
X81602Y161914D01*
X83178Y163122D01*
X84386Y164697D01*
X85146Y166532D01*
X85238Y167230D01*
D02*
G37*
G36*
X68780D02*
X54862D01*
X54954Y166532D01*
X55714Y164697D01*
X56922Y163122D01*
X58498Y161914D01*
X60332Y161154D01*
X62300Y160895D01*
X68780D01*
Y167230D01*
D02*
G37*
G36*
X52192Y167230D02*
X39020D01*
Y160391D01*
X44250D01*
X46349Y160667D01*
X48305Y161477D01*
X49984Y162766D01*
X51273Y164445D01*
X52083Y166401D01*
X52192Y167230D01*
D02*
G37*
G36*
X36480D02*
X23308D01*
X23417Y166401D01*
X24227Y164445D01*
X25516Y162766D01*
X27195Y161477D01*
X29151Y160667D01*
X31250Y160391D01*
X36480D01*
Y167230D01*
D02*
G37*
G36*
X258805Y162480D02*
X256815D01*
X254978Y161719D01*
X253571Y160312D01*
X252810Y158475D01*
Y156485D01*
X253571Y154648D01*
X254978Y153241D01*
X256815Y152480D01*
X258805D01*
X260642Y153241D01*
X262049Y154648D01*
X262810Y156485D01*
Y158475D01*
X262049Y160312D01*
X260642Y161719D01*
X258805Y162480D01*
D02*
G37*
G36*
X176255Y159940D02*
X174265D01*
X172428Y159179D01*
X171021Y157772D01*
X170260Y155935D01*
Y153945D01*
X171021Y152108D01*
X172428Y150701D01*
X174265Y149940D01*
X176255D01*
X178092Y150701D01*
X179499Y152108D01*
X180260Y153945D01*
Y155935D01*
X179499Y157772D01*
X178092Y159179D01*
X176255Y159940D01*
D02*
G37*
G36*
X200385Y158670D02*
X198395D01*
X196558Y157909D01*
X195151Y156502D01*
X194390Y154665D01*
Y152675D01*
X195151Y150838D01*
X196558Y149431D01*
X198395Y148670D01*
X200385D01*
X202222Y149431D01*
X203629Y150838D01*
X204390Y152675D01*
Y154665D01*
X203629Y156502D01*
X202222Y157909D01*
X200385Y158670D01*
D02*
G37*
G36*
X291825Y154860D02*
X289835D01*
X287998Y154099D01*
X286591Y152692D01*
X285830Y150855D01*
Y148865D01*
X286591Y147028D01*
X287998Y145621D01*
X289835Y144860D01*
X291825D01*
X292470Y145127D01*
X293190Y144051D01*
X292941Y143802D01*
X292180Y141965D01*
Y139975D01*
X292941Y138138D01*
X294348Y136731D01*
X296185Y135970D01*
X298175D01*
X300012Y136731D01*
X301419Y138138D01*
X302180Y139975D01*
Y141965D01*
X301419Y143802D01*
X300012Y145209D01*
X298175Y145970D01*
X296185D01*
X295540Y145702D01*
X294820Y146779D01*
X295069Y147028D01*
X295830Y148865D01*
Y150855D01*
X295069Y152692D01*
X293662Y154099D01*
X291825Y154860D01*
D02*
G37*
G36*
X96245Y151050D02*
X94255D01*
X92418Y150289D01*
X91011Y148882D01*
X90250Y147045D01*
Y145055D01*
X91011Y143218D01*
X92418Y141811D01*
X94255Y141050D01*
X96245D01*
X98082Y141811D01*
X98331Y142060D01*
X99408Y141340D01*
X99140Y140695D01*
Y138705D01*
X99901Y136868D01*
X101308Y135461D01*
X103145Y134700D01*
X105135D01*
X106972Y135461D01*
X108379Y136868D01*
X109140Y138705D01*
Y140695D01*
X108379Y142532D01*
X106972Y143939D01*
X105135Y144700D01*
X103145D01*
X101308Y143939D01*
X101059Y143690D01*
X99983Y144410D01*
X100250Y145055D01*
Y147045D01*
X99489Y148882D01*
X98082Y150289D01*
X96245Y151050D01*
D02*
G37*
G36*
X26395Y139620D02*
X24405D01*
X22568Y138859D01*
X21161Y137452D01*
X20400Y135615D01*
Y133625D01*
X21161Y131788D01*
X22568Y130381D01*
X24405Y129620D01*
X26395D01*
X28232Y130381D01*
X29639Y131788D01*
X30400Y133625D01*
Y135615D01*
X29639Y137452D01*
X28232Y138859D01*
X26395Y139620D01*
D02*
G37*
%LPD*%
D91*
X37750Y168500D02*
D03*
Y276500D02*
D03*
D92*
X70050Y168500D02*
D03*
Y276500D02*
D03*
D102*
X273000Y233000D02*
D03*
X280000D02*
D03*
X287000D02*
D03*
Y240000D02*
D03*
X273000D02*
D03*
Y247000D02*
D03*
X280000D02*
D03*
X287000D02*
D03*
X59690Y304800D02*
D03*
X316230Y213360D02*
D03*
X294640Y123190D02*
D03*
X105410Y125730D02*
D03*
X81280Y151130D02*
D03*
X148590Y322580D02*
D03*
X251460Y277960D02*
D03*
X177180Y213867D02*
D03*
X172720Y168910D02*
D03*
X130810Y153670D02*
D03*
X165100D02*
D03*
X344170Y139700D02*
D03*
X255270Y208050D02*
D03*
X219439Y226331D02*
D03*
X240030Y317500D02*
D03*
X130810Y212090D02*
D03*
X107950Y207010D02*
D03*
X119380Y209550D02*
D03*
X128270Y161290D02*
D03*
X93980Y166370D02*
D03*
X109220Y247650D02*
D03*
X83820Y311150D02*
D03*
X72390Y294640D02*
D03*
X39370Y304800D02*
D03*
X46990Y316230D02*
D03*
X132080Y304800D02*
D03*
X107950Y275590D02*
D03*
X177800Y295910D02*
D03*
X176530Y312420D02*
D03*
X276860Y293370D02*
D03*
X226272Y264939D02*
D03*
X229870Y252730D02*
D03*
X217170Y170180D02*
D03*
X356870Y196850D02*
D03*
X361950Y248920D02*
D03*
X360680Y257810D02*
D03*
X336550Y251460D02*
D03*
X331970Y160020D02*
D03*
X308610Y168910D02*
D03*
X288290Y202250D02*
D03*
X281940Y205740D02*
D03*
X309880D02*
D03*
X321358Y149750D02*
D03*
X356870Y152400D02*
D03*
X344170Y123190D02*
D03*
X294640Y299720D02*
D03*
X289560Y316230D02*
D03*
X297180Y314960D02*
D03*
X283210Y134620D02*
D03*
X99060Y182880D02*
D03*
X123190Y196850D02*
D03*
X128270Y172720D02*
D03*
X107950Y236220D02*
D03*
X152400Y257810D02*
D03*
X25400Y156210D02*
D03*
D103*
X200000Y250000D02*
D03*
M02*
