G04*
G04 #@! TF.GenerationSoftware,Altium Limited,Altium Designer,24.5.2 (23)*
G04*
G04 Layer_Physical_Order=4*
G04 Layer_Color=16711680*
%FSLAX44Y44*%
%MOMM*%
G71*
G04*
G04 #@! TF.SameCoordinates,393E536B-8F59-49B7-8278-4084FBF8F83B*
G04*
G04*
G04 #@! TF.FilePolarity,Positive*
G04*
G01*
G75*
%ADD10C,0.2500*%
%ADD11C,0.2000*%
%ADD23R,0.4500X0.6000*%
%ADD24R,0.6000X0.4500*%
G04:AMPARAMS|DCode=29|XSize=0.9144mm|YSize=1.2192mm|CornerRadius=0.2286mm|HoleSize=0mm|Usage=FLASHONLY|Rotation=90.000|XOffset=0mm|YOffset=0mm|HoleType=Round|Shape=RoundedRectangle|*
%AMROUNDEDRECTD29*
21,1,0.9144,0.7620,0,0,90.0*
21,1,0.4572,1.2192,0,0,90.0*
1,1,0.4572,0.3810,0.2286*
1,1,0.4572,0.3810,-0.2286*
1,1,0.4572,-0.3810,-0.2286*
1,1,0.4572,-0.3810,0.2286*
%
%ADD29ROUNDEDRECTD29*%
%ADD30R,1.2192X0.9144*%
%ADD33R,0.6000X0.5000*%
%ADD36C,1.0000*%
G04:AMPARAMS|DCode=91|XSize=1.1mm|YSize=2.4mm|CornerRadius=0.55mm|HoleSize=0mm|Usage=FLASHONLY|Rotation=270.000|XOffset=0mm|YOffset=0mm|HoleType=Round|Shape=RoundedRectangle|*
%AMROUNDEDRECTD91*
21,1,1.1000,1.3000,0,0,270.0*
21,1,0.0000,2.4000,0,0,270.0*
1,1,1.1000,-0.6500,0.0000*
1,1,1.1000,-0.6500,0.0000*
1,1,1.1000,0.6500,0.0000*
1,1,1.1000,0.6500,0.0000*
%
%ADD91ROUNDEDRECTD91*%
G04:AMPARAMS|DCode=92|XSize=1mm|YSize=2.55mm|CornerRadius=0.5mm|HoleSize=0mm|Usage=FLASHONLY|Rotation=270.000|XOffset=0mm|YOffset=0mm|HoleType=Round|Shape=RoundedRectangle|*
%AMROUNDEDRECTD92*
21,1,1.0000,1.5500,0,0,270.0*
21,1,0.0000,2.5500,0,0,270.0*
1,1,1.0000,-0.7750,0.0000*
1,1,1.0000,-0.7750,0.0000*
1,1,1.0000,0.7750,0.0000*
1,1,1.0000,0.7750,0.0000*
%
%ADD92ROUNDEDRECTD92*%
%ADD96C,0.3000*%
%ADD97C,0.1500*%
%ADD98C,0.4000*%
%ADD99C,0.5000*%
%ADD100C,0.6000*%
%ADD101C,0.8000*%
%ADD102C,0.5000*%
%ADD103C,5.2000*%
%ADD104C,0.6000*%
%ADD105R,0.9144X1.2192*%
G04:AMPARAMS|DCode=106|XSize=0.9144mm|YSize=1.2192mm|CornerRadius=0.2286mm|HoleSize=0mm|Usage=FLASHONLY|Rotation=180.000|XOffset=0mm|YOffset=0mm|HoleType=Round|Shape=RoundedRectangle|*
%AMROUNDEDRECTD106*
21,1,0.9144,0.7620,0,0,180.0*
21,1,0.4572,1.2192,0,0,180.0*
1,1,0.4572,-0.2286,0.3810*
1,1,0.4572,0.2286,0.3810*
1,1,0.4572,0.2286,-0.3810*
1,1,0.4572,-0.2286,-0.3810*
%
%ADD106ROUNDEDRECTD106*%
%ADD107R,0.8000X2.0000*%
G04:AMPARAMS|DCode=108|XSize=0.7mm|YSize=0.3mm|CornerRadius=0.075mm|HoleSize=0mm|Usage=FLASHONLY|Rotation=180.000|XOffset=0mm|YOffset=0mm|HoleType=Round|Shape=RoundedRectangle|*
%AMROUNDEDRECTD108*
21,1,0.7000,0.1500,0,0,180.0*
21,1,0.5500,0.3000,0,0,180.0*
1,1,0.1500,-0.2750,0.0750*
1,1,0.1500,0.2750,0.0750*
1,1,0.1500,0.2750,-0.0750*
1,1,0.1500,-0.2750,-0.0750*
%
%ADD108ROUNDEDRECTD108*%
%ADD109R,0.8000X1.3800*%
%ADD110R,0.7000X0.3000*%
G04:AMPARAMS|DCode=111|XSize=1mm|YSize=3.5mm|CornerRadius=0.25mm|HoleSize=0mm|Usage=FLASHONLY|Rotation=0.000|XOffset=0mm|YOffset=0mm|HoleType=Round|Shape=RoundedRectangle|*
%AMROUNDEDRECTD111*
21,1,1.0000,3.0000,0,0,0.0*
21,1,0.5000,3.5000,0,0,0.0*
1,1,0.5000,0.2500,-1.5000*
1,1,0.5000,-0.2500,-1.5000*
1,1,0.5000,-0.2500,1.5000*
1,1,0.5000,0.2500,1.5000*
%
%ADD111ROUNDEDRECTD111*%
%ADD112R,1.0000X3.5000*%
%ADD113R,1.5000X3.4000*%
%ADD114R,0.5590X0.6480*%
G04:AMPARAMS|DCode=115|XSize=0.648mm|YSize=0.559mm|CornerRadius=0.1398mm|HoleSize=0mm|Usage=FLASHONLY|Rotation=90.000|XOffset=0mm|YOffset=0mm|HoleType=Round|Shape=RoundedRectangle|*
%AMROUNDEDRECTD115*
21,1,0.6480,0.2795,0,0,90.0*
21,1,0.3685,0.5590,0,0,90.0*
1,1,0.2795,0.1398,0.1843*
1,1,0.2795,0.1398,-0.1843*
1,1,0.2795,-0.1398,-0.1843*
1,1,0.2795,-0.1398,0.1843*
%
%ADD115ROUNDEDRECTD115*%
%ADD116C,1.0000*%
G36*
X306156Y270000D02*
X306449Y268529D01*
X307282Y267282D01*
X308529Y266449D01*
X310000Y266156D01*
X367961D01*
Y182039D01*
X350000D01*
X349950Y182029D01*
X349900Y182037D01*
X348920Y181988D01*
X348773Y181952D01*
X348622D01*
X346699Y181569D01*
X346514Y181492D01*
X346317Y181453D01*
X344506Y180703D01*
X344339Y180592D01*
X344153Y180515D01*
X342523Y179426D01*
X342381Y179284D01*
X342214Y179172D01*
X341159Y178116D01*
X339852Y178064D01*
X339760Y178091D01*
X339637Y178151D01*
X339558Y178209D01*
X336999Y180767D01*
Y182347D01*
X338893Y184241D01*
X339611Y185316D01*
X339864Y186584D01*
Y201310D01*
X339925Y201340D01*
X341134Y201581D01*
X341201Y201418D01*
X341556Y201063D01*
X341835Y200645D01*
X342253Y200366D01*
X342608Y200011D01*
X343072Y199819D01*
X343489Y199540D01*
X343982Y199442D01*
X344445Y199250D01*
X344948D01*
X345440Y199152D01*
X345933Y199250D01*
X346435D01*
X346898Y199442D01*
X347391Y199540D01*
X347808Y199819D01*
X348272Y200011D01*
X348627Y200366D01*
X349045Y200645D01*
X349324Y201063D01*
X349679Y201418D01*
X349871Y201882D01*
X350150Y202299D01*
X350248Y202792D01*
X350440Y203255D01*
Y203757D01*
X350538Y204250D01*
Y229895D01*
X350150Y231846D01*
X349045Y233500D01*
X321117Y261427D01*
X320700Y261706D01*
X320345Y262061D01*
X319881Y262253D01*
X319463Y262532D01*
X318971Y262630D01*
X318507Y262822D01*
X318005D01*
X317512Y262920D01*
X317020Y262822D01*
X316518D01*
X316054Y262630D01*
X315562Y262532D01*
X315379Y262411D01*
X296528D01*
X278563Y280375D01*
Y285206D01*
X278214Y286962D01*
X277219Y288450D01*
X274518Y291152D01*
Y306621D01*
X274930Y307615D01*
Y309605D01*
X274169Y311442D01*
X272762Y312849D01*
X270925Y313610D01*
X268935D01*
X267941Y313198D01*
X235581D01*
X224361Y324418D01*
X223949Y325412D01*
X222670Y326691D01*
X222755Y327289D01*
X223060Y327961D01*
X274468D01*
X274636Y326691D01*
X274158Y326563D01*
X272562Y325641D01*
X271259Y324338D01*
X270337Y322742D01*
X269860Y320962D01*
Y319118D01*
X270337Y317338D01*
X271259Y315742D01*
X272562Y314439D01*
X274158Y313517D01*
X275938Y313040D01*
X277782D01*
X279562Y313517D01*
X281158Y314439D01*
X282461Y315742D01*
X283383Y317338D01*
X283860Y319118D01*
Y320962D01*
X283383Y322742D01*
X282461Y324338D01*
X281158Y325641D01*
X279562Y326563D01*
X279084Y326691D01*
X279251Y327961D01*
X306156D01*
Y270000D01*
D02*
G37*
G36*
X186367Y326788D02*
X186261Y326682D01*
X185500Y324845D01*
Y322855D01*
X186261Y321018D01*
X187668Y319611D01*
X189505Y318850D01*
X191495D01*
X193332Y319611D01*
X193748Y320027D01*
X215356D01*
X215471Y319748D01*
X216878Y318341D01*
X217872Y317929D01*
X229092Y306709D01*
Y282570D01*
X222952Y276431D01*
X221958Y276019D01*
X220551Y274612D01*
X219790Y272775D01*
Y272368D01*
X218805Y271875D01*
X218520Y271822D01*
X214958Y274410D01*
X210956Y276449D01*
X206683Y277837D01*
X202246Y278540D01*
X201270D01*
Y251270D01*
X228540D01*
Y252246D01*
X227837Y256683D01*
X226449Y260956D01*
X224410Y264958D01*
X224009Y265510D01*
X224656Y266780D01*
X225785D01*
X227622Y267541D01*
X229029Y268948D01*
X229441Y269942D01*
X236924Y277426D01*
X237919Y278914D01*
X238268Y280670D01*
Y304022D01*
X265342D01*
Y289251D01*
X265691Y287495D01*
X266686Y286007D01*
X269030Y283662D01*
X268923Y282227D01*
X268470Y281924D01*
X266480D01*
X264643Y281163D01*
X263236Y279756D01*
X262475Y277919D01*
Y275930D01*
X263236Y274092D01*
X264643Y272685D01*
X266480Y271924D01*
X266842D01*
X267048Y271718D01*
X267248Y270712D01*
X267966Y269637D01*
X284883Y252721D01*
X284635Y251476D01*
X284145Y251273D01*
X283500Y250628D01*
X282855Y251273D01*
X281270Y251929D01*
Y247000D01*
X278730D01*
Y251929D01*
X277145Y251273D01*
X276500Y250628D01*
X275855Y251273D01*
X274270Y251929D01*
Y247000D01*
X273000D01*
Y245730D01*
X268071D01*
X268727Y244145D01*
X269372Y243500D01*
X268727Y242855D01*
X268071Y241270D01*
X273000D01*
Y238730D01*
X268071D01*
X268727Y237145D01*
X269372Y236500D01*
X268727Y235855D01*
X268071Y234270D01*
X273000D01*
Y231730D01*
X268071D01*
X268083Y231700D01*
X267378Y230644D01*
X262993D01*
X258293Y235343D01*
X257218Y236061D01*
X255950Y236314D01*
X238372D01*
X237104Y236061D01*
X236311Y235532D01*
X233805D01*
X232957Y236802D01*
X233287Y237599D01*
Y239589D01*
X232526Y241426D01*
X231119Y242833D01*
X229282Y243594D01*
X228859D01*
X228034Y244560D01*
X228540Y247754D01*
Y248730D01*
X200000D01*
Y250000D01*
X198730D01*
Y278809D01*
X198040Y279676D01*
Y281665D01*
X197279Y283502D01*
X195872Y284909D01*
X194035Y285670D01*
X192045D01*
X190208Y284909D01*
X188801Y283502D01*
X188040Y281665D01*
Y279675D01*
X188801Y277838D01*
X189015Y277624D01*
X188613Y276229D01*
X185042Y274410D01*
X184347Y273905D01*
X183687Y274241D01*
X183169Y274619D01*
X182468Y276312D01*
X181062Y277718D01*
X179224Y278479D01*
X177235D01*
X175397Y277718D01*
X174196Y276517D01*
X173225Y276739D01*
X172926Y276907D01*
Y278130D01*
X172703Y279827D01*
X172048Y281408D01*
X171006Y282766D01*
X165926Y287846D01*
X164568Y288888D01*
X162987Y289543D01*
X161290Y289766D01*
X151638D01*
X150933Y290822D01*
X151050Y291105D01*
Y293095D01*
X150289Y294932D01*
X148882Y296339D01*
X147045Y297100D01*
X145055D01*
X143218Y296339D01*
X141811Y294932D01*
X141050Y293095D01*
Y291105D01*
X141167Y290822D01*
X140462Y289766D01*
X128270D01*
X126573Y289543D01*
X124992Y288888D01*
X123812Y287982D01*
X123772Y287977D01*
X121948Y287221D01*
X120381Y286019D01*
X115151Y280789D01*
X113949Y279222D01*
X113193Y277398D01*
X112935Y275440D01*
Y254042D01*
X113193Y252084D01*
X113412Y251556D01*
Y239042D01*
X113761Y237286D01*
X114756Y235798D01*
X116244Y234803D01*
X118000Y234454D01*
X123000D01*
X124756Y234803D01*
X126244Y235798D01*
X127239Y237286D01*
X127588Y239042D01*
Y251556D01*
X127807Y252084D01*
X128065Y254042D01*
Y272306D01*
X131079Y275321D01*
X132102Y276654D01*
X158574D01*
X159814Y275414D01*
Y237313D01*
X159749Y236216D01*
X158578Y236140D01*
X157755D01*
X155918Y235379D01*
X154511Y233972D01*
X153750Y232135D01*
Y230145D01*
X154511Y228308D01*
X155000Y227819D01*
X154474Y226549D01*
X129200D01*
X128648Y227881D01*
X127242Y229288D01*
X125404Y230049D01*
X123415D01*
X121577Y229288D01*
X120171Y227881D01*
X119410Y226044D01*
Y224055D01*
X120171Y222217D01*
X121043Y221345D01*
X120171Y220473D01*
X119410Y218635D01*
Y216646D01*
X120171Y214809D01*
X121577Y213402D01*
X123415Y212641D01*
X125404D01*
X127242Y213402D01*
X128648Y214809D01*
X129200Y216141D01*
X152077D01*
X152783Y215085D01*
X152480Y214355D01*
Y212365D01*
X153241Y210528D01*
X154648Y209121D01*
X156485Y208360D01*
X158475D01*
X160312Y209121D01*
X161719Y210528D01*
X162480Y212365D01*
Y214355D01*
X162177Y215085D01*
X162883Y216141D01*
X177637D01*
X183051Y210727D01*
X184209Y209953D01*
X185575Y209681D01*
X196126D01*
X196832Y208625D01*
X196575Y208005D01*
Y206015D01*
X197336Y204178D01*
X198743Y202771D01*
X199187Y202587D01*
X199218Y201225D01*
X197811Y199818D01*
X197050Y197981D01*
Y195992D01*
X197412Y195118D01*
X196541Y194757D01*
X195134Y193351D01*
X195089Y193242D01*
X193843Y192994D01*
X187161Y199676D01*
X186791Y201536D01*
X185575Y203355D01*
X183756Y204571D01*
X181610Y204998D01*
X179464Y204571D01*
X177645Y203355D01*
X176429Y201536D01*
X176002Y199390D01*
Y199284D01*
X175260Y198138D01*
X174768Y198040D01*
X174265D01*
X173802Y197848D01*
X173309Y197750D01*
X172892Y197471D01*
X172428Y197279D01*
X172073Y196924D01*
X171655Y196645D01*
X163928Y188918D01*
X139700D01*
X137749Y188530D01*
X137061Y188070D01*
X134700D01*
Y188070D01*
X133510Y188263D01*
Y190364D01*
X133859Y190886D01*
X134011Y191650D01*
X129628D01*
X129571Y191688D01*
X128010Y191999D01*
Y194190D01*
X134011D01*
X133859Y194954D01*
X133277Y195825D01*
X133421Y197260D01*
X133642Y197351D01*
X135049Y198758D01*
X135810Y200595D01*
Y202585D01*
X135049Y204422D01*
X133642Y205829D01*
X131805Y206590D01*
X129815D01*
X127978Y205829D01*
X127393Y205244D01*
X126165D01*
X125310Y205414D01*
X114470D01*
X113202Y205161D01*
X112127Y204443D01*
X105867Y198183D01*
X105149Y197108D01*
X105012Y196420D01*
X102710D01*
Y192270D01*
X101440Y191403D01*
X101235Y191444D01*
X95420D01*
X94152Y191191D01*
X93077Y190473D01*
X86387Y183783D01*
X85669Y182708D01*
X85416Y181440D01*
Y172991D01*
X84146Y172615D01*
X83178Y173878D01*
X81602Y175086D01*
X79768Y175846D01*
X77800Y176105D01*
X70789D01*
Y203893D01*
X72059Y204419D01*
X79352Y197126D01*
X79486Y196113D01*
X80141Y194531D01*
X81183Y193174D01*
X82540Y192132D01*
X84122Y191477D01*
X85818Y191253D01*
X87515Y191477D01*
X89096Y192132D01*
X90454Y193174D01*
X91496Y194531D01*
X92151Y196113D01*
X92374Y197809D01*
Y199932D01*
X92151Y201628D01*
X91496Y203210D01*
X90454Y204568D01*
X82756Y212266D01*
Y225055D01*
X83812Y225760D01*
X84440Y225500D01*
X85388D01*
X86601Y224287D01*
Y221168D01*
X86873Y219802D01*
X87647Y218644D01*
X89243Y217048D01*
Y216100D01*
X90004Y214263D01*
X91411Y212856D01*
X91989Y212616D01*
X92287Y211118D01*
X92281Y211112D01*
X91520Y209275D01*
Y207285D01*
X92281Y205448D01*
X93688Y204041D01*
X95525Y203280D01*
X97515D01*
X99352Y204041D01*
X100759Y205448D01*
X101520Y207285D01*
Y208233D01*
X103953Y210667D01*
X104727Y211824D01*
X104999Y213190D01*
Y218709D01*
X104727Y220074D01*
X103953Y221232D01*
X100795Y224391D01*
Y225338D01*
X100034Y227176D01*
X98627Y228583D01*
X96789Y229344D01*
X94800D01*
X92962Y228583D01*
X92681Y228301D01*
X90435Y230547D01*
Y231495D01*
X89674Y233332D01*
X88267Y234739D01*
X86430Y235500D01*
X84440D01*
X84032Y235331D01*
X83313Y236408D01*
X89702Y242796D01*
X90744Y244154D01*
X91399Y245735D01*
X91622Y247432D01*
X91399Y249129D01*
X90744Y250710D01*
X89702Y252068D01*
X88344Y253110D01*
X86763Y253765D01*
X85066Y253988D01*
X83369Y253765D01*
X81788Y253110D01*
X80430Y252068D01*
X72059Y243697D01*
X70789Y244223D01*
Y268895D01*
X77800D01*
X79768Y269154D01*
X81602Y269914D01*
X83178Y271122D01*
X84386Y272698D01*
X85146Y274532D01*
X85238Y275230D01*
X70050D01*
X54862D01*
X54954Y274532D01*
X55714Y272698D01*
X55921Y272428D01*
X55359Y271289D01*
X51821D01*
X51655Y271628D01*
X51320Y272559D01*
X52083Y274401D01*
X52192Y275230D01*
X37750D01*
X23308D01*
X23417Y274401D01*
X24180Y272559D01*
X23846Y271628D01*
X23679Y271289D01*
X12039D01*
Y310000D01*
Y311769D01*
X12729Y315239D01*
X14083Y318508D01*
X16049Y321449D01*
X18551Y323951D01*
X21492Y325917D01*
X24761Y327271D01*
X28231Y327961D01*
X30000Y327961D01*
X86960Y327961D01*
Y312812D01*
X107040D01*
Y327961D01*
X153960D01*
Y312812D01*
X174040D01*
Y327961D01*
X185881D01*
X186367Y326788D01*
D02*
G37*
G36*
X317481Y219762D02*
X318639Y218988D01*
X319563Y218805D01*
X319611Y218688D01*
X321018Y217281D01*
X322855Y216520D01*
X324845D01*
X325616Y216840D01*
X326886Y215991D01*
Y209653D01*
X326704Y209470D01*
X325395D01*
X323558Y208709D01*
X322151Y207302D01*
X321390Y205465D01*
Y203475D01*
X322151Y201638D01*
X322270Y201519D01*
X322172Y201284D01*
X321370Y200346D01*
X320193Y200572D01*
X319765Y200750D01*
X317775D01*
X315938Y199989D01*
X314531Y198582D01*
X313770Y196745D01*
Y194755D01*
X314531Y192918D01*
X315938Y191511D01*
X317775Y190750D01*
X319765D01*
X320099Y190889D01*
X321370Y190113D01*
Y184154D01*
X325969D01*
X326674Y183098D01*
X326470Y182605D01*
Y180615D01*
X326695Y180071D01*
X325856Y178779D01*
X324634Y178536D01*
X323038Y177469D01*
X321971Y175873D01*
X321596Y173990D01*
Y171450D01*
X328803D01*
Y170180D01*
X330073D01*
Y161450D01*
X331089D01*
X332703Y161771D01*
X333017Y161793D01*
X334098Y161049D01*
X334189Y160592D01*
X334907Y159517D01*
X352286Y142137D01*
Y134567D01*
X351361Y133642D01*
X350600Y131805D01*
Y129815D01*
X351361Y127978D01*
X352339Y127000D01*
X351361Y126022D01*
X350600Y124185D01*
Y122195D01*
X351361Y120358D01*
X352768Y118951D01*
X354318Y118309D01*
X354065Y117039D01*
X334216D01*
X332678Y117345D01*
X331229Y117945D01*
X329925Y118816D01*
X328816Y119925D01*
X327945Y121229D01*
X327345Y122678D01*
X327039Y124216D01*
Y135000D01*
X327029Y135050D01*
X327037Y135100D01*
X326988Y136080D01*
X326952Y136227D01*
Y136378D01*
X326569Y138301D01*
X326492Y138486D01*
X326453Y138683D01*
X325703Y140494D01*
X325592Y140661D01*
X325515Y140847D01*
X324426Y142477D01*
X324283Y142619D01*
X324172Y142786D01*
X322786Y144172D01*
X322619Y144284D01*
X322477Y144425D01*
X320847Y145515D01*
X320661Y145591D01*
X320494Y145703D01*
X318683Y146453D01*
X318486Y146492D01*
X318301Y146569D01*
X316378Y146952D01*
X316227D01*
X316080Y146988D01*
X315100Y147037D01*
X315000Y147022D01*
X314900Y147037D01*
X313920Y146988D01*
X313773Y146952D01*
X313622D01*
X311699Y146569D01*
X311514Y146492D01*
X311317Y146453D01*
X309506Y145703D01*
X309339Y145591D01*
X309153Y145515D01*
X307523Y144425D01*
X307381Y144283D01*
X307214Y144172D01*
X305828Y142786D01*
X305716Y142619D01*
X305574Y142477D01*
X304485Y140847D01*
X304408Y140661D01*
X304297Y140494D01*
X303547Y138683D01*
X303508Y138486D01*
X303431Y138301D01*
X303048Y136378D01*
Y136227D01*
X303012Y136080D01*
X302963Y135100D01*
X302971Y135050D01*
X302961Y135000D01*
Y117039D01*
X272216D01*
X270678Y117345D01*
X269229Y117945D01*
X267925Y118816D01*
X266816Y119925D01*
X265945Y121229D01*
X265345Y122678D01*
X265039Y124216D01*
X265039Y125000D01*
X265029Y125050D01*
X265037Y125100D01*
X264988Y126080D01*
X264952Y126227D01*
Y126378D01*
X264569Y128301D01*
X264492Y128486D01*
X264453Y128683D01*
X263703Y130494D01*
X263591Y130661D01*
X263515Y130847D01*
X262425Y132477D01*
X262283Y132619D01*
X262172Y132786D01*
X260786Y134172D01*
X260619Y134284D01*
X260477Y134425D01*
X258847Y135515D01*
X258661Y135591D01*
X258494Y135703D01*
X256683Y136453D01*
X256486Y136492D01*
X256301Y136569D01*
X254378Y136952D01*
X254227D01*
X254080Y136988D01*
X253100Y137037D01*
X253050Y137029D01*
X253000Y137039D01*
X133000Y137039D01*
X132950Y137029D01*
X132900Y137037D01*
X131920Y136988D01*
X131773Y136952D01*
X131622D01*
X129699Y136569D01*
X129514Y136492D01*
X129317Y136453D01*
X127506Y135703D01*
X127339Y135591D01*
X127153Y135515D01*
X125523Y134425D01*
X125381Y134284D01*
X125214Y134172D01*
X123828Y132786D01*
X123716Y132619D01*
X123574Y132477D01*
X122485Y130847D01*
X122409Y130661D01*
X122297Y130494D01*
X121547Y128683D01*
X121508Y128486D01*
X121431Y128301D01*
X121048Y126378D01*
Y126227D01*
X121012Y126080D01*
X120963Y125100D01*
X120971Y125050D01*
X120961Y125000D01*
X120961Y124216D01*
X120655Y122678D01*
X120055Y121229D01*
X119184Y119925D01*
X118075Y118816D01*
X116771Y117945D01*
X115322Y117345D01*
X113784Y117039D01*
X28231D01*
X24761Y117729D01*
X21492Y119083D01*
X18551Y121049D01*
X16049Y123551D01*
X14083Y126492D01*
X12729Y129761D01*
X12039Y133231D01*
Y135000D01*
Y173711D01*
X23679D01*
X23846Y173372D01*
X24180Y172441D01*
X23417Y170599D01*
X23308Y169770D01*
X37750D01*
X52192D01*
X52083Y170599D01*
X51320Y172441D01*
X51655Y173372D01*
X51821Y173711D01*
X55359D01*
X55921Y172572D01*
X55714Y172303D01*
X54954Y170468D01*
X54862Y169770D01*
X70050D01*
Y168500D01*
X71320D01*
Y160895D01*
X77800D01*
X79768Y161154D01*
X81602Y161914D01*
X83178Y163122D01*
X84146Y164385D01*
X85416Y164009D01*
Y164000D01*
X85669Y162732D01*
X86387Y161657D01*
X95724Y152320D01*
X95198Y151050D01*
X94255D01*
X92418Y150289D01*
X91011Y148882D01*
X90250Y147045D01*
Y146097D01*
X82342Y138189D01*
X28902D01*
X28232Y138859D01*
X26395Y139620D01*
X24405D01*
X22568Y138859D01*
X21161Y137452D01*
X20400Y135615D01*
Y133625D01*
X21161Y131788D01*
X22568Y130381D01*
X24405Y129620D01*
X26395D01*
X28232Y130381D01*
X28902Y131051D01*
X75085D01*
X75536Y129781D01*
X74757Y128432D01*
X74280Y126652D01*
Y124808D01*
X74757Y123028D01*
X75679Y121432D01*
X76982Y120129D01*
X78578Y119207D01*
X80358Y118730D01*
X82202D01*
X83982Y119207D01*
X85578Y120129D01*
X86881Y121432D01*
X87803Y123028D01*
X88280Y124808D01*
Y126652D01*
X87803Y128432D01*
X86881Y130028D01*
X86341Y130568D01*
X86343Y132097D01*
X95297Y141050D01*
X96245D01*
X98082Y141811D01*
X98331Y142060D01*
X99408Y141340D01*
X99140Y140695D01*
Y138705D01*
X99901Y136868D01*
X101308Y135461D01*
X103145Y134700D01*
X105135D01*
X106972Y135461D01*
X108379Y136868D01*
X109140Y138705D01*
Y140695D01*
X108379Y142532D01*
X107075Y143836D01*
X107129Y144311D01*
X107464Y145106D01*
X168423D01*
X169691Y145359D01*
X170766Y146077D01*
X174629Y149940D01*
X176255D01*
X178092Y150701D01*
X179499Y152108D01*
X180260Y153945D01*
Y155935D01*
X179499Y157772D01*
X178092Y159179D01*
X176255Y159940D01*
X174265D01*
X172428Y159179D01*
X171021Y157772D01*
X170260Y155935D01*
Y154944D01*
X167050Y151734D01*
X165553D01*
X164290Y151750D01*
X164290Y153004D01*
Y155270D01*
X158750D01*
Y157810D01*
X164290D01*
X164290Y161330D01*
X163750Y162376D01*
X163750Y170290D01*
X161321D01*
X161210Y170455D01*
Y172445D01*
X160449Y174282D01*
X159042Y175689D01*
X157205Y176450D01*
X155215D01*
X153378Y175689D01*
X152433Y174744D01*
X151963Y175213D01*
X150125Y175975D01*
X148136D01*
X146510Y175301D01*
X145240Y175814D01*
Y178722D01*
X166040D01*
X167991Y179110D01*
X169645Y180215D01*
X178865Y189435D01*
X179144Y189853D01*
X179499Y190208D01*
X180843Y190133D01*
X193782Y177194D01*
Y153670D01*
X194209Y151524D01*
X195425Y149705D01*
X197244Y148489D01*
X199390Y148062D01*
X201536Y148489D01*
X203355Y149705D01*
X203710Y150236D01*
X204980Y149850D01*
Y142940D01*
X216980D01*
Y166940D01*
X215553D01*
X215161Y168909D01*
X214218Y170321D01*
Y173530D01*
X216840D01*
Y179070D01*
X218110D01*
Y180340D01*
X222900D01*
Y184610D01*
X218065D01*
X217812Y185880D01*
X218732Y186261D01*
X219872Y187401D01*
X220540Y186733D01*
X222377Y185972D01*
X224367D01*
X226204Y186733D01*
X227294Y187823D01*
X227512Y187604D01*
X229350Y186843D01*
X231339D01*
X233176Y187604D01*
X233404Y187832D01*
X233885Y187784D01*
X242010Y179659D01*
Y177927D01*
X242343Y176255D01*
X243290Y174837D01*
X244708Y173890D01*
X246380Y173557D01*
X253451D01*
X253977Y172287D01*
X246585Y164895D01*
X245480Y163241D01*
X245092Y161290D01*
Y154382D01*
X237536D01*
Y154940D01*
X237313Y156637D01*
X236980Y157440D01*
Y166940D01*
X224980D01*
Y157440D01*
X224647Y156637D01*
X224424Y154940D01*
Y148940D01*
X224647Y147243D01*
X224980Y146440D01*
Y142940D01*
X227784D01*
X228816Y142148D01*
X230397Y141493D01*
X232094Y141270D01*
X242094D01*
Y140875D01*
X258286D01*
Y145630D01*
X259556Y145755D01*
X259645Y145308D01*
X260419Y144150D01*
X264500Y140068D01*
Y136115D01*
X274500D01*
Y144529D01*
X275040Y145575D01*
X275040Y145575D01*
X275040Y145575D01*
Y149345D01*
X269500D01*
Y151885D01*
X275040D01*
Y154564D01*
X275110D01*
Y159074D01*
X269775D01*
X264440D01*
Y158645D01*
X263170Y157996D01*
X262810Y158256D01*
Y158475D01*
X262049Y160312D01*
X260642Y161719D01*
X259923Y162017D01*
X259625Y163515D01*
X269266Y173156D01*
X271205D01*
Y173014D01*
X280795D01*
Y176731D01*
X280873Y177125D01*
X282251Y177543D01*
X282918Y176876D01*
X284755Y176115D01*
X286745D01*
X288195Y176716D01*
X289465Y176100D01*
Y162084D01*
X302609D01*
Y178276D01*
X300704D01*
Y185578D01*
X301499Y186768D01*
X301831Y188440D01*
Y196060D01*
X301499Y197732D01*
X300552Y199150D01*
X299134Y200097D01*
X297462Y200430D01*
X292890D01*
X291217Y200097D01*
X289799Y199150D01*
X288852Y197732D01*
X288520Y196060D01*
Y194828D01*
X284400D01*
X282449Y194440D01*
X282135Y194230D01*
X280170D01*
X279900Y194230D01*
Y194230D01*
X278900D01*
Y194230D01*
X275510D01*
Y202114D01*
X276050Y203160D01*
X276050Y203160D01*
X276050Y203160D01*
Y206680D01*
X270510D01*
Y209220D01*
X276050D01*
Y209981D01*
X295644D01*
X297010Y210253D01*
X298168Y211027D01*
X307093Y219951D01*
X317292D01*
X317481Y219762D01*
D02*
G37*
G36*
X119380Y175980D02*
X121970D01*
Y173880D01*
X126740D01*
Y177920D01*
X129280D01*
Y173880D01*
X134050D01*
X134160Y172656D01*
Y169530D01*
X138430D01*
Y174320D01*
X140970D01*
Y169530D01*
X143590D01*
X143590Y162376D01*
X143050Y161330D01*
X143050Y160744D01*
Y157810D01*
X148590D01*
Y155270D01*
X143050D01*
X143050Y151750D01*
X141787Y151734D01*
X105683D01*
X92044Y165373D01*
Y169631D01*
X92985Y170260D01*
X94975D01*
X96812Y171021D01*
X97737Y171946D01*
X98865D01*
X100133Y172199D01*
X101208Y172917D01*
X102711Y174420D01*
X113710D01*
Y175980D01*
X116840D01*
Y185420D01*
X119380D01*
Y175980D01*
D02*
G37*
G36*
X348622Y158048D02*
X348773D01*
X348920Y158012D01*
X349900Y157963D01*
X349950Y157971D01*
X350000Y157961D01*
X360784Y157961D01*
X362322Y157655D01*
X363771Y157055D01*
X365075Y156184D01*
X366184Y155075D01*
X367055Y153771D01*
X367655Y152322D01*
X367961Y150784D01*
X367961Y117039D01*
X357135D01*
X356882Y118309D01*
X358432Y118951D01*
X359839Y120358D01*
X360600Y122195D01*
Y124185D01*
X359839Y126022D01*
X358861Y127000D01*
X359839Y127978D01*
X360600Y129815D01*
Y131805D01*
X359839Y133642D01*
X358914Y134567D01*
Y143510D01*
X358661Y144778D01*
X357943Y145853D01*
X346651Y157146D01*
X347276Y158316D01*
X348622Y158048D01*
D02*
G37*
%LPC*%
G36*
X174040Y310272D02*
X165270D01*
Y292002D01*
X174040D01*
Y310272D01*
D02*
G37*
G36*
X162730D02*
X153960D01*
Y292002D01*
X162730D01*
Y310272D01*
D02*
G37*
G36*
X107040D02*
X98270D01*
Y292002D01*
X107040D01*
Y310272D01*
D02*
G37*
G36*
X95730D02*
X86960D01*
Y292002D01*
X95730D01*
Y310272D01*
D02*
G37*
G36*
X197845Y302180D02*
X195855D01*
X194018Y301419D01*
X192611Y300012D01*
X191850Y298175D01*
Y296185D01*
X192611Y294348D01*
X194018Y292941D01*
X195855Y292180D01*
X197845D01*
X199682Y292941D01*
X200607Y293866D01*
X203097D01*
X213440Y283524D01*
Y282215D01*
X214201Y280378D01*
X215608Y278971D01*
X217445Y278210D01*
X219435D01*
X221272Y278971D01*
X222679Y280378D01*
X223440Y282215D01*
Y284205D01*
X222679Y286042D01*
X221272Y287449D01*
X219435Y288210D01*
X218126D01*
X206813Y299523D01*
X205738Y300241D01*
X204470Y300494D01*
X200607D01*
X199682Y301419D01*
X197845Y302180D01*
D02*
G37*
G36*
X77800Y284105D02*
X71320D01*
Y277770D01*
X85238D01*
X85146Y278468D01*
X84386Y280303D01*
X83178Y281878D01*
X81602Y283086D01*
X79768Y283846D01*
X77800Y284105D01*
D02*
G37*
G36*
X68780D02*
X62300D01*
X60332Y283846D01*
X58498Y283086D01*
X56922Y281878D01*
X55714Y280303D01*
X54954Y278468D01*
X54862Y277770D01*
X68780D01*
Y284105D01*
D02*
G37*
G36*
X44250Y284609D02*
X39020D01*
Y277770D01*
X52192D01*
X52083Y278599D01*
X51273Y280555D01*
X49984Y282234D01*
X48305Y283523D01*
X46349Y284333D01*
X44250Y284609D01*
D02*
G37*
G36*
X36480D02*
X31250D01*
X29151Y284333D01*
X27195Y283523D01*
X25516Y282234D01*
X24227Y280555D01*
X23417Y278599D01*
X23308Y277770D01*
X36480D01*
Y284609D01*
D02*
G37*
G36*
X148040Y274082D02*
X141770D01*
Y255312D01*
X148040D01*
Y274082D01*
D02*
G37*
G36*
X139230D02*
X132960D01*
Y255312D01*
X139230D01*
Y274082D01*
D02*
G37*
G36*
X249915Y270430D02*
X247925D01*
X246088Y269669D01*
X244681Y268262D01*
X243920Y266425D01*
Y264435D01*
X244681Y262598D01*
X245739Y261540D01*
X245489Y260642D01*
X245315Y260241D01*
X243548Y259509D01*
X242141Y258102D01*
X241380Y256265D01*
Y254275D01*
X242141Y252438D01*
X243548Y251031D01*
X245385Y250270D01*
X247375D01*
X249212Y251031D01*
X250619Y252438D01*
X251380Y254275D01*
Y256265D01*
X250619Y258102D01*
X249561Y259160D01*
X249811Y260058D01*
X249984Y260459D01*
X251752Y261191D01*
X253159Y262598D01*
X253920Y264435D01*
Y266425D01*
X253159Y268262D01*
X251752Y269669D01*
X249915Y270430D01*
D02*
G37*
G36*
X271730Y251929D02*
X270145Y251273D01*
X268727Y249855D01*
X268071Y248270D01*
X271730D01*
Y251929D01*
D02*
G37*
G36*
X239755Y250110D02*
X237765D01*
X235928Y249349D01*
X234521Y247942D01*
X233760Y246105D01*
Y244115D01*
X234521Y242278D01*
X235928Y240871D01*
X237765Y240110D01*
X239755D01*
X241592Y240871D01*
X242999Y242278D01*
X243760Y244115D01*
Y246105D01*
X242999Y247942D01*
X241592Y249349D01*
X239755Y250110D01*
D02*
G37*
G36*
X148040Y252772D02*
X141770D01*
Y234002D01*
X148040D01*
Y252772D01*
D02*
G37*
G36*
X139230D02*
X132960D01*
Y234002D01*
X139230D01*
Y252772D01*
D02*
G37*
G36*
X222900Y177800D02*
X219380D01*
Y173530D01*
X222900D01*
Y177800D01*
D02*
G37*
G36*
X275110Y166124D02*
X271045D01*
Y161614D01*
X275110D01*
Y166124D01*
D02*
G37*
G36*
X268505D02*
X264440D01*
Y161614D01*
X268505D01*
Y166124D01*
D02*
G37*
G36*
X327533Y168910D02*
X321596D01*
Y166370D01*
X321971Y164487D01*
X323038Y162891D01*
X324634Y161824D01*
X326517Y161450D01*
X327533D01*
Y168910D01*
D02*
G37*
G36*
X68780Y167230D02*
X54862D01*
X54954Y166532D01*
X55714Y164697D01*
X56922Y163122D01*
X58498Y161914D01*
X60332Y161154D01*
X62300Y160895D01*
X68780D01*
Y167230D01*
D02*
G37*
G36*
X52192Y167230D02*
X39020D01*
Y160391D01*
X44250D01*
X46349Y160667D01*
X48305Y161477D01*
X49984Y162766D01*
X51273Y164445D01*
X52083Y166401D01*
X52192Y167230D01*
D02*
G37*
G36*
X36480D02*
X23308D01*
X23417Y166401D01*
X24227Y164445D01*
X25516Y162766D01*
X27195Y161477D01*
X29151Y160667D01*
X31250Y160391D01*
X36480D01*
Y167230D01*
D02*
G37*
G36*
X288750Y139780D02*
X284480D01*
Y136010D01*
X288750D01*
Y139780D01*
D02*
G37*
G36*
X281940D02*
X277670D01*
Y136010D01*
X281940D01*
Y139780D01*
D02*
G37*
G36*
X283622Y165651D02*
X280828D01*
X279502Y165387D01*
X278378Y164636D01*
X277627Y163512D01*
X277363Y162187D01*
Y158502D01*
X277627Y157176D01*
X277940Y156708D01*
X278210Y155550D01*
X278210Y155550D01*
X278210Y155550D01*
Y147136D01*
X277670Y146090D01*
X277670Y146090D01*
X277670Y146090D01*
Y142320D01*
X283210D01*
X288750D01*
Y144167D01*
X289806Y144872D01*
X289835Y144860D01*
X291825D01*
X292470Y145127D01*
X293190Y144051D01*
X292941Y143802D01*
X292180Y141965D01*
Y139975D01*
X292941Y138138D01*
X294348Y136731D01*
X296185Y135970D01*
X298175D01*
X300012Y136731D01*
X301419Y138138D01*
X302180Y139975D01*
Y141965D01*
X301419Y143802D01*
X300012Y145209D01*
X298175Y145970D01*
X296185D01*
X295540Y145702D01*
X294820Y146779D01*
X295069Y147028D01*
X295830Y148865D01*
Y150855D01*
X295069Y152692D01*
X293662Y154099D01*
X291825Y154860D01*
X289835D01*
X289266Y154624D01*
X288210Y155330D01*
Y155550D01*
X287264D01*
X286585Y156820D01*
X286823Y157176D01*
X287087Y158502D01*
Y162187D01*
X286823Y163512D01*
X286072Y164636D01*
X284948Y165387D01*
X283622Y165651D01*
D02*
G37*
%LPD*%
D10*
X217764Y323850D02*
X219034Y322580D01*
X219710D01*
X190500Y323850D02*
X217764D01*
D11*
X185575Y213250D02*
X236472D01*
X125730Y219710D02*
X179115D01*
X125730Y222980D02*
X180469D01*
X186929Y216520D01*
X179115Y219710D02*
X185575Y213250D01*
X186929Y216520D02*
X235117D01*
X124410Y224300D02*
X125730Y222980D01*
X124410Y224300D02*
Y225049D01*
Y217641D02*
Y218389D01*
X125730Y219710D01*
X235117Y216520D02*
X235417Y216820D01*
X236472Y213250D02*
X236772Y213550D01*
X235417Y216820D02*
X294290D01*
X236772Y213550D02*
X295644D01*
X305614Y223520D01*
X294290Y216820D02*
X304260Y226790D01*
X283826Y150434D02*
X290256D01*
X290830Y149860D01*
X283210Y151050D02*
X283826Y150434D01*
X323085Y228025D02*
X323850Y228790D01*
X320005Y228025D02*
X323085D01*
X304260Y226790D02*
X318770D01*
X320005Y228025D01*
X305614Y223520D02*
X318770D01*
X323085Y222285D02*
X323850Y221520D01*
X318770Y223520D02*
X320005Y222285D01*
X323085D01*
X269000Y140615D02*
X269500D01*
X262942Y146673D02*
X269000Y140615D01*
X262942Y146673D02*
Y152348D01*
X257810Y157480D02*
X262942Y152348D01*
X282225Y152035D02*
X283210Y151050D01*
X282225Y152035D02*
Y160344D01*
X156210Y171450D02*
X156750Y170910D01*
Y167290D02*
Y170910D01*
X148590Y166370D02*
X149131Y166911D01*
Y170975D01*
X85435Y230500D02*
X90170Y225765D01*
Y221168D02*
Y225765D01*
Y221168D02*
X94243Y217095D01*
X156750Y167290D02*
X158000Y166040D01*
X158750D01*
X83820Y134620D02*
X95250Y146050D01*
X25400Y134620D02*
X83820D01*
X96520Y208280D02*
X101430Y213190D01*
Y218709D01*
X95795Y224344D02*
X101430Y218709D01*
D23*
X208610Y179070D02*
D03*
X218110D02*
D03*
X284150Y189230D02*
D03*
X274650D02*
D03*
D24*
X158750Y156540D02*
D03*
Y166040D02*
D03*
X148590Y156540D02*
D03*
Y166040D02*
D03*
X270510Y207950D02*
D03*
Y198450D02*
D03*
X209550D02*
D03*
Y207950D02*
D03*
X139700Y183820D02*
D03*
Y174320D02*
D03*
X219710Y207950D02*
D03*
Y198450D02*
D03*
X240030Y207950D02*
D03*
Y198450D02*
D03*
X229870Y207950D02*
D03*
Y198450D02*
D03*
X250500Y208250D02*
D03*
Y198750D02*
D03*
X260497Y208500D02*
D03*
Y199000D02*
D03*
D29*
X250190Y180213D02*
D03*
D30*
Y147447D02*
D03*
D33*
X269500Y150615D02*
D03*
Y140615D02*
D03*
X283210Y151050D02*
D03*
Y141050D02*
D03*
D36*
X81280Y125730D02*
D03*
X276860Y320040D02*
D03*
D91*
X37750Y168500D02*
D03*
Y276500D02*
D03*
D92*
X70050Y168500D02*
D03*
Y276500D02*
D03*
D96*
X130810Y153670D02*
X131351D01*
X134221Y156540D02*
X148590D01*
X131351Y153670D02*
X134221Y156540D01*
X158750D02*
X159500D01*
X161987Y154053D02*
X164717D01*
X165100Y153670D01*
X159500Y156540D02*
X161987Y154053D01*
X209550Y198450D02*
X210300D01*
X211050Y195549D02*
X215900Y190699D01*
Y190500D02*
Y190699D01*
X210300Y198450D02*
X211050Y197700D01*
Y195549D02*
Y197700D01*
X122807Y161673D02*
X127887D01*
X118110Y166370D02*
X122807Y161673D01*
X127887D02*
X128270Y161290D01*
X118110Y166370D02*
Y185420D01*
X96608Y311150D02*
X97000Y311542D01*
X83820Y311150D02*
X96608D01*
X164000Y311542D02*
X164878Y312420D01*
X176530D01*
X261620Y185420D02*
X269010Y192810D01*
Y197700D01*
X269760Y198450D02*
X270510D01*
X269010Y197700D02*
X269760Y198450D01*
X260424Y193114D02*
Y198926D01*
X260350Y193040D02*
X260424Y193114D01*
Y198926D02*
X260497Y199000D01*
X283210Y134620D02*
Y141050D01*
X108210Y182920D02*
X115610D01*
X99060Y182880D02*
X99100Y182920D01*
X108210D01*
X126110Y192920D02*
Y193977D01*
X123237Y196850D02*
X126110Y193977D01*
X123190Y196850D02*
X123237D01*
X126110Y192920D02*
X128010D01*
X138950Y174320D02*
X139700D01*
X128270Y172720D02*
X137350D01*
X138950Y174320D01*
X128140Y172850D02*
Y177920D01*
X128010D02*
X128140D01*
Y172850D02*
X128270Y172720D01*
X115610Y182920D02*
X118110Y185420D01*
X128010Y182920D02*
Y187920D01*
X138950Y183820D02*
X139700D01*
X128010Y182920D02*
X138050D01*
X138950Y183820D01*
X250345Y198595D02*
X250500Y198750D01*
X250345Y193575D02*
Y198595D01*
X250190Y193420D02*
X250345Y193575D01*
X237490Y193581D02*
X238530Y194621D01*
Y197700D01*
X237490Y193040D02*
Y193581D01*
X239280Y198450D02*
X240030D01*
X238530Y197700D02*
X239280Y198450D01*
X230107Y192080D02*
Y198213D01*
Y192080D02*
X230344Y191843D01*
X229870Y198450D02*
X230107Y198213D01*
X223372Y190972D02*
Y191513D01*
X221210Y193675D02*
X223372Y191513D01*
X221210Y193675D02*
Y197700D01*
X220460Y198450D02*
X221210Y197700D01*
X219710Y198450D02*
X220460D01*
D97*
X88730Y164000D02*
X104310Y148420D01*
X168423D01*
X174943Y154940D01*
X217356Y220750D02*
X289175D01*
X216756Y221350D02*
X217356Y220750D01*
X212809Y221350D02*
X216756D01*
X212139Y222020D02*
X212809Y221350D01*
X130470Y201930D02*
X130810Y201590D01*
X125480Y201930D02*
X130470D01*
X125310Y202100D02*
X125480Y201930D01*
X88730Y164000D02*
Y181440D01*
X267475Y275977D02*
X270310Y273143D01*
X267475Y275977D02*
Y276924D01*
X270310Y271980D02*
Y273143D01*
Y271980D02*
X293370Y248920D01*
X204470Y297180D02*
X218440Y283210D01*
X293370Y248920D02*
X316230D01*
X332970Y232180D01*
X300185Y238760D02*
X322473D01*
X332970Y207874D02*
Y232180D01*
X330200Y208280D02*
Y231033D01*
X322473Y238760D02*
X330200Y231033D01*
X336550Y186584D02*
Y204294D01*
X332970Y207874D02*
X336550Y204294D01*
X331576Y181610D02*
X336550Y186584D01*
X331470Y181610D02*
X331576D01*
X337250Y161860D02*
X355600Y143510D01*
X331470Y181610D02*
X337250Y175830D01*
Y161860D02*
Y175830D01*
X326390Y204470D02*
X330200Y208280D01*
X196850Y297180D02*
X204470D01*
X261620Y227330D02*
X288755D01*
X300185Y238760D01*
X300835Y232410D02*
X314960D01*
X289175Y220750D02*
X300835Y232410D01*
X238372Y233000D02*
X255950D01*
X261620Y227330D01*
X224790Y232218D02*
X237590D01*
X238372Y233000D01*
X355600Y130810D02*
Y143510D01*
X114470Y202100D02*
X125310D01*
X101405Y187960D02*
X108170D01*
X101235Y188130D02*
X101405Y187960D01*
X88730Y181440D02*
X95420Y188130D01*
X101235D01*
X93980Y175260D02*
X98865D01*
X101525Y177920D01*
X108210D01*
Y195840D02*
X114470Y202100D01*
X108210Y192920D02*
Y195840D01*
X108170Y187960D02*
X108210Y187920D01*
X174943Y154940D02*
X175260D01*
D98*
X273975Y278475D02*
Y285206D01*
X269930Y289251D02*
Y308148D01*
Y289251D02*
X273975Y285206D01*
Y278475D02*
X294627Y257822D01*
X233680Y308610D02*
X269930D01*
X224790Y271780D02*
X233680Y280670D01*
Y308610D01*
X219710Y322580D02*
X233680Y308610D01*
X294627Y257822D02*
X317512D01*
X327942Y192250D02*
Y193178D01*
X325370Y195750D02*
X327942Y193178D01*
X318770Y195750D02*
X325370D01*
D99*
X240030Y207950D02*
X270510D01*
X345440Y204250D02*
Y229895D01*
X317512Y257822D02*
X345440Y229895D01*
X270510Y207950D02*
X279730D01*
X229870D02*
X240030D01*
X219710D02*
X229870D01*
X209550D02*
X219710D01*
X279730D02*
X281940Y205740D01*
X284400Y189730D02*
X293104D01*
X295176Y191802D01*
X284150Y189230D02*
Y189480D01*
X284400Y189730D01*
X295176Y191802D02*
Y192250D01*
X295606Y170611D02*
X296037Y170180D01*
X295606Y170611D02*
Y191819D01*
X250190Y147447D02*
Y161290D01*
X267154Y178254D01*
X276000D01*
X274650Y180049D02*
X276000Y178699D01*
X274650Y180049D02*
Y189230D01*
X276000Y178254D02*
Y178699D01*
X237490Y191389D02*
X248666Y180213D01*
X250190D01*
X237490Y191389D02*
Y193040D01*
X139700Y183820D02*
X166040D01*
X175260Y193040D01*
D100*
X208610Y168133D02*
Y179070D01*
X181610Y197297D02*
Y199390D01*
Y197297D02*
X199390Y179517D01*
Y153670D02*
Y179517D01*
X209980Y155940D02*
Y166763D01*
X208610Y168133D02*
X209980Y166763D01*
Y155940D02*
X210980Y154940D01*
X269500Y150615D02*
X269775Y150890D01*
Y160344D01*
D101*
X76200Y209550D02*
X85818Y199932D01*
Y197809D02*
Y199932D01*
X230980Y148940D02*
Y154940D01*
X249811Y147826D02*
X250190Y147447D01*
X232094Y147826D02*
X249811D01*
X230980Y148940D02*
X232094Y147826D01*
X76200Y209550D02*
Y238566D01*
X166370Y236220D02*
Y278130D01*
Y236220D02*
X170180Y232410D01*
X128270Y283210D02*
X161290D01*
X166370Y278130D01*
X125730Y280670D02*
X128270Y283210D01*
X76200Y238566D02*
X85066Y247432D01*
D102*
X280000Y240000D02*
D03*
X273000Y233000D02*
D03*
X280000D02*
D03*
X287000D02*
D03*
Y240000D02*
D03*
X273000D02*
D03*
Y247000D02*
D03*
X280000D02*
D03*
X287000D02*
D03*
X59690Y304800D02*
D03*
X316230Y213360D02*
D03*
X294640Y123190D02*
D03*
X105410Y125730D02*
D03*
X81280Y151130D02*
D03*
X148590Y322580D02*
D03*
X251460Y277960D02*
D03*
X177180Y213867D02*
D03*
X157480Y213360D02*
D03*
X172720Y168910D02*
D03*
X130810Y153670D02*
D03*
X165100D02*
D03*
X344170Y139700D02*
D03*
X255270Y208050D02*
D03*
X219439Y226331D02*
D03*
X212139Y222020D02*
D03*
X240030Y317500D02*
D03*
X215900Y190500D02*
D03*
X130810Y212090D02*
D03*
Y201590D02*
D03*
X124410Y217641D02*
D03*
Y225049D02*
D03*
X107950Y207010D02*
D03*
X119380Y209550D02*
D03*
X128270Y161290D02*
D03*
X93980Y166370D02*
D03*
X85818Y197809D02*
D03*
X109220Y247650D02*
D03*
X83820Y311150D02*
D03*
X72390Y294640D02*
D03*
X39370Y304800D02*
D03*
X46990Y316230D02*
D03*
X190500Y323850D02*
D03*
X132080Y304800D02*
D03*
X107950Y275590D02*
D03*
X177800Y295910D02*
D03*
X176530Y312420D02*
D03*
X276860Y293370D02*
D03*
X267475Y276924D02*
D03*
X269930Y308610D02*
D03*
X224790Y271780D02*
D03*
X226272Y264939D02*
D03*
X218440Y283210D02*
D03*
X219710Y322580D02*
D03*
X229870Y252730D02*
D03*
X285750Y181115D02*
D03*
X217170Y170180D02*
D03*
X356870Y196850D02*
D03*
X361950Y248920D02*
D03*
X360680Y257810D02*
D03*
X336550Y251460D02*
D03*
X317512Y257822D02*
D03*
X345440Y204250D02*
D03*
X331470Y181610D02*
D03*
X331970Y160020D02*
D03*
X308610Y168910D02*
D03*
X288290Y202250D02*
D03*
X281940Y205740D02*
D03*
X261620Y185420D02*
D03*
X318770Y195750D02*
D03*
X309880Y205740D02*
D03*
X326390Y204470D02*
D03*
X321358Y149750D02*
D03*
X356870Y152400D02*
D03*
X344170Y123190D02*
D03*
X294640Y299720D02*
D03*
X289560Y316230D02*
D03*
X297180Y314960D02*
D03*
X146050Y292100D02*
D03*
X196850Y297180D02*
D03*
X238760Y245110D02*
D03*
X246380Y255270D02*
D03*
X224790Y232218D02*
D03*
X228287Y238594D02*
D03*
X248050Y227750D02*
D03*
X355600Y123190D02*
D03*
Y130810D02*
D03*
X260350Y193040D02*
D03*
X283210Y134620D02*
D03*
X290830Y149860D02*
D03*
X297180Y140970D02*
D03*
X199390Y153670D02*
D03*
X181610Y199390D02*
D03*
X193040Y280670D02*
D03*
X158750Y231140D02*
D03*
X99060Y182880D02*
D03*
X93980Y175260D02*
D03*
X123190Y196850D02*
D03*
X128270Y172720D02*
D03*
X178229Y273479D02*
D03*
X175260Y193040D02*
D03*
Y154940D02*
D03*
X248920Y265430D02*
D03*
X323850Y228790D02*
D03*
Y221520D02*
D03*
X250190Y193420D02*
D03*
X237490Y193040D02*
D03*
X230344Y191843D02*
D03*
X223372Y190972D02*
D03*
X209157Y188620D02*
D03*
X199373Y190518D02*
D03*
X202050Y196986D02*
D03*
X201575Y207010D02*
D03*
X314960Y232410D02*
D03*
X257810Y157480D02*
D03*
X156210Y171450D02*
D03*
X149131Y170975D02*
D03*
X85435Y230500D02*
D03*
X94243Y217095D02*
D03*
X107950Y236220D02*
D03*
X152400Y257810D02*
D03*
X104140Y139700D02*
D03*
X95250Y146050D02*
D03*
X170180Y232410D02*
D03*
X25400Y134620D02*
D03*
Y156210D02*
D03*
X85066Y247432D02*
D03*
X95795Y224344D02*
D03*
X96520Y208280D02*
D03*
D103*
X200000Y250000D02*
D03*
D104*
X166370Y278130D02*
D03*
X208280Y170180D02*
D03*
D105*
X296037D02*
D03*
X327942Y192250D02*
D03*
D106*
X328803Y170180D02*
D03*
X295176Y192250D02*
D03*
D107*
X230980Y154940D02*
D03*
X210980D02*
D03*
D108*
X128010Y192920D02*
D03*
D109*
X118110Y185420D02*
D03*
D110*
X128010Y187920D02*
D03*
Y182920D02*
D03*
Y177920D02*
D03*
X108210Y192920D02*
D03*
Y187920D02*
D03*
Y182920D02*
D03*
Y177920D02*
D03*
D111*
X120500Y254042D02*
D03*
D112*
X140500D02*
D03*
D113*
X97000Y311542D02*
D03*
X164000D02*
D03*
D114*
X276000Y178254D02*
D03*
X269775Y160344D02*
D03*
D115*
X282225D02*
D03*
D116*
X120500Y254042D02*
Y275440D01*
X125730Y280670D01*
M02*
