M48
;Layer_Color=9474304
;FILE_FORMAT=4:4
METRIC,LZ
;TYPE=PLATED
T1F00S00C0.2500
T2F00S00C0.3000
T4F00S00C3.1000
%
T01
X000254Y0013462
Y0015621
X0008128Y0015113
X0009525Y0014605
X0010414Y001397
X0010541Y0012573
X0009398Y0016637
Y0017526
X0009906Y0018288
X0012827Y0017272
Y0016129
X0013081Y0015367
X001651
X0017526Y0015494
X0017272Y0016891
X0015621Y0017145
X00149131Y00170975
X0019939Y0015367
X0021717Y0017018
X002159Y001905
X00223372Y00190972
X00230344Y00191843
X00209157Y0018862
X00199373Y00190518
X0026162Y0018542
X0028575Y00181115
X0030861Y0016891
X00321358Y0014975
X0033197Y0016002
X0033147Y0018161
X0034417Y001397
Y0012319
X003556
Y0013081
X0035687Y001524
X0029083Y0014986
X0029718Y0014097
X0029464Y0012319
X0028321Y0013462
X0025781Y0015748
X0026035Y0019304
X0025019Y0019342
X0023749Y0019304
X0025527Y0020805
X0024805Y0022775
X0023876Y0024511
X0022987Y0025273
X00228287Y00238594
X0022479Y00232218
X00219439Y00226331
X00212139Y0022202
X00201575Y0020701
X0020205Y00196986
X0018161Y0019939
X0017526Y0019304
X0017718Y00213867
X0015748Y0021336
X0015875Y0023114
X0017018Y0023241
X001524Y0025781
X0014605Y002921
X0013208Y003048
X0014859Y0032258
X0017653Y0031242
X001778Y0029591
X0019685Y0029718
X0019304Y0028067
X00178229Y00273479
X0022479Y0027178
X00226272Y00264939
X0024892Y0026543
X0024638Y0025527
X0025146Y0027796
X00267475Y00276924
X0027686Y0029337
X0026993Y0030861
X0028956Y0031623
X0029718Y0031496
X0029464Y0029972
X00317512Y00257822
X0033655Y0025146
X0036195Y0024892
X0036068Y0025781
X0035687Y0019685
X0034544Y0020425
X0032639Y0020447
X0031877Y0019575
X0030988Y0020574
X0031623Y0021336
X0032385Y0022152
Y0022879
X0031496Y0023241
X0028829Y0020225
X0028194Y0020574
X0021844Y0028321
X0021971Y0032258
X0024003Y003175
X001905Y0032385
X0008382Y0031115
X0007239Y0029464
X0005969Y003048
X0003937
X0004699Y0031623
X0010795Y0027559
X0010922Y0024765
X0010795Y0023622
X00095795Y00224344
X00094243Y00217095
X0009652Y0020828
X0010795Y0020701
X0011938Y0020955
X0012441Y00217641
Y00225049
X0013081Y0021209
Y0020159
X0012319Y0019685
X00085818Y00197809
X00085435Y002305
X00085066Y00247432
T02
X0020828Y0017018
X00273Y00233
X0028
Y0024
X00287
Y00233
Y00247
X0028
X00273
Y0024
X0016637Y0027813
T04
X002Y0025
M30
